<?xml version="1.0" encoding="UTF-8" standalone="no"?>
<!DOCTYPE svg PUBLIC "-//W3C//DTD SVG 1.1//EN"
 "http://www.w3.org/Graphics/SVG/1.1/DTD/svg11.dtd">
<!-- Generated by graphviz version 2.43.0 (0)
 -->
<!-- Title: leaguewizard.core.models.Item Pages: 1 -->
<svg width="172pt" height="142pt"
 viewBox="0.00 0.00 172.00 142.00" xmlns="http://www.w3.org/2000/svg" xmlns:xlink="http://www.w3.org/1999/xlink">
<g id="graph0" class="graph" transform="scale(1 1) rotate(0) translate(4 138)">
<title>leaguewizard.core.models.Item</title>
<!-- Node1 -->
<g id="Node000001" class="node">
<title>Node1</title>
<g id="a_Node000001"><a xlink:title=" ">
<polygon fill="#999999" stroke="transparent" points="164,-49 0,-49 0,0 164,0 164,-49"/>
<text text-anchor="start" x="5" y="-36.5" font-family="Helvetica,sans-Serif" font-size="10.00">leaguewizard.core.models.Item</text>
<text text-anchor="start" x="80" y="-21.5" font-family="Helvetica,sans-Serif" font-size="10.00"> </text>
<text text-anchor="start" x="80" y="-6.5" font-family="Helvetica,sans-Serif" font-size="10.00"> </text>
<polygon fill="#666666" stroke="#666666" points="0,-31.5 0,-31.5 164,-31.5 164,-31.5 0,-31.5"/>
<polygon fill="#666666" stroke="#666666" points="0,-16.5 0,-16.5 164,-16.5 164,-16.5 0,-16.5"/>
<polygon fill="none" stroke="#666666" points="0,0 0,-49 164,-49 164,0 0,0"/>
</a>
</g>
</g>
<!-- Node2 -->
<g id="Node000002" class="node">
<title>Node2</title>
<g id="a_Node000002"><a xlink:href="classBaseModel.html" target="_top" xlink:title=" ">
<polygon fill="white" stroke="transparent" points="114.5,-134 49.5,-134 49.5,-85 114.5,-85 114.5,-134"/>
<text text-anchor="start" x="55" y="-121.5" font-family="Helvetica,sans-Serif" font-size="10.00">BaseModel</text>
<text text-anchor="start" x="80.5" y="-106.5" font-family="Helvetica,sans-Serif" font-size="10.00"> </text>
<text text-anchor="start" x="80.5" y="-91.5" font-family="Helvetica,sans-Serif" font-size="10.00"> </text>
<polygon fill="#666666" stroke="#666666" points="50,-116.5 50,-116.5 115,-116.5 115,-116.5 50,-116.5"/>
<polygon fill="#666666" stroke="#666666" points="50,-101.5 50,-101.5 115,-101.5 115,-101.5 50,-101.5"/>
<polygon fill="none" stroke="#666666" points="49.5,-85 49.5,-134 114.5,-134 114.5,-85 49.5,-85"/>
</a>
</g>
</g>
<!-- Node2&#45;&gt;Node1 -->
<g id="edge1_Node000001_Node000002" class="edge">
<title>Node2&#45;&gt;Node1</title>
<g id="a_edge1_Node000001_Node000002"><a xlink:title=" ">
<path fill="none" stroke="#63b8ff" d="M82,-74.77C82,-66.17 82,-57.1 82,-49.12"/>
<polygon fill="none" stroke="#63b8ff" points="78.5,-74.94 82,-84.94 85.5,-74.94 78.5,-74.94"/>
</a>
</g>
</g>
</g>
</svg>
