<?xml version="1.0" encoding="UTF-8" standalone="no"?>
<!DOCTYPE svg PUBLIC "-//W3C//DTD SVG 1.1//EN"
 "http://www.w3.org/Graphics/SVG/1.1/DTD/svg11.dtd">
<!-- Generated by graphviz version 2.43.0 (0)
 -->
<!-- Title: leaguewizard.core.models.EventSchema Pages: 1 -->
<svg width="355pt" height="272pt"
 viewBox="0.00 0.00 355.00 272.00" xmlns="http://www.w3.org/2000/svg" xmlns:xlink="http://www.w3.org/1999/xlink">
<g id="graph0" class="graph" transform="scale(1 1) rotate(0) translate(4 268)">
<title>leaguewizard.core.models.EventSchema</title>
<!-- Node1 -->
<g id="Node000001" class="node">
<title>Node1</title>
<g id="a_Node000001"><a xlink:title=" ">
<polygon fill="#999999" stroke="transparent" points="244,-60 102,-60 102,0 244,0 244,-60"/>
<text text-anchor="start" x="107" y="-48" font-family="Helvetica,sans-Serif" font-size="10.00">leaguewizard.core.models.</text>
<text text-anchor="start" x="139.5" y="-37" font-family="Helvetica,sans-Serif" font-size="10.00">EventSchema</text>
<text text-anchor="start" x="171" y="-22" font-family="Helvetica,sans-Serif" font-size="10.00"> </text>
<text text-anchor="start" x="171" y="-7" font-family="Helvetica,sans-Serif" font-size="10.00"> </text>
<polygon fill="#666666" stroke="#666666" points="102,-32 102,-32 244,-32 244,-32 102,-32"/>
<polygon fill="#666666" stroke="#666666" points="102,-17 102,-17 244,-17 244,-17 102,-17"/>
<polygon fill="none" stroke="#666666" points="102,0 102,-60 244,-60 244,0 102,0"/>
</a>
</g>
</g>
<!-- Node2 -->
<g id="Node000002" class="node">
<title>Node2</title>
<g id="a_Node000002"><a xlink:href="classleaguewizard_1_1core_1_1models_1_1Payload.html" target="_top" xlink:title=" ">
<polygon fill="white" stroke="transparent" points="142,-178 0,-178 0,-118 142,-118 142,-178"/>
<text text-anchor="start" x="5" y="-166" font-family="Helvetica,sans-Serif" font-size="10.00">leaguewizard.core.models.</text>
<text text-anchor="start" x="51.5" y="-155" font-family="Helvetica,sans-Serif" font-size="10.00">Payload</text>
<text text-anchor="start" x="69" y="-140" font-family="Helvetica,sans-Serif" font-size="10.00"> </text>
<text text-anchor="start" x="24" y="-125" font-family="Helvetica,sans-Serif" font-size="10.00">+</text>
<text text-anchor="start" x="57" y="-125" font-family="Helvetica,sans-Serif" font-size="10.00">asjson()</text>
<polygon fill="#666666" stroke="#666666" points="0,-150 0,-150 142,-150 142,-150 0,-150"/>
<polygon fill="#666666" stroke="#666666" points="0,-135 0,-135 142,-135 142,-135 0,-135"/>
<polygon fill="none" stroke="#666666" points="0,-118 0,-178 142,-178 142,-118 0,-118"/>
</a>
</g>
</g>
<!-- Node2&#45;&gt;Node1 -->
<g id="edge1_Node000001_Node000002" class="edge">
<title>Node2&#45;&gt;Node1</title>
<g id="a_edge1_Node000001_Node000002"><a xlink:title=" ">
<path fill="none" stroke="#63b8ff" d="M103.48,-110.06C117.63,-93.97 133.98,-75.37 147.27,-60.26"/>
<polygon fill="none" stroke="#63b8ff" points="100.71,-107.91 96.74,-117.73 105.97,-112.53 100.71,-107.91"/>
</a>
</g>
</g>
<!-- Node3 -->
<g id="Node000003" class="node">
<title>Node3</title>
<g id="a_Node000003"><a xlink:href="classBaseModel.html" target="_top" xlink:title=" ">
<polygon fill="white" stroke="transparent" points="103.5,-264 38.5,-264 38.5,-215 103.5,-215 103.5,-264"/>
<text text-anchor="start" x="44" y="-251.5" font-family="Helvetica,sans-Serif" font-size="10.00">BaseModel</text>
<text text-anchor="start" x="69.5" y="-236.5" font-family="Helvetica,sans-Serif" font-size="10.00"> </text>
<text text-anchor="start" x="69.5" y="-221.5" font-family="Helvetica,sans-Serif" font-size="10.00"> </text>
<polygon fill="#666666" stroke="#666666" points="39,-246.5 39,-246.5 104,-246.5 104,-246.5 39,-246.5"/>
<polygon fill="#666666" stroke="#666666" points="39,-231.5 39,-231.5 104,-231.5 104,-231.5 39,-231.5"/>
<polygon fill="none" stroke="#666666" points="38.5,-215 38.5,-264 103.5,-264 103.5,-215 38.5,-215"/>
</a>
</g>
</g>
<!-- Node3&#45;&gt;Node2 -->
<g id="edge2_Node000002_Node000003" class="edge">
<title>Node3&#45;&gt;Node2</title>
<g id="a_edge2_Node000002_Node000003"><a xlink:title=" ">
<path fill="none" stroke="#63b8ff" d="M71,-204.7C71,-195.95 71,-186.6 71,-178.12"/>
<polygon fill="none" stroke="#63b8ff" points="67.5,-204.98 71,-214.98 74.5,-204.98 67.5,-204.98"/>
</a>
</g>
</g>
<!-- Node4 -->
<g id="Node000004" class="node">
<title>Node4</title>
<g id="a_Node000004"><a xlink:title=" ">
<polygon fill="white" stroke="transparent" points="186,-172.5 160,-172.5 160,-123.5 186,-123.5 186,-172.5"/>
<text text-anchor="start" x="165" y="-160" font-family="Helvetica,sans-Serif" font-size="10.00">list</text>
<text text-anchor="start" x="171" y="-145" font-family="Helvetica,sans-Serif" font-size="10.00"> </text>
<text text-anchor="start" x="171" y="-130" font-family="Helvetica,sans-Serif" font-size="10.00"> </text>
<polygon fill="#666666" stroke="#666666" points="160,-155 160,-155 186,-155 186,-155 160,-155"/>
<polygon fill="#666666" stroke="#666666" points="160,-140 160,-140 186,-140 186,-140 160,-140"/>
<polygon fill="none" stroke="#666666" points="160,-123.5 160,-172.5 186,-172.5 186,-123.5 160,-123.5"/>
</a>
</g>
</g>
<!-- Node4&#45;&gt;Node1 -->
<g id="edge3_Node000001_Node000004" class="edge">
<title>Node4&#45;&gt;Node1</title>
<g id="a_edge3_Node000001_Node000004"><a xlink:title=" ">
<path fill="none" stroke="#63b8ff" d="M173,-123.25C173,-108.52 173,-89.22 173,-72.07"/>
<polygon fill="none" stroke="#63b8ff" points="173,-72.07 169,-66.07 173,-60.07 177,-66.07 173,-72.07"/>
</a>
</g>
<text text-anchor="middle" x="200.5" y="-92" font-family="Helvetica,sans-Serif" font-size="10.00" fill="grey"> +actions</text>
<text text-anchor="middle" x="200.5" y="-81" font-family="Helvetica,sans-Serif" font-size="10.00" fill="grey">+my_team</text>
</g>
<!-- Node5 -->
<g id="Node000005" class="node">
<title>Node5</title>
<g id="a_Node000005"><a xlink:title=" ">
<polygon fill="white" stroke="transparent" points="262.5,-172.5 239.5,-172.5 239.5,-123.5 262.5,-123.5 262.5,-172.5"/>
<text text-anchor="start" x="245" y="-160" font-family="Helvetica,sans-Serif" font-size="10.00">int</text>
<text text-anchor="start" x="249.5" y="-145" font-family="Helvetica,sans-Serif" font-size="10.00"> </text>
<text text-anchor="start" x="249.5" y="-130" font-family="Helvetica,sans-Serif" font-size="10.00"> </text>
<polygon fill="#666666" stroke="#666666" points="240,-155 240,-155 263,-155 263,-155 240,-155"/>
<polygon fill="#666666" stroke="#666666" points="240,-140 240,-140 263,-140 263,-140 240,-140"/>
<polygon fill="none" stroke="#666666" points="239.5,-123.5 239.5,-172.5 262.5,-172.5 262.5,-123.5 239.5,-123.5"/>
</a>
</g>
</g>
<!-- Node5&#45;&gt;Node1 -->
<g id="edge4_Node000001_Node000005" class="edge">
<title>Node5&#45;&gt;Node1</title>
<g id="a_edge4_Node000001_Node000005"><a xlink:title=" ">
<path fill="none" stroke="#63b8ff" d="M246.95,-123.5C243.72,-109.43 238.17,-91.68 229,-78 226.91,-74.89 224.56,-71.86 222.03,-68.95"/>
<polygon fill="none" stroke="#63b8ff" points="221.8,-68.71 214.76,-67.17 213.47,-60.07 220.52,-61.62 221.8,-68.71"/>
</a>
</g>
<text text-anchor="middle" x="293" y="-86.5" font-family="Helvetica,sans-Serif" font-size="10.00" fill="grey"> +local_player_cell_id</text>
</g>
</g>
</svg>
