<?xml version="1.0" encoding="UTF-8" standalone="no"?>
<!DOCTYPE svg PUBLIC "-//W3C//DTD SVG 1.1//EN"
 "http://www.w3.org/Graphics/SVG/1.1/DTD/svg11.dtd">
<!-- Generated by graphviz version 2.43.0 (0)
 -->
<!-- Title: leaguewizard.api.models.LockFile Pages: 1 -->
<svg width="347pt" height="272pt"
 viewBox="0.00 0.00 346.50 272.00" xmlns="http://www.w3.org/2000/svg" xmlns:xlink="http://www.w3.org/1999/xlink">
<g id="graph0" class="graph" transform="scale(1 1) rotate(0) translate(4 268)">
<title>leaguewizard.api.models.LockFile</title>
<!-- Node1 -->
<g id="Node000001" class="node">
<title>Node1</title>
<g id="a_Node000001"><a xlink:title=" ">
<polygon fill="#999999" stroke="transparent" points="197.5,-135 61.5,-135 61.5,0 197.5,0 197.5,-135"/>
<text text-anchor="start" x="66.5" y="-122.5" font-family="Helvetica,sans-Serif" font-size="10.00">leaguewizard.api.models.</text>
<text text-anchor="start" x="109.5" y="-111.5" font-family="Helvetica,sans-Serif" font-size="10.00">LockFile</text>
<text text-anchor="start" x="127.5" y="-96.5" font-family="Helvetica,sans-Serif" font-size="10.00"> </text>
<text text-anchor="start" x="77" y="-81.5" font-family="Helvetica,sans-Serif" font-size="10.00">+</text>
<text text-anchor="start" x="101.5" y="-81.5" font-family="Helvetica,sans-Serif" font-size="10.00">__init__()</text>
<text text-anchor="start" x="77" y="-66.5" font-family="Helvetica,sans-Serif" font-size="10.00">+</text>
<text text-anchor="start" x="101.5" y="-66.5" font-family="Helvetica,sans-Serif" font-size="10.00">https_addr()</text>
<text text-anchor="start" x="77" y="-51.5" font-family="Helvetica,sans-Serif" font-size="10.00">+</text>
<text text-anchor="start" x="101.5" y="-51.5" font-family="Helvetica,sans-Serif" font-size="10.00">wss_addr()</text>
<text text-anchor="start" x="77" y="-36.5" font-family="Helvetica,sans-Serif" font-size="10.00">+</text>
<text text-anchor="start" x="101.5" y="-36.5" font-family="Helvetica,sans-Serif" font-size="10.00">auth_header()</text>
<text text-anchor="start" x="77" y="-21.5" font-family="Helvetica,sans-Serif" font-size="10.00">#</text>
<text text-anchor="start" x="101.5" y="-21.5" font-family="Helvetica,sans-Serif" font-size="10.00">_parse()</text>
<text text-anchor="start" x="77" y="-6.5" font-family="Helvetica,sans-Serif" font-size="10.00">#</text>
<text text-anchor="start" x="101.5" y="-6.5" font-family="Helvetica,sans-Serif" font-size="10.00">_lockfile()</text>
<polygon fill="#666666" stroke="#666666" points="61.5,-106.5 61.5,-106.5 197.5,-106.5 197.5,-106.5 61.5,-106.5"/>
<polygon fill="#666666" stroke="#666666" points="61.5,-91.5 61.5,-91.5 197.5,-91.5 197.5,-91.5 61.5,-91.5"/>
<polygon fill="none" stroke="#666666" points="61.5,0 61.5,-135 197.5,-135 197.5,0 61.5,0"/>
</a>
</g>
</g>
<!-- Node2 -->
<g id="Node000002" class="node">
<title>Node2</title>
<g id="a_Node000002"><a xlink:title=" ">
<polygon fill="white" stroke="transparent" points="47,-264 0,-264 0,-215 47,-215 47,-264"/>
<text text-anchor="start" x="5.5" y="-251.5" font-family="Helvetica,sans-Serif" font-size="10.00">str|Path</text>
<text text-anchor="start" x="22" y="-236.5" font-family="Helvetica,sans-Serif" font-size="10.00"> </text>
<text text-anchor="start" x="22" y="-221.5" font-family="Helvetica,sans-Serif" font-size="10.00"> </text>
<polygon fill="#666666" stroke="#666666" points="0.5,-246.5 0.5,-246.5 47.5,-246.5 47.5,-246.5 0.5,-246.5"/>
<polygon fill="#666666" stroke="#666666" points="0.5,-231.5 0.5,-231.5 47.5,-231.5 47.5,-231.5 0.5,-231.5"/>
<polygon fill="none" stroke="#666666" points="0,-215 0,-264 47,-264 47,-215 0,-215"/>
</a>
</g>
</g>
<!-- Node2&#45;&gt;Node1 -->
<g id="edge1_Node000001_Node000002" class="edge">
<title>Node2&#45;&gt;Node1</title>
<g id="a_edge1_Node000001_Node000002"><a xlink:title=" ">
<path fill="none" stroke="#63b8ff" d="M25.82,-214.73C28.38,-196.82 33.67,-172.16 44.5,-153 47.3,-148.05 50.47,-143.2 53.89,-138.48"/>
<polygon fill="none" stroke="#63b8ff" points="53.91,-138.46 54.42,-131.27 61.26,-128.98 60.74,-136.17 53.91,-138.46"/>
</a>
</g>
<text text-anchor="middle" x="59" y="-172.5" font-family="Helvetica,sans-Serif" font-size="10.00" fill="grey"> +exe</text>
</g>
<!-- Node3 -->
<g id="Node000003" class="node">
<title>Node3</title>
<g id="a_Node000003"><a xlink:title=" ">
<polygon fill="white" stroke="transparent" points="97.5,-264 65.5,-264 65.5,-215 97.5,-215 97.5,-264"/>
<text text-anchor="start" x="70.5" y="-251.5" font-family="Helvetica,sans-Serif" font-size="10.00">Path</text>
<text text-anchor="start" x="79.5" y="-236.5" font-family="Helvetica,sans-Serif" font-size="10.00"> </text>
<text text-anchor="start" x="79.5" y="-221.5" font-family="Helvetica,sans-Serif" font-size="10.00"> </text>
<polygon fill="#666666" stroke="#666666" points="65.5,-246.5 65.5,-246.5 97.5,-246.5 97.5,-246.5 65.5,-246.5"/>
<polygon fill="#666666" stroke="#666666" points="65.5,-231.5 65.5,-231.5 97.5,-231.5 97.5,-231.5 65.5,-231.5"/>
<polygon fill="none" stroke="#666666" points="65.5,-215 65.5,-264 97.5,-264 97.5,-215 65.5,-215"/>
</a>
</g>
</g>
<!-- Node3&#45;&gt;Node1 -->
<g id="edge2_Node000001_Node000003" class="edge">
<title>Node3&#45;&gt;Node1</title>
<g id="a_edge2_Node000001_Node000003"><a xlink:title=" ">
<path fill="none" stroke="#63b8ff" d="M78.7,-214.86C77.37,-197.45 77.09,-173.37 82.5,-153 83.07,-150.84 83.71,-148.68 84.41,-146.52"/>
<polygon fill="none" stroke="#63b8ff" points="84.5,-146.29 82.83,-139.27 88.66,-135.04 90.33,-142.05 84.5,-146.29"/>
</a>
</g>
<text text-anchor="middle" x="119.5" y="-172.5" font-family="Helvetica,sans-Serif" font-size="10.00" fill="grey"> +lockfile_path</text>
</g>
<!-- Node4 -->
<g id="Node000004" class="node">
<title>Node4</title>
<g id="a_Node000004"><a xlink:title=" ">
<polygon fill="white" stroke="transparent" points="204.5,-264 152.5,-264 152.5,-215 204.5,-215 204.5,-264"/>
<text text-anchor="start" x="157.5" y="-251.5" font-family="Helvetica,sans-Serif" font-size="10.00">str|None</text>
<text text-anchor="start" x="176.5" y="-236.5" font-family="Helvetica,sans-Serif" font-size="10.00"> </text>
<text text-anchor="start" x="176.5" y="-221.5" font-family="Helvetica,sans-Serif" font-size="10.00"> </text>
<polygon fill="#666666" stroke="#666666" points="152.5,-246.5 152.5,-246.5 204.5,-246.5 204.5,-246.5 152.5,-246.5"/>
<polygon fill="#666666" stroke="#666666" points="152.5,-231.5 152.5,-231.5 204.5,-231.5 204.5,-231.5 152.5,-231.5"/>
<polygon fill="none" stroke="#666666" points="152.5,-215 152.5,-264 204.5,-264 204.5,-215 152.5,-215"/>
</a>
</g>
</g>
<!-- Node4&#45;&gt;Node1 -->
<g id="edge3_Node000001_Node000004" class="edge">
<title>Node4&#45;&gt;Node1</title>
<g id="a_edge3_Node000001_Node000004"><a xlink:title=" ">
<path fill="none" stroke="#63b8ff" d="M172.79,-214.81C168.55,-197.59 162.48,-173.77 156.5,-153 155.93,-151.02 155.34,-149.01 154.75,-146.98"/>
<polygon fill="none" stroke="#63b8ff" points="154.68,-146.77 149.12,-142.17 151.23,-135.27 156.78,-139.87 154.68,-146.77"/>
</a>
</g>
<text text-anchor="middle" x="202" y="-189" font-family="Helvetica,sans-Serif" font-size="10.00" fill="grey"> #_https_addr</text>
<text text-anchor="middle" x="202" y="-178" font-family="Helvetica,sans-Serif" font-size="10.00" fill="grey">#_password</text>
<text text-anchor="middle" x="202" y="-167" font-family="Helvetica,sans-Serif" font-size="10.00" fill="grey">#_port</text>
<text text-anchor="middle" x="202" y="-156" font-family="Helvetica,sans-Serif" font-size="10.00" fill="grey">#_wss_addr</text>
</g>
<!-- Node5 -->
<g id="Node000005" class="node">
<title>Node5</title>
<g id="a_Node000005"><a xlink:title=" ">
<polygon fill="white" stroke="transparent" points="318.5,-264 222.5,-264 222.5,-215 318.5,-215 318.5,-264"/>
<text text-anchor="start" x="227.5" y="-251.5" font-family="Helvetica,sans-Serif" font-size="10.00">dict[str, str]|None</text>
<text text-anchor="start" x="268.5" y="-236.5" font-family="Helvetica,sans-Serif" font-size="10.00"> </text>
<text text-anchor="start" x="268.5" y="-221.5" font-family="Helvetica,sans-Serif" font-size="10.00"> </text>
<polygon fill="#666666" stroke="#666666" points="222.5,-246.5 222.5,-246.5 318.5,-246.5 318.5,-246.5 222.5,-246.5"/>
<polygon fill="#666666" stroke="#666666" points="222.5,-231.5 222.5,-231.5 318.5,-231.5 318.5,-231.5 222.5,-231.5"/>
<polygon fill="none" stroke="#666666" points="222.5,-215 222.5,-264 318.5,-264 318.5,-215 222.5,-215"/>
</a>
</g>
</g>
<!-- Node5&#45;&gt;Node1 -->
<g id="edge4_Node000001_Node000005" class="edge">
<title>Node5&#45;&gt;Node1</title>
<g id="a_edge4_Node000001_Node000005"><a xlink:title=" ">
<path fill="none" stroke="#63b8ff" d="M266.13,-215C261.87,-196.77 254.01,-171.57 240.5,-153 231.25,-140.28 219.55,-128.57 207.23,-118.19"/>
<polygon fill="none" stroke="#63b8ff" points="207.06,-118.05 199.88,-117.39 197.73,-110.51 204.91,-111.17 207.06,-118.05"/>
</a>
</g>
<text text-anchor="middle" x="299.5" y="-172.5" font-family="Helvetica,sans-Serif" font-size="10.00" fill="grey"> #_auth_header</text>
</g>
</g>
</svg>
