<?xml version="1.0" encoding="UTF-8" standalone="no"?>
<!DOCTYPE svg PUBLIC "-//W3C//DTD SVG 1.1//EN"
 "http://www.w3.org/Graphics/SVG/1.1/DTD/svg11.dtd">
<!-- Generated by graphviz version 2.43.0 (0)
 -->
<!-- Title: leaguewizard.mobalytics.parsers.ItemsetsParser.parse Pages: 1 -->
<svg width="639pt" height="86pt"
 viewBox="0.00 0.00 639.00 86.00" xmlns="http://www.w3.org/2000/svg" xmlns:xlink="http://www.w3.org/1999/xlink">
<g id="graph0" class="graph" transform="scale(1 1) rotate(0) translate(4 82)">
<title>leaguewizard.mobalytics.parsers.ItemsetsParser.parse</title>
<!-- Node1 -->
<g id="Node000001" class="node">
<title>Node1</title>
<g id="a_Node000001"><a xlink:title=" ">
<polygon fill="#999999" stroke="#666666" points="181,-54 0,-54 0,-24 181,-24 181,-54"/>
<text text-anchor="start" x="8" y="-42" font-family="Helvetica,sans-Serif" font-size="10.00">leaguewizard.mobalytics.parsers.</text>
<text text-anchor="middle" x="90.5" y="-31" font-family="Helvetica,sans-Serif" font-size="10.00">ItemsetsParser.parse</text>
</a>
</g>
</g>
<!-- Node2 -->
<g id="Node000002" class="node">
<title>Node2</title>
<g id="a_Node000002"><a xlink:href="classleaguewizard_1_1mobalytics_1_1parsers_1_1ItemsetsParser.html#a4b2ec7b577625ca61d5c7f594f5cd1c2" target="_top" xlink:title=" ">
<polygon fill="white" stroke="#666666" points="414,-78 217,-78 217,-48 414,-48 414,-78"/>
<text text-anchor="start" x="225" y="-66" font-family="Helvetica,sans-Serif" font-size="10.00">leaguewizard.mobalytics.parsers.</text>
<text text-anchor="middle" x="315.5" y="-55" font-family="Helvetica,sans-Serif" font-size="10.00">ItemsetsParser._get_aram_item_sets</text>
</a>
</g>
</g>
<!-- Node1&#45;&gt;Node2 -->
<g id="edge1_Node000001_Node000002" class="edge">
<title>Node1&#45;&gt;Node2</title>
<g id="a_edge1_Node000001_Node000002"><a xlink:title=" ">
<path fill="none" stroke="#63b8ff" d="M181.24,-48.66C189.68,-49.57 198.29,-50.49 206.87,-51.42"/>
<polygon fill="#63b8ff" stroke="#63b8ff" points="206.6,-54.91 216.91,-52.5 207.35,-47.95 206.6,-54.91"/>
</a>
</g>
</g>
<!-- Node4 -->
<g id="Node000004" class="node">
<title>Node4</title>
<g id="a_Node000004"><a xlink:href="classleaguewizard_1_1mobalytics_1_1parsers_1_1ItemsetsParser.html#a7e5c3f46d2d47c9dc30a6a0d4bd4aa95" target="_top" xlink:title=" ">
<polygon fill="white" stroke="#666666" points="406,-30 225,-30 225,0 406,0 406,-30"/>
<text text-anchor="start" x="233" y="-18" font-family="Helvetica,sans-Serif" font-size="10.00">leaguewizard.mobalytics.parsers.</text>
<text text-anchor="middle" x="315.5" y="-7" font-family="Helvetica,sans-Serif" font-size="10.00">ItemsetsParser._get_sr_item_sets</text>
</a>
</g>
</g>
<!-- Node1&#45;&gt;Node4 -->
<g id="edge3_Node000001_Node000004" class="edge">
<title>Node1&#45;&gt;Node4</title>
<g id="a_edge3_Node000001_Node000004"><a xlink:title=" ">
<path fill="none" stroke="#63b8ff" d="M181.24,-29.34C192.27,-28.16 203.59,-26.94 214.75,-25.74"/>
<polygon fill="#63b8ff" stroke="#63b8ff" points="215.38,-29.19 224.95,-24.64 214.63,-22.23 215.38,-29.19"/>
</a>
</g>
</g>
<!-- Node3 -->
<g id="Node000003" class="node">
<title>Node3</title>
<g id="a_Node000003"><a xlink:href="classleaguewizard_1_1mobalytics_1_1parsers_1_1ItemsetsParser.html#a2a50d84cce19dfcbe57a0c5a43b409ff" target="_top" xlink:title=" ">
<polygon fill="white" stroke="#666666" points="631,-54 450,-54 450,-24 631,-24 631,-54"/>
<text text-anchor="start" x="458" y="-42" font-family="Helvetica,sans-Serif" font-size="10.00">leaguewizard.mobalytics.parsers.</text>
<text text-anchor="middle" x="540.5" y="-31" font-family="Helvetica,sans-Serif" font-size="10.00">ItemsetsParser._get_itemsets</text>
</a>
</g>
</g>
<!-- Node2&#45;&gt;Node3 -->
<g id="edge2_Node000002_Node000003" class="edge">
<title>Node2&#45;&gt;Node3</title>
<g id="a_edge2_Node000002_Node000003"><a xlink:title=" ">
<path fill="none" stroke="#63b8ff" d="M414.31,-52.47C422.71,-51.57 431.22,-50.65 439.64,-49.75"/>
<polygon fill="#63b8ff" stroke="#63b8ff" points="440.28,-53.2 449.85,-48.65 439.54,-46.24 440.28,-53.2"/>
</a>
</g>
</g>
<!-- Node4&#45;&gt;Node3 -->
<g id="edge4_Node000004_Node000003" class="edge">
<title>Node4&#45;&gt;Node3</title>
<g id="a_edge4_Node000004_Node000003"><a xlink:title=" ">
<path fill="none" stroke="#63b8ff" d="M406.24,-24.66C417.27,-25.84 428.59,-27.06 439.75,-28.26"/>
<polygon fill="#63b8ff" stroke="#63b8ff" points="439.63,-31.77 449.95,-29.36 440.38,-24.81 439.63,-31.77"/>
</a>
</g>
</g>
</g>
</svg>
