<?xml version="1.0" encoding="UTF-8" standalone="no"?>
<!DOCTYPE svg PUBLIC "-//W3C//DTD SVG 1.1//EN"
 "http://www.w3.org/Graphics/SVG/1.1/DTD/svg11.dtd">
<!-- Generated by graphviz version 2.43.0 (0)
 -->
<!-- Title: leaguewizard.mobalytics.parsers.PerksParser Pages: 1 -->
<svg width="183pt" height="306pt"
 viewBox="0.00 0.00 183.00 306.00" xmlns="http://www.w3.org/2000/svg" xmlns:xlink="http://www.w3.org/1999/xlink">
<g id="graph0" class="graph" transform="scale(1 1) rotate(0) translate(4 302)">
<title>leaguewizard.mobalytics.parsers.PerksParser</title>
<!-- Node1 -->
<g id="Node000001" class="node">
<title>Node1</title>
<g id="a_Node000001"><a xlink:title=" ">
<polygon fill="#999999" stroke="transparent" points="175,-75 0,-75 0,0 175,0 175,-75"/>
<text text-anchor="start" x="5.5" y="-62.5" font-family="Helvetica,sans-Serif" font-size="10.00">leaguewizard.mobalytics.parsers.</text>
<text text-anchor="start" x="59" y="-51.5" font-family="Helvetica,sans-Serif" font-size="10.00">PerksParser</text>
<text text-anchor="start" x="86" y="-36.5" font-family="Helvetica,sans-Serif" font-size="10.00"> </text>
<text text-anchor="start" x="27.5" y="-21.5" font-family="Helvetica,sans-Serif" font-size="10.00">+</text>
<text text-anchor="start" x="63.5" y="-21.5" font-family="Helvetica,sans-Serif" font-size="10.00">parse()</text>
<text text-anchor="start" x="27.5" y="-6.5" font-family="Helvetica,sans-Serif" font-size="10.00">#</text>
<text text-anchor="start" x="63.5" y="-6.5" font-family="Helvetica,sans-Serif" font-size="10.00">_get_perks()</text>
<polygon fill="#666666" stroke="#666666" points="0.5,-46.5 0.5,-46.5 175.5,-46.5 175.5,-46.5 0.5,-46.5"/>
<polygon fill="#666666" stroke="#666666" points="0.5,-31.5 0.5,-31.5 175.5,-31.5 175.5,-31.5 0.5,-31.5"/>
<polygon fill="none" stroke="#666666" points="0,0 0,-75 175,-75 175,0 0,0"/>
</a>
</g>
</g>
<!-- Node2 -->
<g id="Node000002" class="node">
<title>Node2</title>
<g id="a_Node000002"><a xlink:href="classleaguewizard_1_1mobalytics_1_1parsers_1_1BaseParser.html" target="_top" xlink:title=" ">
<polygon fill="white" stroke="transparent" points="175,-202 0,-202 0,-112 175,-112 175,-202"/>
<text text-anchor="start" x="5.5" y="-190" font-family="Helvetica,sans-Serif" font-size="10.00">leaguewizard.mobalytics.parsers.</text>
<text text-anchor="start" x="60.5" y="-179" font-family="Helvetica,sans-Serif" font-size="10.00">BaseParser</text>
<text text-anchor="start" x="31" y="-164" font-family="Helvetica,sans-Serif" font-size="10.00">+</text>
<text text-anchor="start" x="70.5" y="-164" font-family="Helvetica,sans-Serif" font-size="10.00">html</text>
<text text-anchor="start" x="31" y="-149" font-family="Helvetica,sans-Serif" font-size="10.00">+</text>
<text text-anchor="start" x="70.5" y="-149" font-family="Helvetica,sans-Serif" font-size="10.00">__init__()</text>
<text text-anchor="start" x="31" y="-134" font-family="Helvetica,sans-Serif" font-size="10.00">+</text>
<text text-anchor="start" x="70.5" y="-134" font-family="Helvetica,sans-Serif" font-size="10.00">parse()</text>
<text text-anchor="start" x="31" y="-119" font-family="Helvetica,sans-Serif" font-size="10.00">+</text>
<text text-anchor="start" x="70.5" y="-119" font-family="Helvetica,sans-Serif" font-size="10.00">payload()</text>
<polygon fill="#666666" stroke="#666666" points="0.5,-174 0.5,-174 175.5,-174 175.5,-174 0.5,-174"/>
<polygon fill="#666666" stroke="#666666" points="0.5,-159 0.5,-159 68.5,-159 68.5,-159 0.5,-159"/>
<polygon fill="#666666" stroke="#666666" points="68.5,-159 68.5,-159 175.5,-159 175.5,-159 68.5,-159"/>
<polygon fill="none" stroke="#666666" points="0,-112 0,-202 175,-202 175,-112 0,-112"/>
</a>
</g>
</g>
<!-- Node2&#45;&gt;Node1 -->
<g id="edge1_Node000001_Node000002" class="edge">
<title>Node2&#45;&gt;Node1</title>
<g id="a_edge1_Node000001_Node000002"><a xlink:title=" ">
<path fill="none" stroke="#63b8ff" d="M87.5,-101.82C87.5,-92.79 87.5,-83.62 87.5,-75.16"/>
<polygon fill="none" stroke="#63b8ff" points="84,-101.91 87.5,-111.91 91,-101.91 84,-101.91"/>
</a>
</g>
</g>
<!-- Node3 -->
<g id="Node000003" class="node">
<title>Node3</title>
<g id="a_Node000003"><a xlink:href="classABC.html" target="_top" xlink:title=" ">
<polygon fill="white" stroke="transparent" points="79,-298 48,-298 48,-249 79,-249 79,-298"/>
<text text-anchor="start" x="53.5" y="-285.5" font-family="Helvetica,sans-Serif" font-size="10.00">ABC</text>
<text text-anchor="start" x="62" y="-270.5" font-family="Helvetica,sans-Serif" font-size="10.00"> </text>
<text text-anchor="start" x="62" y="-255.5" font-family="Helvetica,sans-Serif" font-size="10.00"> </text>
<polygon fill="#666666" stroke="#666666" points="48.5,-280.5 48.5,-280.5 79.5,-280.5 79.5,-280.5 48.5,-280.5"/>
<polygon fill="#666666" stroke="#666666" points="48.5,-265.5 48.5,-265.5 79.5,-265.5 79.5,-265.5 48.5,-265.5"/>
<polygon fill="none" stroke="#666666" points="48,-249 48,-298 79,-298 79,-249 48,-249"/>
</a>
</g>
</g>
<!-- Node3&#45;&gt;Node2 -->
<g id="edge2_Node000002_Node000003" class="edge">
<title>Node3&#45;&gt;Node2</title>
<g id="a_edge2_Node000002_Node000003"><a xlink:title=" ">
<path fill="none" stroke="#63b8ff" d="M70.58,-238.72C72.99,-227.24 75.71,-214.23 78.27,-202.06"/>
<polygon fill="none" stroke="#63b8ff" points="67.1,-238.27 68.47,-248.78 73.95,-239.71 67.1,-238.27"/>
</a>
</g>
</g>
<!-- Node4 -->
<g id="Node000004" class="node">
<title>Node4</title>
<g id="a_Node000004"><a xlink:title=" ">
<polygon fill="white" stroke="transparent" points="126,-298 97,-298 97,-249 126,-249 126,-298"/>
<text text-anchor="start" x="102.5" y="-285.5" font-family="Helvetica,sans-Serif" font-size="10.00">Any</text>
<text text-anchor="start" x="110" y="-270.5" font-family="Helvetica,sans-Serif" font-size="10.00"> </text>
<text text-anchor="start" x="110" y="-255.5" font-family="Helvetica,sans-Serif" font-size="10.00"> </text>
<polygon fill="#666666" stroke="#666666" points="97.5,-280.5 97.5,-280.5 126.5,-280.5 126.5,-280.5 97.5,-280.5"/>
<polygon fill="#666666" stroke="#666666" points="97.5,-265.5 97.5,-265.5 126.5,-265.5 126.5,-265.5 97.5,-265.5"/>
<polygon fill="none" stroke="#666666" points="97,-249 97,-298 126,-298 126,-249 97,-249"/>
</a>
</g>
</g>
<!-- Node4&#45;&gt;Node2 -->
<g id="edge3_Node000002_Node000004" class="edge">
<title>Node4&#45;&gt;Node2</title>
<g id="a_edge3_Node000002_Node000004"><a xlink:title=" ">
<path fill="none" stroke="#63b8ff" d="M106.53,-248.78C104.41,-238.66 101.83,-226.38 99.27,-214.16"/>
<polygon fill="none" stroke="#63b8ff" points="99.2,-213.8 94.05,-208.75 96.73,-202.06 101.88,-207.11 99.2,-213.8"/>
</a>
</g>
<text text-anchor="middle" x="129.5" y="-223" font-family="Helvetica,sans-Serif" font-size="10.00" fill="grey"> #_payload</text>
</g>
</g>
</svg>
