<?xml version="1.0" encoding="UTF-8" standalone="no"?>
<!DOCTYPE svg PUBLIC "-//W3C//DTD SVG 1.1//EN"
 "http://www.w3.org/Graphics/SVG/1.1/DTD/svg11.dtd">
<!-- Generated by graphviz version 2.43.0 (0)
 -->
<!-- Title: leaguewizard.api.models.SummonerData Pages: 1 -->
<svg width="342pt" height="219pt"
 viewBox="0.00 0.00 341.50 219.00" xmlns="http://www.w3.org/2000/svg" xmlns:xlink="http://www.w3.org/1999/xlink">
<g id="graph0" class="graph" transform="scale(1 1) rotate(0) translate(4 215)">
<title>leaguewizard.api.models.SummonerData</title>
<!-- Node1 -->
<g id="Node000001" class="node">
<title>Node1</title>
<g id="a_Node000001"><a xlink:title=" ">
<polygon fill="#999999" stroke="transparent" points="162.5,-60 26.5,-60 26.5,0 162.5,0 162.5,-60"/>
<text text-anchor="start" x="31.5" y="-48" font-family="Helvetica,sans-Serif" font-size="10.00">leaguewizard.api.models.</text>
<text text-anchor="start" x="56" y="-37" font-family="Helvetica,sans-Serif" font-size="10.00">SummonerData</text>
<text text-anchor="start" x="92.5" y="-22" font-family="Helvetica,sans-Serif" font-size="10.00"> </text>
<text text-anchor="start" x="92.5" y="-7" font-family="Helvetica,sans-Serif" font-size="10.00"> </text>
<polygon fill="#666666" stroke="#666666" points="26.5,-32 26.5,-32 162.5,-32 162.5,-32 26.5,-32"/>
<polygon fill="#666666" stroke="#666666" points="26.5,-17 26.5,-17 162.5,-17 162.5,-17 26.5,-17"/>
<polygon fill="none" stroke="#666666" points="26.5,0 26.5,-60 162.5,-60 162.5,0 26.5,0"/>
</a>
</g>
</g>
<!-- Node2 -->
<g id="Node000002" class="node">
<title>Node2</title>
<g id="a_Node000002"><a xlink:href="classBaseModel.html" target="_top" xlink:title=" ">
<polygon fill="white" stroke="transparent" points="65,-211 0,-211 0,-162 65,-162 65,-211"/>
<text text-anchor="start" x="5.5" y="-198.5" font-family="Helvetica,sans-Serif" font-size="10.00">BaseModel</text>
<text text-anchor="start" x="31" y="-183.5" font-family="Helvetica,sans-Serif" font-size="10.00"> </text>
<text text-anchor="start" x="31" y="-168.5" font-family="Helvetica,sans-Serif" font-size="10.00"> </text>
<polygon fill="#666666" stroke="#666666" points="0.5,-193.5 0.5,-193.5 65.5,-193.5 65.5,-193.5 0.5,-193.5"/>
<polygon fill="#666666" stroke="#666666" points="0.5,-178.5 0.5,-178.5 65.5,-178.5 65.5,-178.5 0.5,-178.5"/>
<polygon fill="none" stroke="#666666" points="0,-162 0,-211 65,-211 65,-162 0,-162"/>
</a>
</g>
</g>
<!-- Node2&#45;&gt;Node1 -->
<g id="edge1_Node000001_Node000002" class="edge">
<title>Node2&#45;&gt;Node1</title>
<g id="a_edge1_Node000001_Node000002"><a xlink:title=" ">
<path fill="none" stroke="#63b8ff" d="M45.89,-152.14C56.89,-124.73 72.32,-86.28 82.82,-60.1"/>
<polygon fill="none" stroke="#63b8ff" points="42.53,-151.11 42.05,-161.7 49.02,-153.72 42.53,-151.11"/>
</a>
</g>
</g>
<!-- Node3 -->
<g id="Node000003" class="node">
<title>Node3</title>
<g id="a_Node000003"><a xlink:title=" ">
<polygon fill="white" stroke="transparent" points="106,-211 83,-211 83,-162 106,-162 106,-211"/>
<text text-anchor="start" x="88.5" y="-198.5" font-family="Helvetica,sans-Serif" font-size="10.00">str</text>
<text text-anchor="start" x="93" y="-183.5" font-family="Helvetica,sans-Serif" font-size="10.00"> </text>
<text text-anchor="start" x="93" y="-168.5" font-family="Helvetica,sans-Serif" font-size="10.00"> </text>
<polygon fill="#666666" stroke="#666666" points="83.5,-193.5 83.5,-193.5 106.5,-193.5 106.5,-193.5 83.5,-193.5"/>
<polygon fill="#666666" stroke="#666666" points="83.5,-178.5 83.5,-178.5 106.5,-178.5 106.5,-178.5 83.5,-178.5"/>
<polygon fill="none" stroke="#666666" points="83,-162 83,-211 106,-211 106,-162 83,-162"/>
</a>
</g>
</g>
<!-- Node3&#45;&gt;Node1 -->
<g id="edge2_Node000001_Node000003" class="edge">
<title>Node3&#45;&gt;Node1</title>
<g id="a_edge2_Node000001_Node000003"><a xlink:title=" ">
<path fill="none" stroke="#63b8ff" d="M94.5,-161.7C94.5,-137.88 94.5,-100.77 94.5,-72.17"/>
<polygon fill="none" stroke="#63b8ff" points="94.5,-72.1 90.5,-66.1 94.5,-60.1 98.5,-66.1 94.5,-72.1"/>
</a>
</g>
<text text-anchor="middle" x="144.5" y="-108.5" font-family="Helvetica,sans-Serif" font-size="10.00" fill="grey"> +assigned_position</text>
</g>
<!-- Node4 -->
<g id="Node000004" class="node">
<title>Node4</title>
<g id="a_Node000004"><a xlink:title=" ">
<polygon fill="white" stroke="transparent" points="229,-211 206,-211 206,-162 229,-162 229,-211"/>
<text text-anchor="start" x="211.5" y="-198.5" font-family="Helvetica,sans-Serif" font-size="10.00">int</text>
<text text-anchor="start" x="216" y="-183.5" font-family="Helvetica,sans-Serif" font-size="10.00"> </text>
<text text-anchor="start" x="216" y="-168.5" font-family="Helvetica,sans-Serif" font-size="10.00"> </text>
<polygon fill="#666666" stroke="#666666" points="206.5,-193.5 206.5,-193.5 229.5,-193.5 229.5,-193.5 206.5,-193.5"/>
<polygon fill="#666666" stroke="#666666" points="206.5,-178.5 206.5,-178.5 229.5,-178.5 229.5,-178.5 206.5,-178.5"/>
<polygon fill="none" stroke="#666666" points="206,-162 206,-211 229,-211 229,-162 206,-162"/>
</a>
</g>
</g>
<!-- Node4&#45;&gt;Node1 -->
<g id="edge3_Node000001_Node000004" class="edge">
<title>Node4&#45;&gt;Node1</title>
<g id="a_edge3_Node000001_Node000004"><a xlink:title=" ">
<path fill="none" stroke="#63b8ff" d="M218.51,-161.58C218.26,-137.93 214.39,-101.92 195.5,-78 189.36,-70.23 181.64,-63.69 173.22,-58.2"/>
<polygon fill="none" stroke="#63b8ff" points="173,-58.07 165.8,-58.49 162.65,-52 169.85,-51.59 173,-58.07"/>
</a>
</g>
<text text-anchor="middle" x="275.5" y="-136" font-family="Helvetica,sans-Serif" font-size="10.00" fill="grey"> +cell_id</text>
<text text-anchor="middle" x="275.5" y="-125" font-family="Helvetica,sans-Serif" font-size="10.00" fill="grey">+champion_id</text>
<text text-anchor="middle" x="275.5" y="-114" font-family="Helvetica,sans-Serif" font-size="10.00" fill="grey">+champion_pick_intent</text>
<text text-anchor="middle" x="275.5" y="-103" font-family="Helvetica,sans-Serif" font-size="10.00" fill="grey">+selected_skin_id</text>
<text text-anchor="middle" x="275.5" y="-92" font-family="Helvetica,sans-Serif" font-size="10.00" fill="grey">+summoner_id</text>
<text text-anchor="middle" x="275.5" y="-81" font-family="Helvetica,sans-Serif" font-size="10.00" fill="grey">+ward_skin_id</text>
</g>
</g>
</svg>
