<?xml version="1.0" encoding="UTF-8" standalone="no"?>
<!DOCTYPE svg PUBLIC "-//W3C//DTD SVG 1.1//EN"
 "http://www.w3.org/Graphics/SVG/1.1/DTD/svg11.dtd">
<!-- Generated by graphviz version 2.43.0 (0)
 -->
<!-- Title: leaguewizard.mobalytics.parsers.SpellsParser Pages: 1 -->
<svg width="183pt" height="321pt"
 viewBox="0.00 0.00 183.00 321.00" xmlns="http://www.w3.org/2000/svg" xmlns:xlink="http://www.w3.org/1999/xlink">
<g id="graph0" class="graph" transform="scale(1 1) rotate(0) translate(4 317)">
<title>leaguewizard.mobalytics.parsers.SpellsParser</title>
<!-- Node1 -->
<g id="Node000001" class="node">
<title>Node1</title>
<g id="a_Node000001"><a xlink:title=" ">
<polygon fill="#999999" stroke="transparent" points="175,-90 0,-90 0,0 175,0 175,-90"/>
<text text-anchor="start" x="5.5" y="-78" font-family="Helvetica,sans-Serif" font-size="10.00">leaguewizard.mobalytics.parsers.</text>
<text text-anchor="start" x="58" y="-67" font-family="Helvetica,sans-Serif" font-size="10.00">SpellsParser</text>
<text text-anchor="start" x="86" y="-52" font-family="Helvetica,sans-Serif" font-size="10.00"> </text>
<text text-anchor="start" x="17.5" y="-37" font-family="Helvetica,sans-Serif" font-size="10.00">+</text>
<text text-anchor="start" x="43.5" y="-37" font-family="Helvetica,sans-Serif" font-size="10.00">parse()</text>
<text text-anchor="start" x="17.5" y="-22" font-family="Helvetica,sans-Serif" font-size="10.00">#</text>
<text text-anchor="start" x="43.5" y="-22" font-family="Helvetica,sans-Serif" font-size="10.00">_get_spells()</text>
<text text-anchor="start" x="17.5" y="-7" font-family="Helvetica,sans-Serif" font-size="10.00">#</text>
<text text-anchor="start" x="43.5" y="-7" font-family="Helvetica,sans-Serif" font-size="10.00">_set_flash_position()</text>
<polygon fill="#666666" stroke="#666666" points="0.5,-62 0.5,-62 175.5,-62 175.5,-62 0.5,-62"/>
<polygon fill="#666666" stroke="#666666" points="0.5,-47 0.5,-47 175.5,-47 175.5,-47 0.5,-47"/>
<polygon fill="none" stroke="#666666" points="0,0 0,-90 175,-90 175,0 0,0"/>
</a>
</g>
</g>
<!-- Node2 -->
<g id="Node000002" class="node">
<title>Node2</title>
<g id="a_Node000002"><a xlink:href="classleaguewizard_1_1mobalytics_1_1parsers_1_1BaseParser.html" target="_top" xlink:title=" ">
<polygon fill="white" stroke="transparent" points="175,-217 0,-217 0,-127 175,-127 175,-217"/>
<text text-anchor="start" x="5.5" y="-205" font-family="Helvetica,sans-Serif" font-size="10.00">leaguewizard.mobalytics.parsers.</text>
<text text-anchor="start" x="60.5" y="-194" font-family="Helvetica,sans-Serif" font-size="10.00">BaseParser</text>
<text text-anchor="start" x="31" y="-179" font-family="Helvetica,sans-Serif" font-size="10.00">+</text>
<text text-anchor="start" x="70.5" y="-179" font-family="Helvetica,sans-Serif" font-size="10.00">html</text>
<text text-anchor="start" x="31" y="-164" font-family="Helvetica,sans-Serif" font-size="10.00">+</text>
<text text-anchor="start" x="70.5" y="-164" font-family="Helvetica,sans-Serif" font-size="10.00">__init__()</text>
<text text-anchor="start" x="31" y="-149" font-family="Helvetica,sans-Serif" font-size="10.00">+</text>
<text text-anchor="start" x="70.5" y="-149" font-family="Helvetica,sans-Serif" font-size="10.00">parse()</text>
<text text-anchor="start" x="31" y="-134" font-family="Helvetica,sans-Serif" font-size="10.00">+</text>
<text text-anchor="start" x="70.5" y="-134" font-family="Helvetica,sans-Serif" font-size="10.00">payload()</text>
<polygon fill="#666666" stroke="#666666" points="0.5,-189 0.5,-189 175.5,-189 175.5,-189 0.5,-189"/>
<polygon fill="#666666" stroke="#666666" points="0.5,-174 0.5,-174 68.5,-174 68.5,-174 0.5,-174"/>
<polygon fill="#666666" stroke="#666666" points="68.5,-174 68.5,-174 175.5,-174 175.5,-174 68.5,-174"/>
<polygon fill="none" stroke="#666666" points="0,-127 0,-217 175,-217 175,-127 0,-127"/>
</a>
</g>
</g>
<!-- Node2&#45;&gt;Node1 -->
<g id="edge1_Node000001_Node000002" class="edge">
<title>Node2&#45;&gt;Node1</title>
<g id="a_edge1_Node000001_Node000002"><a xlink:title=" ">
<path fill="none" stroke="#63b8ff" d="M87.5,-116.66C87.5,-107.78 87.5,-98.68 87.5,-90.09"/>
<polygon fill="none" stroke="#63b8ff" points="84,-116.93 87.5,-126.93 91,-116.93 84,-116.93"/>
</a>
</g>
</g>
<!-- Node3 -->
<g id="Node000003" class="node">
<title>Node3</title>
<g id="a_Node000003"><a xlink:href="classABC.html" target="_top" xlink:title=" ">
<polygon fill="white" stroke="transparent" points="79,-313 48,-313 48,-264 79,-264 79,-313"/>
<text text-anchor="start" x="53.5" y="-300.5" font-family="Helvetica,sans-Serif" font-size="10.00">ABC</text>
<text text-anchor="start" x="62" y="-285.5" font-family="Helvetica,sans-Serif" font-size="10.00"> </text>
<text text-anchor="start" x="62" y="-270.5" font-family="Helvetica,sans-Serif" font-size="10.00"> </text>
<polygon fill="#666666" stroke="#666666" points="48.5,-295.5 48.5,-295.5 79.5,-295.5 79.5,-295.5 48.5,-295.5"/>
<polygon fill="#666666" stroke="#666666" points="48.5,-280.5 48.5,-280.5 79.5,-280.5 79.5,-280.5 48.5,-280.5"/>
<polygon fill="none" stroke="#666666" points="48,-264 48,-313 79,-313 79,-264 48,-264"/>
</a>
</g>
</g>
<!-- Node3&#45;&gt;Node2 -->
<g id="edge2_Node000002_Node000003" class="edge">
<title>Node3&#45;&gt;Node2</title>
<g id="a_edge2_Node000002_Node000003"><a xlink:title=" ">
<path fill="none" stroke="#63b8ff" d="M70.58,-253.72C72.99,-242.24 75.71,-229.23 78.27,-217.06"/>
<polygon fill="none" stroke="#63b8ff" points="67.1,-253.27 68.47,-263.78 73.95,-254.71 67.1,-253.27"/>
</a>
</g>
</g>
<!-- Node4 -->
<g id="Node000004" class="node">
<title>Node4</title>
<g id="a_Node000004"><a xlink:title=" ">
<polygon fill="white" stroke="transparent" points="126,-313 97,-313 97,-264 126,-264 126,-313"/>
<text text-anchor="start" x="102.5" y="-300.5" font-family="Helvetica,sans-Serif" font-size="10.00">Any</text>
<text text-anchor="start" x="110" y="-285.5" font-family="Helvetica,sans-Serif" font-size="10.00"> </text>
<text text-anchor="start" x="110" y="-270.5" font-family="Helvetica,sans-Serif" font-size="10.00"> </text>
<polygon fill="#666666" stroke="#666666" points="97.5,-295.5 97.5,-295.5 126.5,-295.5 126.5,-295.5 97.5,-295.5"/>
<polygon fill="#666666" stroke="#666666" points="97.5,-280.5 97.5,-280.5 126.5,-280.5 126.5,-280.5 97.5,-280.5"/>
<polygon fill="none" stroke="#666666" points="97,-264 97,-313 126,-313 126,-264 97,-264"/>
</a>
</g>
</g>
<!-- Node4&#45;&gt;Node2 -->
<g id="edge3_Node000002_Node000004" class="edge">
<title>Node4&#45;&gt;Node2</title>
<g id="a_edge3_Node000002_Node000004"><a xlink:title=" ">
<path fill="none" stroke="#63b8ff" d="M106.53,-263.78C104.41,-253.66 101.83,-241.38 99.27,-229.16"/>
<polygon fill="none" stroke="#63b8ff" points="99.2,-228.8 94.05,-223.75 96.73,-217.06 101.88,-222.11 99.2,-228.8"/>
</a>
</g>
<text text-anchor="middle" x="129.5" y="-238" font-family="Helvetica,sans-Serif" font-size="10.00" fill="grey"> #_payload</text>
</g>
</g>
</svg>
