<?xml version="1.0" encoding="UTF-8" standalone="no"?>
<!DOCTYPE svg PUBLIC "-//W3C//DTD SVG 1.1//EN"
 "http://www.w3.org/Graphics/SVG/1.1/DTD/svg11.dtd">
<!-- Generated by graphviz version 2.43.0 (0)
 -->
<!-- Title: leaguewizard.mobalytics.mobalytics.MobaChampion Pages: 1 -->
<svg width="201pt" height="254pt"
 viewBox="0.00 0.00 201.00 254.00" xmlns="http://www.w3.org/2000/svg" xmlns:xlink="http://www.w3.org/1999/xlink">

<svg id="main" version="1.1" xmlns="http://www.w3.org/2000/svg" xmlns:xlink="http://www.w3.org/1999/xlink" xml:space="preserve">

<style type="text/css"><![CDATA[
.node, .edge {opacity: 0.7;}
.node.selected, .edge.selected {opacity: 1;}
.edge:hover path { stroke: red; }
.edge:hover polygon { stroke: red; fill: red; }
]]></style>
<script type="application/ecmascript" xlink:href="svg.min.js"/>
<svg id="graph" class="graph">
<g id="graph0" class="graph" transform="scale(1 1) rotate(0) translate(4 250)">
<title>leaguewizard.mobalytics.mobalytics.MobaChampion</title>
<!-- Node1 -->
<g id="Node000001" class="node">
<title>Node1</title>
<g id="a_Node000001"><a xlink:title=" ">
<polygon fill="#999999" stroke="transparent" points="193,-150 0,-150 0,0 193,0 193,-150"/>
<text text-anchor="start" x="5.5" y="-138" font-family="Helvetica,sans-Serif" font-size="10.00">leaguewizard.mobalytics.mobalytics.</text>
<text text-anchor="start" x="58.5" y="-127" font-family="Helvetica,sans-Serif" font-size="10.00">MobaChampion</text>
<text text-anchor="start" x="23.5" y="-112" font-family="Helvetica,sans-Serif" font-size="10.00">+</text>
<text text-anchor="start" x="55.5" y="-112" font-family="Helvetica,sans-Serif" font-size="10.00">champion_name</text>
<text text-anchor="start" x="23.5" y="-97" font-family="Helvetica,sans-Serif" font-size="10.00">+</text>
<text text-anchor="start" x="55.5" y="-97" font-family="Helvetica,sans-Serif" font-size="10.00">role</text>
<text text-anchor="start" x="23.5" y="-82" font-family="Helvetica,sans-Serif" font-size="10.00">+</text>
<text text-anchor="start" x="55.5" y="-82" font-family="Helvetica,sans-Serif" font-size="10.00">__init__()</text>
<text text-anchor="start" x="23.5" y="-67" font-family="Helvetica,sans-Serif" font-size="10.00">+</text>
<text text-anchor="start" x="55.5" y="-67" font-family="Helvetica,sans-Serif" font-size="10.00">fetch_data()</text>
<text text-anchor="start" x="23.5" y="-52" font-family="Helvetica,sans-Serif" font-size="10.00">+</text>
<text text-anchor="start" x="55.5" y="-52" font-family="Helvetica,sans-Serif" font-size="10.00">itemsets_payload()</text>
<text text-anchor="start" x="23.5" y="-37" font-family="Helvetica,sans-Serif" font-size="10.00">+</text>
<text text-anchor="start" x="55.5" y="-37" font-family="Helvetica,sans-Serif" font-size="10.00">perks_payload()</text>
<text text-anchor="start" x="23.5" y="-22" font-family="Helvetica,sans-Serif" font-size="10.00">+</text>
<text text-anchor="start" x="55.5" y="-22" font-family="Helvetica,sans-Serif" font-size="10.00">spells_payload()</text>
<text text-anchor="start" x="23.5" y="-7" font-family="Helvetica,sans-Serif" font-size="10.00">#</text>
<text text-anchor="start" x="55.5" y="-7" font-family="Helvetica,sans-Serif" font-size="10.00">_build_url()</text>
<polygon fill="#666666" stroke="#666666" points="0.5,-122 0.5,-122 193.5,-122 193.5,-122 0.5,-122"/>
<polygon fill="#666666" stroke="#666666" points="0.5,-92 0.5,-92 53.5,-92 53.5,-92 0.5,-92"/>
<polygon fill="#666666" stroke="#666666" points="53.5,-92 53.5,-92 193.5,-92 193.5,-92 53.5,-92"/>
<polygon fill="none" stroke="#666666" points="0,0 0,-150 193,-150 193,0 0,0"/>
</a>
</g>
</g>
<!-- Node2 -->
<g id="Node000002" class="node">
<title>Node2</title>
<g id="a_Node000002"><a xlink:title=" ">
<polygon fill="white" stroke="transparent" points="69,-246 46,-246 46,-197 69,-197 69,-246"/>
<text text-anchor="start" x="51.5" y="-233.5" font-family="Helvetica,sans-Serif" font-size="10.00">str</text>
<text text-anchor="start" x="56" y="-218.5" font-family="Helvetica,sans-Serif" font-size="10.00"> </text>
<text text-anchor="start" x="56" y="-203.5" font-family="Helvetica,sans-Serif" font-size="10.00"> </text>
<polygon fill="#666666" stroke="#666666" points="46.5,-228.5 46.5,-228.5 69.5,-228.5 69.5,-228.5 46.5,-228.5"/>
<polygon fill="#666666" stroke="#666666" points="46.5,-213.5 46.5,-213.5 69.5,-213.5 69.5,-213.5 46.5,-213.5"/>
<polygon fill="none" stroke="#666666" points="46,-197 46,-246 69,-246 69,-197 46,-197"/>
</a>
</g>
</g>
<!-- Node2&#45;&gt;Node1 -->
<g id="edge1_Node000001_Node000002" class="edge">
<title>Node2&#45;&gt;Node1</title>
<g id="a_edge1_Node000001_Node000002"><a xlink:title=" ">
<path fill="none" stroke="#63b8ff" d="M63.85,-196.96C66.53,-187.04 69.83,-174.83 73.28,-162.02"/>
<polygon fill="none" stroke="#63b8ff" points="73.36,-161.72 71.07,-154.88 76.49,-150.13 78.79,-156.97 73.36,-161.72"/>
</a>
</g>
<text text-anchor="middle" x="84" y="-171" font-family="Helvetica,sans-Serif" font-size="10.00" fill="grey"> +url</text>
</g>
<!-- Node3 -->
<g id="Node000003" class="node">
<title>Node3</title>
<g id="a_Node000003"><a xlink:title=" ">
<polygon fill="white" stroke="transparent" points="184,-246 87,-246 87,-197 184,-197 184,-246"/>
<text text-anchor="start" x="92.5" y="-233.5" font-family="Helvetica,sans-Serif" font-size="10.00">HTMLParser|None</text>
<text text-anchor="start" x="134" y="-218.5" font-family="Helvetica,sans-Serif" font-size="10.00"> </text>
<text text-anchor="start" x="134" y="-203.5" font-family="Helvetica,sans-Serif" font-size="10.00"> </text>
<polygon fill="#666666" stroke="#666666" points="87.5,-228.5 87.5,-228.5 184.5,-228.5 184.5,-228.5 87.5,-228.5"/>
<polygon fill="#666666" stroke="#666666" points="87.5,-213.5 87.5,-213.5 184.5,-213.5 184.5,-213.5 87.5,-213.5"/>
<polygon fill="none" stroke="#666666" points="87,-197 87,-246 184,-246 184,-197 87,-197"/>
</a>
</g>
</g>
<!-- Node3&#45;&gt;Node1 -->
<g id="edge2_Node000001_Node000003" class="edge">
<title>Node3&#45;&gt;Node1</title>
<g id="a_edge2_Node000001_Node000003"><a xlink:title=" ">
<path fill="none" stroke="#63b8ff" d="M129.15,-196.96C126.47,-187.04 123.17,-174.83 119.72,-162.02"/>
<polygon fill="none" stroke="#63b8ff" points="119.64,-161.72 114.21,-156.97 116.51,-150.13 121.93,-154.88 119.64,-161.72"/>
</a>
</g>
<text text-anchor="middle" x="140.5" y="-171" font-family="Helvetica,sans-Serif" font-size="10.00" fill="grey"> +html</text>
</g>
</g>
</svg>
</svg>

<style type='text/css'>
<![CDATA[
[data-mouse-over-selected='false'] { opacity: 0.7; }
[data-mouse-over-selected='true']  { opacity: 1.0; }
]]>
</style>
<script type="application/ecmascript"><![CDATA[
document.addEventListener('DOMContentLoaded', (event) => {
  highlightEdges();
  highlightAdjacentNodes();
});
]]></script>
</svg>
