<?xml version="1.0" encoding="UTF-8" standalone="no"?>
<!DOCTYPE svg PUBLIC "-//W3C//DTD SVG 1.1//EN"
 "http://www.w3.org/Graphics/SVG/1.1/DTD/svg11.dtd">
<!-- Generated by graphviz version 2.43.0 (0)
 -->
<!-- Title: leaguewizard.mobalytics.parsers.SpellsParser Pages: 1 -->
<svg width="183pt" height="324pt"
 viewBox="0.00 0.00 183.00 324.00" xmlns="http://www.w3.org/2000/svg" xmlns:xlink="http://www.w3.org/1999/xlink">
<g id="graph0" class="graph" transform="scale(1 1) rotate(0) translate(4 320)">
<title>leaguewizard.mobalytics.parsers.SpellsParser</title>
<!-- Node1 -->
<g id="Node000001" class="node">
<title>Node1</title>
<g id="a_Node000001"><a xlink:title=" ">
<polygon fill="#999999" stroke="transparent" points="175,-90 0,-90 0,0 175,0 175,-90"/>
<text text-anchor="start" x="5.5" y="-78" font-family="Helvetica,sans-Serif" font-size="10.00">leaguewizard.mobalytics.parsers.</text>
<text text-anchor="start" x="58" y="-67" font-family="Helvetica,sans-Serif" font-size="10.00">SpellsParser</text>
<text text-anchor="start" x="86" y="-52" font-family="Helvetica,sans-Serif" font-size="10.00"> </text>
<text text-anchor="start" x="17.5" y="-37" font-family="Helvetica,sans-Serif" font-size="10.00">+</text>
<text text-anchor="start" x="43.5" y="-37" font-family="Helvetica,sans-Serif" font-size="10.00">parse()</text>
<text text-anchor="start" x="17.5" y="-22" font-family="Helvetica,sans-Serif" font-size="10.00">#</text>
<text text-anchor="start" x="43.5" y="-22" font-family="Helvetica,sans-Serif" font-size="10.00">_get_spells()</text>
<text text-anchor="start" x="17.5" y="-7" font-family="Helvetica,sans-Serif" font-size="10.00">#</text>
<text text-anchor="start" x="43.5" y="-7" font-family="Helvetica,sans-Serif" font-size="10.00">_set_flash_position()</text>
<polygon fill="#666666" stroke="#666666" points="0.5,-62 0.5,-62 175.5,-62 175.5,-62 0.5,-62"/>
<polygon fill="#666666" stroke="#666666" points="0.5,-47 0.5,-47 175.5,-47 175.5,-47 0.5,-47"/>
<polygon fill="none" stroke="#666666" points="0,0 0,-90 175,-90 175,0 0,0"/>
</a>
</g>
</g>
<!-- Node2 -->
<g id="Node000002" class="node">
<title>Node2</title>
<g id="a_Node000002"><a xlink:href="classleaguewizard_1_1mobalytics_1_1parsers_1_1BaseParser.html" target="_top" xlink:title=" ">
<polygon fill="white" stroke="transparent" points="175,-231 0,-231 0,-126 175,-126 175,-231"/>
<text text-anchor="start" x="5.5" y="-218.5" font-family="Helvetica,sans-Serif" font-size="10.00">leaguewizard.mobalytics.parsers.</text>
<text text-anchor="start" x="60.5" y="-207.5" font-family="Helvetica,sans-Serif" font-size="10.00">BaseParser</text>
<text text-anchor="start" x="31" y="-192.5" font-family="Helvetica,sans-Serif" font-size="10.00">+</text>
<text text-anchor="start" x="70.5" y="-192.5" font-family="Helvetica,sans-Serif" font-size="10.00">html</text>
<text text-anchor="start" x="31" y="-177.5" font-family="Helvetica,sans-Serif" font-size="10.00">#</text>
<text text-anchor="start" x="70.5" y="-177.5" font-family="Helvetica,sans-Serif" font-size="10.00">_payload</text>
<text text-anchor="start" x="31" y="-162.5" font-family="Helvetica,sans-Serif" font-size="10.00">+</text>
<text text-anchor="start" x="70.5" y="-162.5" font-family="Helvetica,sans-Serif" font-size="10.00">__init__()</text>
<text text-anchor="start" x="31" y="-147.5" font-family="Helvetica,sans-Serif" font-size="10.00">+</text>
<text text-anchor="start" x="70.5" y="-147.5" font-family="Helvetica,sans-Serif" font-size="10.00">parse()</text>
<text text-anchor="start" x="31" y="-132.5" font-family="Helvetica,sans-Serif" font-size="10.00">+</text>
<text text-anchor="start" x="70.5" y="-132.5" font-family="Helvetica,sans-Serif" font-size="10.00">payload()</text>
<polygon fill="#666666" stroke="#666666" points="0.5,-202.5 0.5,-202.5 175.5,-202.5 175.5,-202.5 0.5,-202.5"/>
<polygon fill="#666666" stroke="#666666" points="0.5,-172.5 0.5,-172.5 68.5,-172.5 68.5,-172.5 0.5,-172.5"/>
<polygon fill="#666666" stroke="#666666" points="68.5,-172.5 68.5,-172.5 175.5,-172.5 175.5,-172.5 68.5,-172.5"/>
<polygon fill="none" stroke="#666666" points="0,-126 0,-231 175,-231 175,-126 0,-126"/>
</a>
</g>
</g>
<!-- Node2&#45;&gt;Node1 -->
<g id="edge1_Node000001_Node000002" class="edge">
<title>Node2&#45;&gt;Node1</title>
<g id="a_edge1_Node000001_Node000002"><a xlink:title=" ">
<path fill="none" stroke="#63b8ff" d="M87.5,-115.83C87.5,-107.19 87.5,-98.44 87.5,-90.21"/>
<polygon fill="none" stroke="#63b8ff" points="84,-115.91 87.5,-125.91 91,-115.91 84,-115.91"/>
</a>
</g>
</g>
<!-- Node3 -->
<g id="Node000003" class="node">
<title>Node3</title>
<g id="a_Node000003"><a xlink:href="classABC.html" target="_top" xlink:title=" ">
<polygon fill="white" stroke="transparent" points="103,-316 72,-316 72,-267 103,-267 103,-316"/>
<text text-anchor="start" x="77.5" y="-303.5" font-family="Helvetica,sans-Serif" font-size="10.00">ABC</text>
<text text-anchor="start" x="86" y="-288.5" font-family="Helvetica,sans-Serif" font-size="10.00"> </text>
<text text-anchor="start" x="86" y="-273.5" font-family="Helvetica,sans-Serif" font-size="10.00"> </text>
<polygon fill="#666666" stroke="#666666" points="72.5,-298.5 72.5,-298.5 103.5,-298.5 103.5,-298.5 72.5,-298.5"/>
<polygon fill="#666666" stroke="#666666" points="72.5,-283.5 72.5,-283.5 103.5,-283.5 103.5,-283.5 72.5,-283.5"/>
<polygon fill="none" stroke="#666666" points="72,-267 72,-316 103,-316 103,-267 72,-267"/>
</a>
</g>
</g>
<!-- Node3&#45;&gt;Node2 -->
<g id="edge2_Node000002_Node000003" class="edge">
<title>Node3&#45;&gt;Node2</title>
<g id="a_edge2_Node000002_Node000003"><a xlink:title=" ">
<path fill="none" stroke="#63b8ff" d="M87.5,-256.85C87.5,-248.79 87.5,-240 87.5,-231.32"/>
<polygon fill="none" stroke="#63b8ff" points="84,-256.96 87.5,-266.96 91,-256.96 84,-256.96"/>
</a>
</g>
</g>
</g>
</svg>
