<?xml version="1.0" encoding="UTF-8" standalone="no"?>
<!DOCTYPE svg PUBLIC "-//W3C//DTD SVG 1.1//EN"
 "http://www.w3.org/Graphics/SVG/1.1/DTD/svg11.dtd">
<!-- Generated by graphviz version 2.43.0 (0)
 -->
<!-- Title: BaseModel Pages: 1 -->
<svg width="1130pt" height="403pt"
 viewBox="0.00 0.00 1130.00 403.00" xmlns="http://www.w3.org/2000/svg" xmlns:xlink="http://www.w3.org/1999/xlink">
<g id="graph0" class="graph" transform="scale(1 1) rotate(0) translate(4 399)">
<title>BaseModel</title>
<!-- Node1 -->
<g id="Node000001" class="node">
<title>Node1</title>
<g id="a_Node000001"><a xlink:title=" ">
<polygon fill="#999999" stroke="transparent" points="346.5,-395 281.5,-395 281.5,-346 346.5,-346 346.5,-395"/>
<text text-anchor="start" x="287" y="-382.5" font-family="Helvetica,sans-Serif" font-size="10.00">BaseModel</text>
<text text-anchor="start" x="312.5" y="-367.5" font-family="Helvetica,sans-Serif" font-size="10.00"> </text>
<text text-anchor="start" x="312.5" y="-352.5" font-family="Helvetica,sans-Serif" font-size="10.00"> </text>
<polygon fill="#666666" stroke="#666666" points="282,-377.5 282,-377.5 347,-377.5 347,-377.5 282,-377.5"/>
<polygon fill="#666666" stroke="#666666" points="282,-362.5 282,-362.5 347,-362.5 347,-362.5 282,-362.5"/>
<polygon fill="none" stroke="#666666" points="281.5,-346 281.5,-395 346.5,-395 346.5,-346 281.5,-346"/>
</a>
</g>
</g>
<!-- Node2 -->
<g id="Node000002" class="node">
<title>Node2</title>
<g id="a_Node000002"><a xlink:href="classleaguewizard_1_1api_1_1models_1_1SummonerData.html" target="_top" xlink:title=" ">
<polygon fill="white" stroke="transparent" points="140,-310 4,-310 4,-160 140,-160 140,-310"/>
<text text-anchor="start" x="9" y="-298" font-family="Helvetica,sans-Serif" font-size="10.00">leaguewizard.api.models.</text>
<text text-anchor="start" x="33.5" y="-287" font-family="Helvetica,sans-Serif" font-size="10.00">SummonerData</text>
<text text-anchor="start" x="9.5" y="-272" font-family="Helvetica,sans-Serif" font-size="10.00">+</text>
<text text-anchor="start" x="24" y="-272" font-family="Helvetica,sans-Serif" font-size="10.00">assigned_position</text>
<text text-anchor="start" x="9.5" y="-257" font-family="Helvetica,sans-Serif" font-size="10.00">+</text>
<text text-anchor="start" x="24" y="-257" font-family="Helvetica,sans-Serif" font-size="10.00">cell_id</text>
<text text-anchor="start" x="9.5" y="-242" font-family="Helvetica,sans-Serif" font-size="10.00">+</text>
<text text-anchor="start" x="24" y="-242" font-family="Helvetica,sans-Serif" font-size="10.00">champion_id</text>
<text text-anchor="start" x="9.5" y="-227" font-family="Helvetica,sans-Serif" font-size="10.00">+</text>
<text text-anchor="start" x="24" y="-227" font-family="Helvetica,sans-Serif" font-size="10.00">champion_pick_intent</text>
<text text-anchor="start" x="9.5" y="-212" font-family="Helvetica,sans-Serif" font-size="10.00">+</text>
<text text-anchor="start" x="24" y="-212" font-family="Helvetica,sans-Serif" font-size="10.00">selected_skin_id</text>
<text text-anchor="start" x="9.5" y="-197" font-family="Helvetica,sans-Serif" font-size="10.00">+</text>
<text text-anchor="start" x="24" y="-197" font-family="Helvetica,sans-Serif" font-size="10.00">ward_skin_id</text>
<text text-anchor="start" x="9.5" y="-182" font-family="Helvetica,sans-Serif" font-size="10.00">+</text>
<text text-anchor="start" x="24" y="-182" font-family="Helvetica,sans-Serif" font-size="10.00">summoner_id</text>
<text text-anchor="start" x="70" y="-167" font-family="Helvetica,sans-Serif" font-size="10.00"> </text>
<polygon fill="#666666" stroke="#666666" points="4,-282 4,-282 140,-282 140,-282 4,-282"/>
<polygon fill="#666666" stroke="#666666" points="4,-177 4,-177 22,-177 22,-177 4,-177"/>
<polygon fill="#666666" stroke="#666666" points="22,-177 22,-177 140,-177 140,-177 22,-177"/>
<polygon fill="none" stroke="#666666" points="4,-160 4,-310 140,-310 140,-160 4,-160"/>
</a>
</g>
</g>
<!-- Node1&#45;&gt;Node2 -->
<g id="edge1_Node000001_Node000002" class="edge">
<title>Node1&#45;&gt;Node2</title>
<g id="a_edge1_Node000001_Node000002"><a xlink:title=" ">
<path fill="none" stroke="#63b8ff" d="M271.37,-359.43C236.69,-350.03 187.38,-333.84 149,-310 146.01,-308.14 143.04,-306.15 140.1,-304.06"/>
<polygon fill="none" stroke="#63b8ff" points="270.63,-362.85 281.19,-362.02 272.41,-356.08 270.63,-362.85"/>
</a>
</g>
</g>
<!-- Node3 -->
<g id="Node000003" class="node">
<title>Node3</title>
<g id="a_Node000003"><a xlink:href="classleaguewizard_1_1core_1_1models_1_1Block.html" target="_top" xlink:title=" ">
<polygon fill="white" stroke="transparent" points="300,-265 158,-265 158,-205 300,-205 300,-265"/>
<text text-anchor="start" x="163" y="-253" font-family="Helvetica,sans-Serif" font-size="10.00">leaguewizard.core.models.</text>
<text text-anchor="start" x="215" y="-242" font-family="Helvetica,sans-Serif" font-size="10.00">Block</text>
<text text-anchor="start" x="185" y="-227" font-family="Helvetica,sans-Serif" font-size="10.00">+</text>
<text text-anchor="start" x="221" y="-227" font-family="Helvetica,sans-Serif" font-size="10.00">items</text>
<text text-anchor="start" x="227" y="-212" font-family="Helvetica,sans-Serif" font-size="10.00"> </text>
<polygon fill="#666666" stroke="#666666" points="158,-237 158,-237 300,-237 300,-237 158,-237"/>
<polygon fill="#666666" stroke="#666666" points="158,-222 158,-222 219,-222 219,-222 158,-222"/>
<polygon fill="#666666" stroke="#666666" points="219,-222 219,-222 300,-222 300,-222 219,-222"/>
<polygon fill="none" stroke="#666666" points="158,-205 158,-265 300,-265 300,-205 158,-205"/>
</a>
</g>
</g>
<!-- Node1&#45;&gt;Node3 -->
<g id="edge2_Node000001_Node000003" class="edge">
<title>Node1&#45;&gt;Node3</title>
<g id="a_edge2_Node000001_Node000003"><a xlink:title=" ">
<path fill="none" stroke="#63b8ff" d="M293.51,-337.32C279.57,-315.42 261.26,-286.67 247.71,-265.39"/>
<polygon fill="none" stroke="#63b8ff" points="290.68,-339.38 299,-345.94 296.58,-335.63 290.68,-339.38"/>
</a>
</g>
</g>
<!-- Node4 -->
<g id="Node000004" class="node">
<title>Node4</title>
<g id="a_Node000004"><a xlink:href="classleaguewizard_1_1core_1_1models_1_1Item.html" target="_top" xlink:title=" ">
<polygon fill="white" stroke="transparent" points="482,-259.5 318,-259.5 318,-210.5 482,-210.5 482,-259.5"/>
<text text-anchor="start" x="323" y="-247" font-family="Helvetica,sans-Serif" font-size="10.00">leaguewizard.core.models.Item</text>
<text text-anchor="start" x="398" y="-232" font-family="Helvetica,sans-Serif" font-size="10.00"> </text>
<text text-anchor="start" x="398" y="-217" font-family="Helvetica,sans-Serif" font-size="10.00"> </text>
<polygon fill="#666666" stroke="#666666" points="318,-242 318,-242 482,-242 482,-242 318,-242"/>
<polygon fill="#666666" stroke="#666666" points="318,-227 318,-227 482,-227 482,-227 318,-227"/>
<polygon fill="none" stroke="#666666" points="318,-210.5 318,-259.5 482,-259.5 482,-210.5 318,-210.5"/>
</a>
</g>
</g>
<!-- Node1&#45;&gt;Node4 -->
<g id="edge3_Node000001_Node000004" class="edge">
<title>Node1&#45;&gt;Node4</title>
<g id="a_edge3_Node000001_Node000004"><a xlink:title=" ">
<path fill="none" stroke="#63b8ff" d="M334.79,-337.22C350.18,-313.34 370.79,-281.35 384.69,-259.77"/>
<polygon fill="none" stroke="#63b8ff" points="331.65,-335.64 329.18,-345.94 337.54,-339.43 331.65,-335.64"/>
</a>
</g>
</g>
<!-- Node5 -->
<g id="Node000005" class="node">
<title>Node5</title>
<g id="a_Node000005"><a xlink:href="classleaguewizard_1_1core_1_1models_1_1Payload.html" target="_top" xlink:title=" ">
<polygon fill="white" stroke="transparent" points="642,-265 500,-265 500,-205 642,-205 642,-265"/>
<text text-anchor="start" x="505" y="-253" font-family="Helvetica,sans-Serif" font-size="10.00">leaguewizard.core.models.</text>
<text text-anchor="start" x="551.5" y="-242" font-family="Helvetica,sans-Serif" font-size="10.00">Payload</text>
<text text-anchor="start" x="569" y="-227" font-family="Helvetica,sans-Serif" font-size="10.00"> </text>
<text text-anchor="start" x="524" y="-212" font-family="Helvetica,sans-Serif" font-size="10.00">+</text>
<text text-anchor="start" x="557" y="-212" font-family="Helvetica,sans-Serif" font-size="10.00">asjson()</text>
<polygon fill="#666666" stroke="#666666" points="500,-237 500,-237 642,-237 642,-237 500,-237"/>
<polygon fill="#666666" stroke="#666666" points="500,-222 500,-222 642,-222 642,-222 500,-222"/>
<polygon fill="none" stroke="#666666" points="500,-205 500,-265 642,-265 642,-205 500,-205"/>
</a>
</g>
</g>
<!-- Node1&#45;&gt;Node5 -->
<g id="edge4_Node000001_Node000005" class="edge">
<title>Node1&#45;&gt;Node5</title>
<g id="a_edge4_Node000001_Node000005"><a xlink:title=" ">
<path fill="none" stroke="#63b8ff" d="M356.78,-360.5C394.03,-351.44 448.56,-335.17 491,-310 511.18,-298.03 530.58,-280.3 545.22,-265.19"/>
<polygon fill="none" stroke="#63b8ff" points="355.68,-357.16 346.75,-362.86 357.29,-363.98 355.68,-357.16"/>
</a>
</g>
</g>
<!-- Node6 -->
<g id="Node000006" class="node">
<title>Node6</title>
<g id="a_Node000006"><a xlink:href="classleaguewizard_1_1core_1_1models_1_1Action.html" target="_top" xlink:title=" ">
<polygon fill="white" stroke="transparent" points="142,-99.5 0,-99.5 0,-24.5 142,-24.5 142,-99.5"/>
<text text-anchor="start" x="5" y="-87" font-family="Helvetica,sans-Serif" font-size="10.00">leaguewizard.core.models.</text>
<text text-anchor="start" x="55.5" y="-76" font-family="Helvetica,sans-Serif" font-size="10.00">Action</text>
<text text-anchor="start" x="18.5" y="-61" font-family="Helvetica,sans-Serif" font-size="10.00">+</text>
<text text-anchor="start" x="46" y="-61" font-family="Helvetica,sans-Serif" font-size="10.00">actor_cell_id</text>
<text text-anchor="start" x="18.5" y="-46" font-family="Helvetica,sans-Serif" font-size="10.00">+</text>
<text text-anchor="start" x="46" y="-46" font-family="Helvetica,sans-Serif" font-size="10.00">champion_id</text>
<text text-anchor="start" x="69" y="-31" font-family="Helvetica,sans-Serif" font-size="10.00"> </text>
<polygon fill="#666666" stroke="#666666" points="0,-71 0,-71 142,-71 142,-71 0,-71"/>
<polygon fill="#666666" stroke="#666666" points="0,-41 0,-41 44,-41 44,-41 0,-41"/>
<polygon fill="#666666" stroke="#666666" points="44,-41 44,-41 142,-41 142,-41 44,-41"/>
<polygon fill="none" stroke="#666666" points="0,-24.5 0,-99.5 142,-99.5 142,-24.5 0,-24.5"/>
</a>
</g>
</g>
<!-- Node5&#45;&gt;Node6 -->
<g id="edge5_Node000005_Node000006" class="edge">
<title>Node5&#45;&gt;Node6</title>
<g id="a_edge5_Node000005_Node000006"><a xlink:title=" ">
<path fill="none" stroke="#63b8ff" d="M540.68,-197.19C527.02,-183.16 509.75,-168.51 491,-160 352.62,-97.21 292.2,-180.15 151,-124 136.56,-118.26 122.49,-109.13 110.27,-99.68"/>
<polygon fill="none" stroke="#63b8ff" points="538.49,-199.97 547.88,-204.88 543.6,-195.19 538.49,-199.97"/>
</a>
</g>
</g>
<!-- Node7 -->
<g id="Node000007" class="node">
<title>Node7</title>
<g id="a_Node000007"><a xlink:href="classleaguewizard_1_1core_1_1models_1_1Ally.html" target="_top" xlink:title=" ">
<polygon fill="white" stroke="transparent" points="321.5,-124 160.5,-124 160.5,0 321.5,0 321.5,-124"/>
<text text-anchor="start" x="166" y="-112" font-family="Helvetica,sans-Serif" font-size="10.00">leaguewizard.core.models.Ally</text>
<text text-anchor="start" x="178" y="-97" font-family="Helvetica,sans-Serif" font-size="10.00">+</text>
<text text-anchor="start" x="204" y="-97" font-family="Helvetica,sans-Serif" font-size="10.00">assigned_position</text>
<text text-anchor="start" x="178" y="-82" font-family="Helvetica,sans-Serif" font-size="10.00">+</text>
<text text-anchor="start" x="204" y="-82" font-family="Helvetica,sans-Serif" font-size="10.00">cell_id</text>
<text text-anchor="start" x="178" y="-67" font-family="Helvetica,sans-Serif" font-size="10.00">+</text>
<text text-anchor="start" x="204" y="-67" font-family="Helvetica,sans-Serif" font-size="10.00">champion_id</text>
<text text-anchor="start" x="178" y="-52" font-family="Helvetica,sans-Serif" font-size="10.00">+</text>
<text text-anchor="start" x="204" y="-52" font-family="Helvetica,sans-Serif" font-size="10.00">selected_skin_id</text>
<text text-anchor="start" x="178" y="-37" font-family="Helvetica,sans-Serif" font-size="10.00">+</text>
<text text-anchor="start" x="204" y="-37" font-family="Helvetica,sans-Serif" font-size="10.00">summoner_id</text>
<text text-anchor="start" x="178" y="-22" font-family="Helvetica,sans-Serif" font-size="10.00">+</text>
<text text-anchor="start" x="204" y="-22" font-family="Helvetica,sans-Serif" font-size="10.00">ward_skin_id</text>
<text text-anchor="start" x="239.5" y="-7" font-family="Helvetica,sans-Serif" font-size="10.00"> </text>
<polygon fill="#666666" stroke="#666666" points="161,-107 161,-107 322,-107 322,-107 161,-107"/>
<polygon fill="#666666" stroke="#666666" points="161,-17 161,-17 202,-17 202,-17 161,-17"/>
<polygon fill="#666666" stroke="#666666" points="202,-17 202,-17 322,-17 322,-17 202,-17"/>
<polygon fill="none" stroke="#666666" points="160.5,0 160.5,-124 321.5,-124 321.5,0 160.5,0"/>
</a>
</g>
</g>
<!-- Node5&#45;&gt;Node7 -->
<g id="edge6_Node000005_Node000007" class="edge">
<title>Node5&#45;&gt;Node7</title>
<g id="a_edge6_Node000005_Node000007"><a xlink:title=" ">
<path fill="none" stroke="#63b8ff" d="M539.19,-197.28C525.62,-183.7 508.8,-169.36 491,-160 426.48,-126.09 397.89,-152.95 331,-124 327.88,-122.65 324.76,-121.19 321.64,-119.64"/>
<polygon fill="none" stroke="#63b8ff" points="536.92,-199.96 546.39,-204.71 541.94,-195.09 536.92,-199.96"/>
</a>
</g>
</g>
<!-- Node8 -->
<g id="Node000008" class="node">
<title>Node8</title>
<g id="a_Node000008"><a xlink:href="classleaguewizard_1_1core_1_1models_1_1EventSchema.html" target="_top" xlink:title=" ">
<polygon fill="white" stroke="transparent" points="482,-107 340,-107 340,-17 482,-17 482,-107"/>
<text text-anchor="start" x="345" y="-95" font-family="Helvetica,sans-Serif" font-size="10.00">leaguewizard.core.models.</text>
<text text-anchor="start" x="377.5" y="-84" font-family="Helvetica,sans-Serif" font-size="10.00">EventSchema</text>
<text text-anchor="start" x="350" y="-69" font-family="Helvetica,sans-Serif" font-size="10.00">+</text>
<text text-anchor="start" x="369" y="-69" font-family="Helvetica,sans-Serif" font-size="10.00">actions</text>
<text text-anchor="start" x="350" y="-54" font-family="Helvetica,sans-Serif" font-size="10.00">+</text>
<text text-anchor="start" x="369" y="-54" font-family="Helvetica,sans-Serif" font-size="10.00">local_player_cell_id</text>
<text text-anchor="start" x="350" y="-39" font-family="Helvetica,sans-Serif" font-size="10.00">+</text>
<text text-anchor="start" x="369" y="-39" font-family="Helvetica,sans-Serif" font-size="10.00">my_team</text>
<text text-anchor="start" x="409" y="-24" font-family="Helvetica,sans-Serif" font-size="10.00"> </text>
<polygon fill="#666666" stroke="#666666" points="340,-79 340,-79 482,-79 482,-79 340,-79"/>
<polygon fill="#666666" stroke="#666666" points="340,-34 340,-34 367,-34 367,-34 340,-34"/>
<polygon fill="#666666" stroke="#666666" points="367,-34 367,-34 482,-34 482,-34 367,-34"/>
<polygon fill="none" stroke="#666666" points="340,-17 340,-107 482,-107 482,-17 340,-17"/>
</a>
</g>
</g>
<!-- Node5&#45;&gt;Node8 -->
<g id="edge7_Node000005_Node000008" class="edge">
<title>Node5&#45;&gt;Node8</title>
<g id="a_edge7_Node000005_Node000008"><a xlink:title=" ">
<path fill="none" stroke="#63b8ff" d="M536.82,-197.47C512.12,-171.08 478.65,-135.3 452.43,-107.28"/>
<polygon fill="none" stroke="#63b8ff" points="534.47,-200.08 543.86,-204.99 539.58,-195.3 534.47,-200.08"/>
</a>
</g>
</g>
<!-- Node9 -->
<g id="Node000009" class="node">
<title>Node9</title>
<g id="a_Node000009"><a xlink:href="classleaguewizard_1_1core_1_1models_1_1ItemSet.html" target="_top" xlink:title=" ">
<polygon fill="white" stroke="transparent" points="642,-99.5 500,-99.5 500,-24.5 642,-24.5 642,-99.5"/>
<text text-anchor="start" x="505" y="-87" font-family="Helvetica,sans-Serif" font-size="10.00">leaguewizard.core.models.</text>
<text text-anchor="start" x="551.5" y="-76" font-family="Helvetica,sans-Serif" font-size="10.00">ItemSet</text>
<text text-anchor="start" x="506" y="-61" font-family="Helvetica,sans-Serif" font-size="10.00">+</text>
<text text-anchor="start" x="521" y="-61" font-family="Helvetica,sans-Serif" font-size="10.00">associated_champions</text>
<text text-anchor="start" x="506" y="-46" font-family="Helvetica,sans-Serif" font-size="10.00">+</text>
<text text-anchor="start" x="521" y="-46" font-family="Helvetica,sans-Serif" font-size="10.00">blocks</text>
<text text-anchor="start" x="569" y="-31" font-family="Helvetica,sans-Serif" font-size="10.00"> </text>
<polygon fill="#666666" stroke="#666666" points="500,-71 500,-71 642,-71 642,-71 500,-71"/>
<polygon fill="#666666" stroke="#666666" points="500,-41 500,-41 519,-41 519,-41 500,-41"/>
<polygon fill="#666666" stroke="#666666" points="519,-41 519,-41 642,-41 642,-41 519,-41"/>
<polygon fill="none" stroke="#666666" points="500,-24.5 500,-99.5 642,-99.5 642,-24.5 500,-24.5"/>
</a>
</g>
</g>
<!-- Node5&#45;&gt;Node9 -->
<g id="edge8_Node000005_Node000009" class="edge">
<title>Node5&#45;&gt;Node9</title>
<g id="a_edge8_Node000005_Node000009"><a xlink:title=" ">
<path fill="none" stroke="#63b8ff" d="M571,-194.93C571,-166.28 571,-127.66 571,-99.61"/>
<polygon fill="none" stroke="#63b8ff" points="567.5,-194.99 571,-204.99 574.5,-194.99 567.5,-194.99"/>
</a>
</g>
</g>
<!-- Node10 -->
<g id="Node000010" class="node">
<title>Node10</title>
<g id="a_Node000010"><a xlink:href="classleaguewizard_1_1core_1_1models_1_1PayloadItemSets.html" target="_top" xlink:title=" ">
<polygon fill="white" stroke="transparent" points="802,-107 660,-107 660,-17 802,-17 802,-107"/>
<text text-anchor="start" x="665" y="-95" font-family="Helvetica,sans-Serif" font-size="10.00">leaguewizard.core.models.</text>
<text text-anchor="start" x="690" y="-84" font-family="Helvetica,sans-Serif" font-size="10.00">PayloadItemSets</text>
<text text-anchor="start" x="680.5" y="-69" font-family="Helvetica,sans-Serif" font-size="10.00">+</text>
<text text-anchor="start" x="710" y="-69" font-family="Helvetica,sans-Serif" font-size="10.00">account_id</text>
<text text-anchor="start" x="680.5" y="-54" font-family="Helvetica,sans-Serif" font-size="10.00">+</text>
<text text-anchor="start" x="710" y="-54" font-family="Helvetica,sans-Serif" font-size="10.00">item_sets</text>
<text text-anchor="start" x="680.5" y="-39" font-family="Helvetica,sans-Serif" font-size="10.00">+</text>
<text text-anchor="start" x="710" y="-39" font-family="Helvetica,sans-Serif" font-size="10.00">timestamp</text>
<text text-anchor="start" x="729" y="-24" font-family="Helvetica,sans-Serif" font-size="10.00"> </text>
<polygon fill="#666666" stroke="#666666" points="660,-79 660,-79 802,-79 802,-79 660,-79"/>
<polygon fill="#666666" stroke="#666666" points="660,-34 660,-34 708,-34 708,-34 660,-34"/>
<polygon fill="#666666" stroke="#666666" points="708,-34 708,-34 802,-34 802,-34 708,-34"/>
<polygon fill="none" stroke="#666666" points="660,-17 660,-107 802,-107 802,-17 660,-17"/>
</a>
</g>
</g>
<!-- Node5&#45;&gt;Node10 -->
<g id="edge9_Node000005_Node000010" class="edge">
<title>Node5&#45;&gt;Node10</title>
<g id="a_edge9_Node000005_Node000010"><a xlink:title=" ">
<path fill="none" stroke="#63b8ff" d="M605.18,-197.47C629.88,-171.08 663.35,-135.3 689.57,-107.28"/>
<polygon fill="none" stroke="#63b8ff" points="602.42,-195.3 598.14,-204.99 607.53,-200.08 602.42,-195.3"/>
</a>
</g>
</g>
<!-- Node11 -->
<g id="Node000011" class="node">
<title>Node11</title>
<g id="a_Node000011"><a xlink:href="classleaguewizard_1_1core_1_1models_1_1PayloadPerks.html" target="_top" xlink:title=" ">
<polygon fill="white" stroke="transparent" points="962,-107 820,-107 820,-17 962,-17 962,-107"/>
<text text-anchor="start" x="825" y="-95" font-family="Helvetica,sans-Serif" font-size="10.00">leaguewizard.core.models.</text>
<text text-anchor="start" x="858" y="-84" font-family="Helvetica,sans-Serif" font-size="10.00">PayloadPerks</text>
<text text-anchor="start" x="832" y="-69" font-family="Helvetica,sans-Serif" font-size="10.00">+</text>
<text text-anchor="start" x="853" y="-69" font-family="Helvetica,sans-Serif" font-size="10.00">primary_style_id</text>
<text text-anchor="start" x="832" y="-54" font-family="Helvetica,sans-Serif" font-size="10.00">+</text>
<text text-anchor="start" x="853" y="-54" font-family="Helvetica,sans-Serif" font-size="10.00">sub_style_id</text>
<text text-anchor="start" x="832" y="-39" font-family="Helvetica,sans-Serif" font-size="10.00">+</text>
<text text-anchor="start" x="853" y="-39" font-family="Helvetica,sans-Serif" font-size="10.00">selected_perk_ids</text>
<text text-anchor="start" x="889" y="-24" font-family="Helvetica,sans-Serif" font-size="10.00"> </text>
<polygon fill="#666666" stroke="#666666" points="820,-79 820,-79 962,-79 962,-79 820,-79"/>
<polygon fill="#666666" stroke="#666666" points="820,-34 820,-34 851,-34 851,-34 820,-34"/>
<polygon fill="#666666" stroke="#666666" points="851,-34 851,-34 962,-34 962,-34 851,-34"/>
<polygon fill="none" stroke="#666666" points="820,-17 820,-107 962,-107 962,-17 820,-17"/>
</a>
</g>
</g>
<!-- Node5&#45;&gt;Node11 -->
<g id="edge10_Node000005_Node000011" class="edge">
<title>Node5&#45;&gt;Node11</title>
<g id="a_edge10_Node000005_Node000011"><a xlink:title=" ">
<path fill="none" stroke="#63b8ff" d="M651.49,-202.39C699.19,-182.39 760.07,-154.57 811,-124 819.39,-118.97 827.93,-113.22 836.16,-107.3"/>
<polygon fill="none" stroke="#63b8ff" points="650.02,-199.22 642.13,-206.29 652.71,-205.68 650.02,-199.22"/>
</a>
</g>
</g>
<!-- Node12 -->
<g id="Node000012" class="node">
<title>Node12</title>
<g id="a_Node000012"><a xlink:href="classleaguewizard_1_1core_1_1models_1_1PayloadSpells.html" target="_top" xlink:title=" ">
<polygon fill="white" stroke="transparent" points="1122,-107 980,-107 980,-17 1122,-17 1122,-107"/>
<text text-anchor="start" x="985" y="-95" font-family="Helvetica,sans-Serif" font-size="10.00">leaguewizard.core.models.</text>
<text text-anchor="start" x="1017" y="-84" font-family="Helvetica,sans-Serif" font-size="10.00">PayloadSpells</text>
<text text-anchor="start" x="993.5" y="-69" font-family="Helvetica,sans-Serif" font-size="10.00">+</text>
<text text-anchor="start" x="1016" y="-69" font-family="Helvetica,sans-Serif" font-size="10.00">spell1_id</text>
<text text-anchor="start" x="993.5" y="-54" font-family="Helvetica,sans-Serif" font-size="10.00">+</text>
<text text-anchor="start" x="1016" y="-54" font-family="Helvetica,sans-Serif" font-size="10.00">spell2_id</text>
<text text-anchor="start" x="993.5" y="-39" font-family="Helvetica,sans-Serif" font-size="10.00">+</text>
<text text-anchor="start" x="1016" y="-39" font-family="Helvetica,sans-Serif" font-size="10.00">selected_skin_id</text>
<text text-anchor="start" x="1049" y="-24" font-family="Helvetica,sans-Serif" font-size="10.00"> </text>
<polygon fill="#666666" stroke="#666666" points="980,-79 980,-79 1122,-79 1122,-79 980,-79"/>
<polygon fill="#666666" stroke="#666666" points="980,-34 980,-34 1014,-34 1014,-34 980,-34"/>
<polygon fill="#666666" stroke="#666666" points="1014,-34 1014,-34 1122,-34 1122,-34 1014,-34"/>
<polygon fill="none" stroke="#666666" points="980,-17 980,-107 1122,-107 1122,-17 980,-17"/>
</a>
</g>
</g>
<!-- Node5&#45;&gt;Node12 -->
<g id="edge11_Node000005_Node000012" class="edge">
<title>Node5&#45;&gt;Node12</title>
<g id="a_edge11_Node000005_Node000012"><a xlink:title=" ">
<path fill="none" stroke="#63b8ff" d="M652.14,-221.12C735.35,-205.78 866.97,-175.53 971,-124 980.55,-119.27 990.09,-113.33 999.08,-107.03"/>
<polygon fill="none" stroke="#63b8ff" points="651.45,-217.69 642.23,-222.92 652.7,-224.57 651.45,-217.69"/>
</a>
</g>
</g>
</g>
</svg>
