<?xml version="1.0" encoding="UTF-8" standalone="no"?>
<!DOCTYPE svg PUBLIC "-//W3C//DTD SVG 1.1//EN"
 "http://www.w3.org/Graphics/SVG/1.1/DTD/svg11.dtd">
<!-- Generated by graphviz version 2.43.0 (0)
 -->
<!-- Title: leaguewizard.mobalytics.parsers.BaseParser Pages: 1 -->
<svg width="183pt" height="194pt"
 viewBox="0.00 0.00 183.00 194.00" xmlns="http://www.w3.org/2000/svg" xmlns:xlink="http://www.w3.org/1999/xlink">
<g id="graph0" class="graph" transform="scale(1 1) rotate(0) translate(4 190)">
<title>leaguewizard.mobalytics.parsers.BaseParser</title>
<!-- Node1 -->
<g id="Node000001" class="node">
<title>Node1</title>
<g id="a_Node000001"><a xlink:title=" ">
<polygon fill="#999999" stroke="transparent" points="175,-90 0,-90 0,0 175,0 175,-90"/>
<text text-anchor="start" x="5.5" y="-78" font-family="Helvetica,sans-Serif" font-size="10.00">leaguewizard.mobalytics.parsers.</text>
<text text-anchor="start" x="60.5" y="-67" font-family="Helvetica,sans-Serif" font-size="10.00">BaseParser</text>
<text text-anchor="start" x="31" y="-52" font-family="Helvetica,sans-Serif" font-size="10.00">+</text>
<text text-anchor="start" x="70.5" y="-52" font-family="Helvetica,sans-Serif" font-size="10.00">html</text>
<text text-anchor="start" x="31" y="-37" font-family="Helvetica,sans-Serif" font-size="10.00">+</text>
<text text-anchor="start" x="70.5" y="-37" font-family="Helvetica,sans-Serif" font-size="10.00">__init__()</text>
<text text-anchor="start" x="31" y="-22" font-family="Helvetica,sans-Serif" font-size="10.00">+</text>
<text text-anchor="start" x="70.5" y="-22" font-family="Helvetica,sans-Serif" font-size="10.00">parse()</text>
<text text-anchor="start" x="31" y="-7" font-family="Helvetica,sans-Serif" font-size="10.00">+</text>
<text text-anchor="start" x="70.5" y="-7" font-family="Helvetica,sans-Serif" font-size="10.00">payload()</text>
<polygon fill="#666666" stroke="#666666" points="0.5,-62 0.5,-62 175.5,-62 175.5,-62 0.5,-62"/>
<polygon fill="#666666" stroke="#666666" points="0.5,-47 0.5,-47 68.5,-47 68.5,-47 0.5,-47"/>
<polygon fill="#666666" stroke="#666666" points="68.5,-47 68.5,-47 175.5,-47 175.5,-47 68.5,-47"/>
<polygon fill="none" stroke="#666666" points="0,0 0,-90 175,-90 175,0 0,0"/>
</a>
</g>
</g>
<!-- Node2 -->
<g id="Node000002" class="node">
<title>Node2</title>
<g id="a_Node000002"><a xlink:href="classABC.html" target="_top" xlink:title=" ">
<polygon fill="white" stroke="transparent" points="79,-186 48,-186 48,-137 79,-137 79,-186"/>
<text text-anchor="start" x="53.5" y="-173.5" font-family="Helvetica,sans-Serif" font-size="10.00">ABC</text>
<text text-anchor="start" x="62" y="-158.5" font-family="Helvetica,sans-Serif" font-size="10.00"> </text>
<text text-anchor="start" x="62" y="-143.5" font-family="Helvetica,sans-Serif" font-size="10.00"> </text>
<polygon fill="#666666" stroke="#666666" points="48.5,-168.5 48.5,-168.5 79.5,-168.5 79.5,-168.5 48.5,-168.5"/>
<polygon fill="#666666" stroke="#666666" points="48.5,-153.5 48.5,-153.5 79.5,-153.5 79.5,-153.5 48.5,-153.5"/>
<polygon fill="none" stroke="#666666" points="48,-137 48,-186 79,-186 79,-137 48,-137"/>
</a>
</g>
</g>
<!-- Node2&#45;&gt;Node1 -->
<g id="edge1_Node000001_Node000002" class="edge">
<title>Node2&#45;&gt;Node1</title>
<g id="a_edge1_Node000001_Node000002"><a xlink:title=" ">
<path fill="none" stroke="#63b8ff" d="M70.58,-126.72C72.99,-115.24 75.71,-102.23 78.27,-90.06"/>
<polygon fill="none" stroke="#63b8ff" points="67.1,-126.27 68.47,-136.78 73.95,-127.71 67.1,-126.27"/>
</a>
</g>
</g>
<!-- Node3 -->
<g id="Node000003" class="node">
<title>Node3</title>
<g id="a_Node000003"><a xlink:title=" ">
<polygon fill="white" stroke="transparent" points="126,-186 97,-186 97,-137 126,-137 126,-186"/>
<text text-anchor="start" x="102.5" y="-173.5" font-family="Helvetica,sans-Serif" font-size="10.00">Any</text>
<text text-anchor="start" x="110" y="-158.5" font-family="Helvetica,sans-Serif" font-size="10.00"> </text>
<text text-anchor="start" x="110" y="-143.5" font-family="Helvetica,sans-Serif" font-size="10.00"> </text>
<polygon fill="#666666" stroke="#666666" points="97.5,-168.5 97.5,-168.5 126.5,-168.5 126.5,-168.5 97.5,-168.5"/>
<polygon fill="#666666" stroke="#666666" points="97.5,-153.5 97.5,-153.5 126.5,-153.5 126.5,-153.5 97.5,-153.5"/>
<polygon fill="none" stroke="#666666" points="97,-137 97,-186 126,-186 126,-137 97,-137"/>
</a>
</g>
</g>
<!-- Node3&#45;&gt;Node1 -->
<g id="edge2_Node000001_Node000003" class="edge">
<title>Node3&#45;&gt;Node1</title>
<g id="a_edge2_Node000001_Node000003"><a xlink:title=" ">
<path fill="none" stroke="#63b8ff" d="M106.53,-136.78C104.41,-126.66 101.83,-114.38 99.27,-102.16"/>
<polygon fill="none" stroke="#63b8ff" points="99.2,-101.8 94.05,-96.75 96.73,-90.06 101.88,-95.11 99.2,-101.8"/>
</a>
</g>
<text text-anchor="middle" x="129.5" y="-111" font-family="Helvetica,sans-Serif" font-size="10.00" fill="grey"> #_payload</text>
</g>
</g>
</svg>
