<?xml version="1.0" encoding="UTF-8" standalone="no"?>
<!DOCTYPE svg PUBLIC "-//W3C//DTD SVG 1.1//EN"
 "http://www.w3.org/Graphics/SVG/1.1/DTD/svg11.dtd">
<!-- Generated by graphviz version 2.43.0 (0)
 -->
<!-- Title: leaguewizard.core.models.Payload Pages: 1 -->
<svg width="1130pt" height="313pt"
 viewBox="0.00 0.00 1130.00 313.00" xmlns="http://www.w3.org/2000/svg" xmlns:xlink="http://www.w3.org/1999/xlink">
<g id="graph0" class="graph" transform="scale(1 1) rotate(0) translate(4 309)">
<title>leaguewizard.core.models.Payload</title>
<!-- Node1 -->
<g id="Node000001" class="node">
<title>Node1</title>
<g id="a_Node000001"><a xlink:title=" ">
<polygon fill="#999999" stroke="transparent" points="642,-220 500,-220 500,-160 642,-160 642,-220"/>
<text text-anchor="start" x="505" y="-208" font-family="Helvetica,sans-Serif" font-size="10.00">leaguewizard.core.models.</text>
<text text-anchor="start" x="551.5" y="-197" font-family="Helvetica,sans-Serif" font-size="10.00">Payload</text>
<text text-anchor="start" x="569" y="-182" font-family="Helvetica,sans-Serif" font-size="10.00"> </text>
<text text-anchor="start" x="524" y="-167" font-family="Helvetica,sans-Serif" font-size="10.00">+</text>
<text text-anchor="start" x="557" y="-167" font-family="Helvetica,sans-Serif" font-size="10.00">asjson()</text>
<polygon fill="#666666" stroke="#666666" points="500,-192 500,-192 642,-192 642,-192 500,-192"/>
<polygon fill="#666666" stroke="#666666" points="500,-177 500,-177 642,-177 642,-177 500,-177"/>
<polygon fill="none" stroke="#666666" points="500,-160 500,-220 642,-220 642,-160 500,-160"/>
</a>
</g>
</g>
<!-- Node3 -->
<g id="Node000003" class="node">
<title>Node3</title>
<g id="a_Node000003"><a xlink:href="classleaguewizard_1_1core_1_1models_1_1Action.html" target="_top" xlink:title=" ">
<polygon fill="white" stroke="transparent" points="142,-99.5 0,-99.5 0,-24.5 142,-24.5 142,-99.5"/>
<text text-anchor="start" x="5" y="-87" font-family="Helvetica,sans-Serif" font-size="10.00">leaguewizard.core.models.</text>
<text text-anchor="start" x="55.5" y="-76" font-family="Helvetica,sans-Serif" font-size="10.00">Action</text>
<text text-anchor="start" x="18.5" y="-61" font-family="Helvetica,sans-Serif" font-size="10.00">+</text>
<text text-anchor="start" x="46" y="-61" font-family="Helvetica,sans-Serif" font-size="10.00">actor_cell_id</text>
<text text-anchor="start" x="18.5" y="-46" font-family="Helvetica,sans-Serif" font-size="10.00">+</text>
<text text-anchor="start" x="46" y="-46" font-family="Helvetica,sans-Serif" font-size="10.00">champion_id</text>
<text text-anchor="start" x="69" y="-31" font-family="Helvetica,sans-Serif" font-size="10.00"> </text>
<polygon fill="#666666" stroke="#666666" points="0,-71 0,-71 142,-71 142,-71 0,-71"/>
<polygon fill="#666666" stroke="#666666" points="0,-41 0,-41 44,-41 44,-41 0,-41"/>
<polygon fill="#666666" stroke="#666666" points="44,-41 44,-41 142,-41 142,-41 44,-41"/>
<polygon fill="none" stroke="#666666" points="0,-24.5 0,-99.5 142,-99.5 142,-24.5 0,-24.5"/>
</a>
</g>
</g>
<!-- Node1&#45;&gt;Node3 -->
<g id="edge2_Node000001_Node000003" class="edge">
<title>Node1&#45;&gt;Node3</title>
<g id="a_edge2_Node000001_Node000003"><a xlink:title=" ">
<path fill="none" stroke="#63b8ff" d="M489.64,-188.18C402.58,-184.67 262.01,-171.26 151,-124 136.86,-117.98 122.99,-108.89 110.87,-99.55"/>
<polygon fill="none" stroke="#63b8ff" points="489.6,-191.69 499.72,-188.56 489.86,-184.69 489.6,-191.69"/>
</a>
</g>
</g>
<!-- Node4 -->
<g id="Node000004" class="node">
<title>Node4</title>
<g id="a_Node000004"><a xlink:href="classleaguewizard_1_1core_1_1models_1_1Ally.html" target="_top" xlink:title=" ">
<polygon fill="white" stroke="transparent" points="321.5,-124 160.5,-124 160.5,0 321.5,0 321.5,-124"/>
<text text-anchor="start" x="166" y="-112" font-family="Helvetica,sans-Serif" font-size="10.00">leaguewizard.core.models.Ally</text>
<text text-anchor="start" x="178" y="-97" font-family="Helvetica,sans-Serif" font-size="10.00">+</text>
<text text-anchor="start" x="204" y="-97" font-family="Helvetica,sans-Serif" font-size="10.00">assigned_position</text>
<text text-anchor="start" x="178" y="-82" font-family="Helvetica,sans-Serif" font-size="10.00">+</text>
<text text-anchor="start" x="204" y="-82" font-family="Helvetica,sans-Serif" font-size="10.00">cell_id</text>
<text text-anchor="start" x="178" y="-67" font-family="Helvetica,sans-Serif" font-size="10.00">+</text>
<text text-anchor="start" x="204" y="-67" font-family="Helvetica,sans-Serif" font-size="10.00">champion_id</text>
<text text-anchor="start" x="178" y="-52" font-family="Helvetica,sans-Serif" font-size="10.00">+</text>
<text text-anchor="start" x="204" y="-52" font-family="Helvetica,sans-Serif" font-size="10.00">selected_skin_id</text>
<text text-anchor="start" x="178" y="-37" font-family="Helvetica,sans-Serif" font-size="10.00">+</text>
<text text-anchor="start" x="204" y="-37" font-family="Helvetica,sans-Serif" font-size="10.00">summoner_id</text>
<text text-anchor="start" x="178" y="-22" font-family="Helvetica,sans-Serif" font-size="10.00">+</text>
<text text-anchor="start" x="204" y="-22" font-family="Helvetica,sans-Serif" font-size="10.00">ward_skin_id</text>
<text text-anchor="start" x="239.5" y="-7" font-family="Helvetica,sans-Serif" font-size="10.00"> </text>
<polygon fill="#666666" stroke="#666666" points="161,-107 161,-107 322,-107 322,-107 161,-107"/>
<polygon fill="#666666" stroke="#666666" points="161,-17 161,-17 202,-17 202,-17 161,-17"/>
<polygon fill="#666666" stroke="#666666" points="202,-17 202,-17 322,-17 322,-17 202,-17"/>
<polygon fill="none" stroke="#666666" points="160.5,0 160.5,-124 321.5,-124 321.5,0 160.5,0"/>
</a>
</g>
</g>
<!-- Node1&#45;&gt;Node4 -->
<g id="edge3_Node000001_Node000004" class="edge">
<title>Node1&#45;&gt;Node4</title>
<g id="a_edge3_Node000001_Node000004"><a xlink:title=" ">
<path fill="none" stroke="#63b8ff" d="M489.85,-174.04C442.23,-163.56 381.64,-147.23 331,-124 327.91,-122.58 324.81,-121.06 321.72,-119.46"/>
<polygon fill="none" stroke="#63b8ff" points="489.3,-177.5 499.81,-176.19 490.77,-170.66 489.3,-177.5"/>
</a>
</g>
</g>
<!-- Node5 -->
<g id="Node000005" class="node">
<title>Node5</title>
<g id="a_Node000005"><a xlink:href="classleaguewizard_1_1core_1_1models_1_1EventSchema.html" target="_top" xlink:title=" ">
<polygon fill="white" stroke="transparent" points="482,-107 340,-107 340,-17 482,-17 482,-107"/>
<text text-anchor="start" x="345" y="-95" font-family="Helvetica,sans-Serif" font-size="10.00">leaguewizard.core.models.</text>
<text text-anchor="start" x="377.5" y="-84" font-family="Helvetica,sans-Serif" font-size="10.00">EventSchema</text>
<text text-anchor="start" x="350" y="-69" font-family="Helvetica,sans-Serif" font-size="10.00">+</text>
<text text-anchor="start" x="369" y="-69" font-family="Helvetica,sans-Serif" font-size="10.00">actions</text>
<text text-anchor="start" x="350" y="-54" font-family="Helvetica,sans-Serif" font-size="10.00">+</text>
<text text-anchor="start" x="369" y="-54" font-family="Helvetica,sans-Serif" font-size="10.00">local_player_cell_id</text>
<text text-anchor="start" x="350" y="-39" font-family="Helvetica,sans-Serif" font-size="10.00">+</text>
<text text-anchor="start" x="369" y="-39" font-family="Helvetica,sans-Serif" font-size="10.00">my_team</text>
<text text-anchor="start" x="409" y="-24" font-family="Helvetica,sans-Serif" font-size="10.00"> </text>
<polygon fill="#666666" stroke="#666666" points="340,-79 340,-79 482,-79 482,-79 340,-79"/>
<polygon fill="#666666" stroke="#666666" points="340,-34 340,-34 367,-34 367,-34 340,-34"/>
<polygon fill="#666666" stroke="#666666" points="367,-34 367,-34 482,-34 482,-34 367,-34"/>
<polygon fill="none" stroke="#666666" points="340,-17 340,-107 482,-107 482,-17 340,-17"/>
</a>
</g>
</g>
<!-- Node1&#45;&gt;Node5 -->
<g id="edge4_Node000001_Node000005" class="edge">
<title>Node1&#45;&gt;Node5</title>
<g id="a_edge4_Node000001_Node000005"><a xlink:title=" ">
<path fill="none" stroke="#63b8ff" d="M525.74,-153.35C507.49,-138.99 486.25,-122.26 467.04,-107.14"/>
<polygon fill="none" stroke="#63b8ff" points="523.87,-156.34 533.89,-159.78 528.2,-150.84 523.87,-156.34"/>
</a>
</g>
</g>
<!-- Node6 -->
<g id="Node000006" class="node">
<title>Node6</title>
<g id="a_Node000006"><a xlink:href="classleaguewizard_1_1core_1_1models_1_1ItemSet.html" target="_top" xlink:title=" ">
<polygon fill="white" stroke="transparent" points="642,-99.5 500,-99.5 500,-24.5 642,-24.5 642,-99.5"/>
<text text-anchor="start" x="505" y="-87" font-family="Helvetica,sans-Serif" font-size="10.00">leaguewizard.core.models.</text>
<text text-anchor="start" x="551.5" y="-76" font-family="Helvetica,sans-Serif" font-size="10.00">ItemSet</text>
<text text-anchor="start" x="506" y="-61" font-family="Helvetica,sans-Serif" font-size="10.00">+</text>
<text text-anchor="start" x="521" y="-61" font-family="Helvetica,sans-Serif" font-size="10.00">associated_champions</text>
<text text-anchor="start" x="506" y="-46" font-family="Helvetica,sans-Serif" font-size="10.00">+</text>
<text text-anchor="start" x="521" y="-46" font-family="Helvetica,sans-Serif" font-size="10.00">blocks</text>
<text text-anchor="start" x="569" y="-31" font-family="Helvetica,sans-Serif" font-size="10.00"> </text>
<polygon fill="#666666" stroke="#666666" points="500,-71 500,-71 642,-71 642,-71 500,-71"/>
<polygon fill="#666666" stroke="#666666" points="500,-41 500,-41 519,-41 519,-41 500,-41"/>
<polygon fill="#666666" stroke="#666666" points="519,-41 519,-41 642,-41 642,-41 519,-41"/>
<polygon fill="none" stroke="#666666" points="500,-24.5 500,-99.5 642,-99.5 642,-24.5 500,-24.5"/>
</a>
</g>
</g>
<!-- Node1&#45;&gt;Node6 -->
<g id="edge5_Node000001_Node000006" class="edge">
<title>Node1&#45;&gt;Node6</title>
<g id="a_edge5_Node000001_Node000006"><a xlink:title=" ">
<path fill="none" stroke="#63b8ff" d="M571,-149.69C571,-133.74 571,-115.42 571,-99.74"/>
<polygon fill="none" stroke="#63b8ff" points="567.5,-149.78 571,-159.78 574.5,-149.78 567.5,-149.78"/>
</a>
</g>
</g>
<!-- Node7 -->
<g id="Node000007" class="node">
<title>Node7</title>
<g id="a_Node000007"><a xlink:href="classleaguewizard_1_1core_1_1models_1_1PayloadItemSets.html" target="_top" xlink:title=" ">
<polygon fill="white" stroke="transparent" points="802,-107 660,-107 660,-17 802,-17 802,-107"/>
<text text-anchor="start" x="665" y="-95" font-family="Helvetica,sans-Serif" font-size="10.00">leaguewizard.core.models.</text>
<text text-anchor="start" x="690" y="-84" font-family="Helvetica,sans-Serif" font-size="10.00">PayloadItemSets</text>
<text text-anchor="start" x="680.5" y="-69" font-family="Helvetica,sans-Serif" font-size="10.00">+</text>
<text text-anchor="start" x="710" y="-69" font-family="Helvetica,sans-Serif" font-size="10.00">account_id</text>
<text text-anchor="start" x="680.5" y="-54" font-family="Helvetica,sans-Serif" font-size="10.00">+</text>
<text text-anchor="start" x="710" y="-54" font-family="Helvetica,sans-Serif" font-size="10.00">item_sets</text>
<text text-anchor="start" x="680.5" y="-39" font-family="Helvetica,sans-Serif" font-size="10.00">+</text>
<text text-anchor="start" x="710" y="-39" font-family="Helvetica,sans-Serif" font-size="10.00">timestamp</text>
<text text-anchor="start" x="729" y="-24" font-family="Helvetica,sans-Serif" font-size="10.00"> </text>
<polygon fill="#666666" stroke="#666666" points="660,-79 660,-79 802,-79 802,-79 660,-79"/>
<polygon fill="#666666" stroke="#666666" points="660,-34 660,-34 708,-34 708,-34 660,-34"/>
<polygon fill="#666666" stroke="#666666" points="708,-34 708,-34 802,-34 802,-34 708,-34"/>
<polygon fill="none" stroke="#666666" points="660,-17 660,-107 802,-107 802,-17 660,-17"/>
</a>
</g>
</g>
<!-- Node1&#45;&gt;Node7 -->
<g id="edge6_Node000001_Node000007" class="edge">
<title>Node1&#45;&gt;Node7</title>
<g id="a_edge6_Node000001_Node000007"><a xlink:title=" ">
<path fill="none" stroke="#63b8ff" d="M616.26,-153.35C634.51,-138.99 655.75,-122.26 674.96,-107.14"/>
<polygon fill="none" stroke="#63b8ff" points="613.8,-150.84 608.11,-159.78 618.13,-156.34 613.8,-150.84"/>
</a>
</g>
</g>
<!-- Node8 -->
<g id="Node000008" class="node">
<title>Node8</title>
<g id="a_Node000008"><a xlink:href="classleaguewizard_1_1core_1_1models_1_1PayloadPerks.html" target="_top" xlink:title=" ">
<polygon fill="white" stroke="transparent" points="962,-107 820,-107 820,-17 962,-17 962,-107"/>
<text text-anchor="start" x="825" y="-95" font-family="Helvetica,sans-Serif" font-size="10.00">leaguewizard.core.models.</text>
<text text-anchor="start" x="858" y="-84" font-family="Helvetica,sans-Serif" font-size="10.00">PayloadPerks</text>
<text text-anchor="start" x="832" y="-69" font-family="Helvetica,sans-Serif" font-size="10.00">+</text>
<text text-anchor="start" x="853" y="-69" font-family="Helvetica,sans-Serif" font-size="10.00">primary_style_id</text>
<text text-anchor="start" x="832" y="-54" font-family="Helvetica,sans-Serif" font-size="10.00">+</text>
<text text-anchor="start" x="853" y="-54" font-family="Helvetica,sans-Serif" font-size="10.00">sub_style_id</text>
<text text-anchor="start" x="832" y="-39" font-family="Helvetica,sans-Serif" font-size="10.00">+</text>
<text text-anchor="start" x="853" y="-39" font-family="Helvetica,sans-Serif" font-size="10.00">selected_perk_ids</text>
<text text-anchor="start" x="889" y="-24" font-family="Helvetica,sans-Serif" font-size="10.00"> </text>
<polygon fill="#666666" stroke="#666666" points="820,-79 820,-79 962,-79 962,-79 820,-79"/>
<polygon fill="#666666" stroke="#666666" points="820,-34 820,-34 851,-34 851,-34 820,-34"/>
<polygon fill="#666666" stroke="#666666" points="851,-34 851,-34 962,-34 962,-34 851,-34"/>
<polygon fill="none" stroke="#666666" points="820,-17 820,-107 962,-107 962,-17 820,-17"/>
</a>
</g>
</g>
<!-- Node1&#45;&gt;Node8 -->
<g id="edge7_Node000001_Node000008" class="edge">
<title>Node1&#45;&gt;Node8</title>
<g id="a_edge7_Node000001_Node000008"><a xlink:title=" ">
<path fill="none" stroke="#63b8ff" d="M652.12,-175.18C700,-165.07 760.84,-148.72 811,-124 820.56,-119.29 830.1,-113.36 839.1,-107.06"/>
<polygon fill="none" stroke="#63b8ff" points="651.2,-171.8 642.11,-177.25 652.61,-178.66 651.2,-171.8"/>
</a>
</g>
</g>
<!-- Node9 -->
<g id="Node000009" class="node">
<title>Node9</title>
<g id="a_Node000009"><a xlink:href="classleaguewizard_1_1core_1_1models_1_1PayloadSpells.html" target="_top" xlink:title=" ">
<polygon fill="white" stroke="transparent" points="1122,-107 980,-107 980,-17 1122,-17 1122,-107"/>
<text text-anchor="start" x="985" y="-95" font-family="Helvetica,sans-Serif" font-size="10.00">leaguewizard.core.models.</text>
<text text-anchor="start" x="1017" y="-84" font-family="Helvetica,sans-Serif" font-size="10.00">PayloadSpells</text>
<text text-anchor="start" x="993.5" y="-69" font-family="Helvetica,sans-Serif" font-size="10.00">+</text>
<text text-anchor="start" x="1016" y="-69" font-family="Helvetica,sans-Serif" font-size="10.00">spell1_id</text>
<text text-anchor="start" x="993.5" y="-54" font-family="Helvetica,sans-Serif" font-size="10.00">+</text>
<text text-anchor="start" x="1016" y="-54" font-family="Helvetica,sans-Serif" font-size="10.00">spell2_id</text>
<text text-anchor="start" x="993.5" y="-39" font-family="Helvetica,sans-Serif" font-size="10.00">+</text>
<text text-anchor="start" x="1016" y="-39" font-family="Helvetica,sans-Serif" font-size="10.00">selected_skin_id</text>
<text text-anchor="start" x="1049" y="-24" font-family="Helvetica,sans-Serif" font-size="10.00"> </text>
<polygon fill="#666666" stroke="#666666" points="980,-79 980,-79 1122,-79 1122,-79 980,-79"/>
<polygon fill="#666666" stroke="#666666" points="980,-34 980,-34 1014,-34 1014,-34 980,-34"/>
<polygon fill="#666666" stroke="#666666" points="1014,-34 1014,-34 1122,-34 1122,-34 1014,-34"/>
<polygon fill="none" stroke="#666666" points="980,-17 980,-107 1122,-107 1122,-17 980,-17"/>
</a>
</g>
</g>
<!-- Node1&#45;&gt;Node9 -->
<g id="edge8_Node000001_Node000009" class="edge">
<title>Node1&#45;&gt;Node9</title>
<g id="a_edge8_Node000001_Node000009"><a xlink:title=" ">
<path fill="none" stroke="#63b8ff" d="M652.33,-187.29C735.51,-182.94 866.93,-168.77 971,-124 981.27,-119.58 991.4,-113.56 1000.83,-107.01"/>
<polygon fill="none" stroke="#63b8ff" points="652,-183.8 642.18,-187.78 652.34,-190.79 652,-183.8"/>
</a>
</g>
</g>
<!-- Node2 -->
<g id="Node000002" class="node">
<title>Node2</title>
<g id="a_Node000002"><a xlink:href="classBaseModel.html" target="_top" xlink:title=" ">
<polygon fill="white" stroke="transparent" points="603.5,-305 538.5,-305 538.5,-256 603.5,-256 603.5,-305"/>
<text text-anchor="start" x="544" y="-292.5" font-family="Helvetica,sans-Serif" font-size="10.00">BaseModel</text>
<text text-anchor="start" x="569.5" y="-277.5" font-family="Helvetica,sans-Serif" font-size="10.00"> </text>
<text text-anchor="start" x="569.5" y="-262.5" font-family="Helvetica,sans-Serif" font-size="10.00"> </text>
<polygon fill="#666666" stroke="#666666" points="539,-287.5 539,-287.5 604,-287.5 604,-287.5 539,-287.5"/>
<polygon fill="#666666" stroke="#666666" points="539,-272.5 539,-272.5 604,-272.5 604,-272.5 539,-272.5"/>
<polygon fill="none" stroke="#666666" points="538.5,-256 538.5,-305 603.5,-305 603.5,-256 538.5,-256"/>
</a>
</g>
</g>
<!-- Node2&#45;&gt;Node1 -->
<g id="edge1_Node000001_Node000002" class="edge">
<title>Node2&#45;&gt;Node1</title>
<g id="a_edge1_Node000001_Node000002"><a xlink:title=" ">
<path fill="none" stroke="#63b8ff" d="M571,-245.55C571,-237.18 571,-228.28 571,-220.16"/>
<polygon fill="none" stroke="#63b8ff" points="567.5,-245.78 571,-255.78 574.5,-245.78 567.5,-245.78"/>
</a>
</g>
</g>
</g>
</svg>
