<?xml version="1.0" encoding="UTF-8" standalone="no"?>
<!DOCTYPE svg PUBLIC "-//W3C//DTD SVG 1.1//EN"
 "http://www.w3.org/Graphics/SVG/1.1/DTD/svg11.dtd">
<!-- Generated by graphviz version 2.43.0 (0)
 -->
<!-- Title: leaguewizard.mobalytics.parsers.ItemsetsParser Pages: 1 -->
<svg width="260pt" height="351pt"
 viewBox="0.00 0.00 259.50 351.00" xmlns="http://www.w3.org/2000/svg" xmlns:xlink="http://www.w3.org/1999/xlink">
<g id="graph0" class="graph" transform="scale(1 1) rotate(0) translate(4 347)">
<title>leaguewizard.mobalytics.parsers.ItemsetsParser</title>
<!-- Node1 -->
<g id="Node000001" class="node">
<title>Node1</title>
<g id="a_Node000001"><a xlink:title=" ">
<polygon fill="#999999" stroke="transparent" points="237,-120 62,-120 62,0 237,0 237,-120"/>
<text text-anchor="start" x="67.5" y="-108" font-family="Helvetica,sans-Serif" font-size="10.00">leaguewizard.mobalytics.parsers.</text>
<text text-anchor="start" x="113.5" y="-97" font-family="Helvetica,sans-Serif" font-size="10.00">ItemsetsParser</text>
<text text-anchor="start" x="148" y="-82" font-family="Helvetica,sans-Serif" font-size="10.00"> </text>
<text text-anchor="start" x="73" y="-67" font-family="Helvetica,sans-Serif" font-size="10.00">+</text>
<text text-anchor="start" x="92.5" y="-67" font-family="Helvetica,sans-Serif" font-size="10.00">parse()</text>
<text text-anchor="start" x="73" y="-52" font-family="Helvetica,sans-Serif" font-size="10.00">#</text>
<text text-anchor="start" x="92.5" y="-52" font-family="Helvetica,sans-Serif" font-size="10.00">_get_sr_item_sets()</text>
<text text-anchor="start" x="73" y="-37" font-family="Helvetica,sans-Serif" font-size="10.00">#</text>
<text text-anchor="start" x="92.5" y="-37" font-family="Helvetica,sans-Serif" font-size="10.00">_get_aram_item_sets()</text>
<text text-anchor="start" x="73" y="-22" font-family="Helvetica,sans-Serif" font-size="10.00">#</text>
<text text-anchor="start" x="92.5" y="-22" font-family="Helvetica,sans-Serif" font-size="10.00">_get_itemsets()</text>
<text text-anchor="start" x="73" y="-7" font-family="Helvetica,sans-Serif" font-size="10.00">#</text>
<text text-anchor="start" x="92.5" y="-7" font-family="Helvetica,sans-Serif" font-size="10.00">_get_item_sets_payload()</text>
<polygon fill="#666666" stroke="#666666" points="62.5,-92 62.5,-92 237.5,-92 237.5,-92 62.5,-92"/>
<polygon fill="#666666" stroke="#666666" points="62.5,-77 62.5,-77 237.5,-77 237.5,-77 62.5,-77"/>
<polygon fill="none" stroke="#666666" points="62,0 62,-120 237,-120 237,0 62,0"/>
</a>
</g>
</g>
<!-- Node2 -->
<g id="Node000002" class="node">
<title>Node2</title>
<g id="a_Node000002"><a xlink:href="classleaguewizard_1_1mobalytics_1_1parsers_1_1BaseParser.html" target="_top" xlink:title=" ">
<polygon fill="white" stroke="transparent" points="175,-247 0,-247 0,-157 175,-157 175,-247"/>
<text text-anchor="start" x="5.5" y="-235" font-family="Helvetica,sans-Serif" font-size="10.00">leaguewizard.mobalytics.parsers.</text>
<text text-anchor="start" x="60.5" y="-224" font-family="Helvetica,sans-Serif" font-size="10.00">BaseParser</text>
<text text-anchor="start" x="31" y="-209" font-family="Helvetica,sans-Serif" font-size="10.00">+</text>
<text text-anchor="start" x="70.5" y="-209" font-family="Helvetica,sans-Serif" font-size="10.00">html</text>
<text text-anchor="start" x="31" y="-194" font-family="Helvetica,sans-Serif" font-size="10.00">+</text>
<text text-anchor="start" x="70.5" y="-194" font-family="Helvetica,sans-Serif" font-size="10.00">__init__()</text>
<text text-anchor="start" x="31" y="-179" font-family="Helvetica,sans-Serif" font-size="10.00">+</text>
<text text-anchor="start" x="70.5" y="-179" font-family="Helvetica,sans-Serif" font-size="10.00">parse()</text>
<text text-anchor="start" x="31" y="-164" font-family="Helvetica,sans-Serif" font-size="10.00">+</text>
<text text-anchor="start" x="70.5" y="-164" font-family="Helvetica,sans-Serif" font-size="10.00">payload()</text>
<polygon fill="#666666" stroke="#666666" points="0.5,-219 0.5,-219 175.5,-219 175.5,-219 0.5,-219"/>
<polygon fill="#666666" stroke="#666666" points="0.5,-204 0.5,-204 68.5,-204 68.5,-204 0.5,-204"/>
<polygon fill="#666666" stroke="#666666" points="68.5,-204 68.5,-204 175.5,-204 175.5,-204 68.5,-204"/>
<polygon fill="none" stroke="#666666" points="0,-157 0,-247 175,-247 175,-157 0,-157"/>
</a>
</g>
</g>
<!-- Node2&#45;&gt;Node1 -->
<g id="edge1_Node000001_Node000002" class="edge">
<title>Node2&#45;&gt;Node1</title>
<g id="a_edge1_Node000001_Node000002"><a xlink:title=" ">
<path fill="none" stroke="#63b8ff" d="M111.18,-147.53C115.15,-138.56 119.29,-129.22 123.32,-120.12"/>
<polygon fill="none" stroke="#63b8ff" points="107.97,-146.14 107.12,-156.7 114.37,-148.98 107.97,-146.14"/>
</a>
</g>
</g>
<!-- Node3 -->
<g id="Node000003" class="node">
<title>Node3</title>
<g id="a_Node000003"><a xlink:href="classABC.html" target="_top" xlink:title=" ">
<polygon fill="white" stroke="transparent" points="103,-343 72,-343 72,-294 103,-294 103,-343"/>
<text text-anchor="start" x="77.5" y="-330.5" font-family="Helvetica,sans-Serif" font-size="10.00">ABC</text>
<text text-anchor="start" x="86" y="-315.5" font-family="Helvetica,sans-Serif" font-size="10.00"> </text>
<text text-anchor="start" x="86" y="-300.5" font-family="Helvetica,sans-Serif" font-size="10.00"> </text>
<polygon fill="#666666" stroke="#666666" points="72.5,-325.5 72.5,-325.5 103.5,-325.5 103.5,-325.5 72.5,-325.5"/>
<polygon fill="#666666" stroke="#666666" points="72.5,-310.5 72.5,-310.5 103.5,-310.5 103.5,-310.5 72.5,-310.5"/>
<polygon fill="none" stroke="#666666" points="72,-294 72,-343 103,-343 103,-294 72,-294"/>
</a>
</g>
</g>
<!-- Node3&#45;&gt;Node2 -->
<g id="edge2_Node000002_Node000003" class="edge">
<title>Node3&#45;&gt;Node2</title>
<g id="a_edge2_Node000002_Node000003"><a xlink:title=" ">
<path fill="none" stroke="#63b8ff" d="M87.5,-283.72C87.5,-272.24 87.5,-259.23 87.5,-247.06"/>
<polygon fill="none" stroke="#63b8ff" points="84,-283.78 87.5,-293.78 91,-283.78 84,-283.78"/>
</a>
</g>
</g>
<!-- Node4 -->
<g id="Node000004" class="node">
<title>Node4</title>
<g id="a_Node000004"><a xlink:title=" ">
<polygon fill="white" stroke="transparent" points="180,-343 151,-343 151,-294 180,-294 180,-343"/>
<text text-anchor="start" x="156.5" y="-330.5" font-family="Helvetica,sans-Serif" font-size="10.00">Any</text>
<text text-anchor="start" x="164" y="-315.5" font-family="Helvetica,sans-Serif" font-size="10.00"> </text>
<text text-anchor="start" x="164" y="-300.5" font-family="Helvetica,sans-Serif" font-size="10.00"> </text>
<polygon fill="#666666" stroke="#666666" points="151.5,-325.5 151.5,-325.5 180.5,-325.5 180.5,-325.5 151.5,-325.5"/>
<polygon fill="#666666" stroke="#666666" points="151.5,-310.5 151.5,-310.5 180.5,-310.5 180.5,-310.5 151.5,-310.5"/>
<polygon fill="none" stroke="#666666" points="151,-294 151,-343 180,-343 180,-294 151,-294"/>
</a>
</g>
</g>
<!-- Node4&#45;&gt;Node1 -->
<g id="edge4_Node000001_Node000004" class="edge">
<title>Node4&#45;&gt;Node1</title>
<g id="a_edge4_Node000001_Node000004"><a xlink:title=" ">
<path fill="none" stroke="#63b8ff" d="M180.22,-302.72C186.54,-295.35 193.21,-285.9 196.5,-276 198.04,-271.36 196.77,-269.88 196.5,-265 193.83,-216.78 195.52,-204.02 184.5,-157 182.55,-148.69 180.1,-140.11 177.4,-131.66"/>
<polygon fill="none" stroke="#63b8ff" points="177.39,-131.63 171.7,-127.2 173.59,-120.24 179.29,-124.67 177.39,-131.63"/>
</a>
</g>
<text text-anchor="middle" x="223.5" y="-199.5" font-family="Helvetica,sans-Serif" font-size="10.00" fill="grey"> #_payload</text>
</g>
<!-- Node4&#45;&gt;Node2 -->
<g id="edge3_Node000002_Node000004" class="edge">
<title>Node4&#45;&gt;Node2</title>
<g id="a_edge3_Node000002_Node000004"><a xlink:title=" ">
<path fill="none" stroke="#63b8ff" d="M150.83,-295.96C143.3,-284.91 133.76,-270.9 124.38,-257.14"/>
<polygon fill="none" stroke="#63b8ff" points="124.37,-257.12 117.68,-254.41 117.61,-247.2 124.3,-249.91 124.37,-257.12"/>
</a>
</g>
<text text-anchor="middle" x="164.5" y="-268" font-family="Helvetica,sans-Serif" font-size="10.00" fill="grey"> #_payload</text>
</g>
</g>
</svg>
