<?xml version="1.0" encoding="UTF-8" standalone="no"?>
<!DOCTYPE svg PUBLIC "-//W3C//DTD SVG 1.1//EN"
 "http://www.w3.org/Graphics/SVG/1.1/DTD/svg11.dtd">
<!-- Generated by graphviz version 2.43.0 (0)
 -->
<!-- Title: leaguewizard.core.models.PayloadItemSets Pages: 1 -->
<svg width="316pt" height="272pt"
 viewBox="0.00 0.00 316.00 272.00" xmlns="http://www.w3.org/2000/svg" xmlns:xlink="http://www.w3.org/1999/xlink">

<svg id="main" version="1.1" xmlns="http://www.w3.org/2000/svg" xmlns:xlink="http://www.w3.org/1999/xlink" xml:space="preserve">

<style type="text/css"><![CDATA[
.node, .edge {opacity: 0.7;}
.node.selected, .edge.selected {opacity: 1;}
.edge:hover path { stroke: red; }
.edge:hover polygon { stroke: red; fill: red; }
]]></style>
<script type="application/ecmascript" xlink:href="svg.min.js"/>
<svg id="graph" class="graph">
<g id="graph0" class="graph" transform="scale(1 1) rotate(0) translate(4 268)">
<title>leaguewizard.core.models.PayloadItemSets</title>
<!-- Node1 -->
<g id="Node000001" class="node">
<title>Node1</title>
<g id="a_Node000001"><a xlink:title=" ">
<polygon fill="#999999" stroke="transparent" points="243,-60 101,-60 101,0 243,0 243,-60"/>
<text text-anchor="start" x="106" y="-48" font-family="Helvetica,sans-Serif" font-size="10.00">leaguewizard.core.models.</text>
<text text-anchor="start" x="131" y="-37" font-family="Helvetica,sans-Serif" font-size="10.00">PayloadItemSets</text>
<text text-anchor="start" x="170" y="-22" font-family="Helvetica,sans-Serif" font-size="10.00"> </text>
<text text-anchor="start" x="170" y="-7" font-family="Helvetica,sans-Serif" font-size="10.00"> </text>
<polygon fill="#666666" stroke="#666666" points="101,-32 101,-32 243,-32 243,-32 101,-32"/>
<polygon fill="#666666" stroke="#666666" points="101,-17 101,-17 243,-17 243,-17 101,-17"/>
<polygon fill="none" stroke="#666666" points="101,0 101,-60 243,-60 243,0 101,0"/>
</a>
</g>
</g>
<!-- Node2 -->
<g id="Node000002" class="node">
<title>Node2</title>
<g id="a_Node000002"><a xlink:href="classleaguewizard_1_1core_1_1models_1_1Payload.html" target="_top" xlink:title=" ">
<polygon fill="white" stroke="transparent" points="142,-178 0,-178 0,-118 142,-118 142,-178"/>
<text text-anchor="start" x="5" y="-166" font-family="Helvetica,sans-Serif" font-size="10.00">leaguewizard.core.models.</text>
<text text-anchor="start" x="51.5" y="-155" font-family="Helvetica,sans-Serif" font-size="10.00">Payload</text>
<text text-anchor="start" x="69" y="-140" font-family="Helvetica,sans-Serif" font-size="10.00"> </text>
<text text-anchor="start" x="24" y="-125" font-family="Helvetica,sans-Serif" font-size="10.00">+</text>
<text text-anchor="start" x="57" y="-125" font-family="Helvetica,sans-Serif" font-size="10.00">asjson()</text>
<polygon fill="#666666" stroke="#666666" points="0,-150 0,-150 142,-150 142,-150 0,-150"/>
<polygon fill="#666666" stroke="#666666" points="0,-135 0,-135 142,-135 142,-135 0,-135"/>
<polygon fill="none" stroke="#666666" points="0,-118 0,-178 142,-178 142,-118 0,-118"/>
</a>
</g>
</g>
<!-- Node2&#45;&gt;Node1 -->
<g id="edge1_Node000001_Node000002" class="edge">
<title>Node2&#45;&gt;Node1</title>
<g id="a_edge1_Node000001_Node000002"><a xlink:title=" ">
<path fill="none" stroke="#63b8ff" d="M103.17,-110.06C117.18,-93.97 133.37,-75.37 146.52,-60.26"/>
<polygon fill="none" stroke="#63b8ff" points="100.41,-107.89 96.49,-117.73 105.69,-112.48 100.41,-107.89"/>
</a>
</g>
</g>
<!-- Node3 -->
<g id="Node000003" class="node">
<title>Node3</title>
<g id="a_Node000003"><a xlink:href="classBaseModel.html" target="_top" xlink:title=" ">
<polygon fill="white" stroke="transparent" points="103.5,-264 38.5,-264 38.5,-215 103.5,-215 103.5,-264"/>
<text text-anchor="start" x="44" y="-251.5" font-family="Helvetica,sans-Serif" font-size="10.00">BaseModel</text>
<text text-anchor="start" x="69.5" y="-236.5" font-family="Helvetica,sans-Serif" font-size="10.00"> </text>
<text text-anchor="start" x="69.5" y="-221.5" font-family="Helvetica,sans-Serif" font-size="10.00"> </text>
<polygon fill="#666666" stroke="#666666" points="39,-246.5 39,-246.5 104,-246.5 104,-246.5 39,-246.5"/>
<polygon fill="#666666" stroke="#666666" points="39,-231.5 39,-231.5 104,-231.5 104,-231.5 39,-231.5"/>
<polygon fill="none" stroke="#666666" points="38.5,-215 38.5,-264 103.5,-264 103.5,-215 38.5,-215"/>
</a>
</g>
</g>
<!-- Node3&#45;&gt;Node2 -->
<g id="edge2_Node000002_Node000003" class="edge">
<title>Node3&#45;&gt;Node2</title>
<g id="a_edge2_Node000002_Node000003"><a xlink:title=" ">
<path fill="none" stroke="#63b8ff" d="M71,-204.7C71,-195.95 71,-186.6 71,-178.12"/>
<polygon fill="none" stroke="#63b8ff" points="67.5,-204.98 71,-214.98 74.5,-204.98 67.5,-204.98"/>
</a>
</g>
</g>
<!-- Node4 -->
<g id="Node000004" class="node">
<title>Node4</title>
<g id="a_Node000004"><a xlink:title=" ">
<polygon fill="white" stroke="transparent" points="183.5,-172.5 160.5,-172.5 160.5,-123.5 183.5,-123.5 183.5,-172.5"/>
<text text-anchor="start" x="166" y="-160" font-family="Helvetica,sans-Serif" font-size="10.00">int</text>
<text text-anchor="start" x="170.5" y="-145" font-family="Helvetica,sans-Serif" font-size="10.00"> </text>
<text text-anchor="start" x="170.5" y="-130" font-family="Helvetica,sans-Serif" font-size="10.00"> </text>
<polygon fill="#666666" stroke="#666666" points="161,-155 161,-155 184,-155 184,-155 161,-155"/>
<polygon fill="#666666" stroke="#666666" points="161,-140 161,-140 184,-140 184,-140 161,-140"/>
<polygon fill="none" stroke="#666666" points="160.5,-123.5 160.5,-172.5 183.5,-172.5 183.5,-123.5 160.5,-123.5"/>
</a>
</g>
</g>
<!-- Node4&#45;&gt;Node1 -->
<g id="edge3_Node000001_Node000004" class="edge">
<title>Node4&#45;&gt;Node1</title>
<g id="a_edge3_Node000001_Node000004"><a xlink:title=" ">
<path fill="none" stroke="#63b8ff" d="M172,-123.25C172,-108.52 172,-89.22 172,-72.07"/>
<polygon fill="none" stroke="#63b8ff" points="172,-72.07 168,-66.07 172,-60.07 176,-66.07 172,-72.07"/>
</a>
</g>
<text text-anchor="middle" x="204" y="-92" font-family="Helvetica,sans-Serif" font-size="10.00" fill="grey"> +account_id</text>
<text text-anchor="middle" x="204" y="-81" font-family="Helvetica,sans-Serif" font-size="10.00" fill="grey">+timestamp</text>
</g>
<!-- Node5 -->
<g id="Node000005" class="node">
<title>Node5</title>
<g id="a_Node000005"><a xlink:title=" ">
<polygon fill="white" stroke="transparent" points="272,-172.5 246,-172.5 246,-123.5 272,-123.5 272,-172.5"/>
<text text-anchor="start" x="251" y="-160" font-family="Helvetica,sans-Serif" font-size="10.00">list</text>
<text text-anchor="start" x="257" y="-145" font-family="Helvetica,sans-Serif" font-size="10.00"> </text>
<text text-anchor="start" x="257" y="-130" font-family="Helvetica,sans-Serif" font-size="10.00"> </text>
<polygon fill="#666666" stroke="#666666" points="246,-155 246,-155 272,-155 272,-155 246,-155"/>
<polygon fill="#666666" stroke="#666666" points="246,-140 246,-140 272,-140 272,-140 246,-140"/>
<polygon fill="none" stroke="#666666" points="246,-123.5 246,-172.5 272,-172.5 272,-123.5 246,-123.5"/>
</a>
</g>
</g>
<!-- Node5&#45;&gt;Node1 -->
<g id="edge4_Node000001_Node000005" class="edge">
<title>Node5&#45;&gt;Node1</title>
<g id="a_edge4_Node000001_Node000005"><a xlink:title=" ">
<path fill="none" stroke="#63b8ff" d="M255.3,-123.25C252.19,-109.1 246.66,-91.34 237,-78 234.56,-74.63 231.8,-71.4 228.83,-68.33"/>
<polygon fill="none" stroke="#63b8ff" points="228.79,-68.29 221.67,-67.13 220,-60.12 227.12,-61.27 228.79,-68.29"/>
</a>
</g>
<text text-anchor="middle" x="278" y="-86.5" font-family="Helvetica,sans-Serif" font-size="10.00" fill="grey"> +item_sets</text>
</g>
</g>
</svg>
</svg>

<style type='text/css'>
<![CDATA[
[data-mouse-over-selected='false'] { opacity: 0.7; }
[data-mouse-over-selected='true']  { opacity: 1.0; }
]]>
</style>
<script type="application/ecmascript"><![CDATA[
document.addEventListener('DOMContentLoaded', (event) => {
  highlightEdges();
  highlightAdjacentNodes();
});
]]></script>
</svg>
