<?xml version="1.0" encoding="UTF-8" standalone="no"?>
<!DOCTYPE svg PUBLIC "-//W3C//DTD SVG 1.1//EN"
 "http://www.w3.org/Graphics/SVG/1.1/DTD/svg11.dtd">
<!-- Generated by graphviz version 2.43.0 (0)
 -->
<!-- Title: leaguewizard.mobalytics.parsers.PerksParser Pages: 1 -->
<svg width="183pt" height="309pt"
 viewBox="0.00 0.00 183.00 309.00" xmlns="http://www.w3.org/2000/svg" xmlns:xlink="http://www.w3.org/1999/xlink">
<g id="graph0" class="graph" transform="scale(1 1) rotate(0) translate(4 305)">
<title>leaguewizard.mobalytics.parsers.PerksParser</title>
<!-- Node1 -->
<g id="Node000001" class="node">
<title>Node1</title>
<g id="a_Node000001"><a xlink:title=" ">
<polygon fill="#999999" stroke="transparent" points="175,-75 0,-75 0,0 175,0 175,-75"/>
<text text-anchor="start" x="5.5" y="-62.5" font-family="Helvetica,sans-Serif" font-size="10.00">leaguewizard.mobalytics.parsers.</text>
<text text-anchor="start" x="59" y="-51.5" font-family="Helvetica,sans-Serif" font-size="10.00">PerksParser</text>
<text text-anchor="start" x="86" y="-36.5" font-family="Helvetica,sans-Serif" font-size="10.00"> </text>
<text text-anchor="start" x="27.5" y="-21.5" font-family="Helvetica,sans-Serif" font-size="10.00">+</text>
<text text-anchor="start" x="63.5" y="-21.5" font-family="Helvetica,sans-Serif" font-size="10.00">parse()</text>
<text text-anchor="start" x="27.5" y="-6.5" font-family="Helvetica,sans-Serif" font-size="10.00">#</text>
<text text-anchor="start" x="63.5" y="-6.5" font-family="Helvetica,sans-Serif" font-size="10.00">_get_perks()</text>
<polygon fill="#666666" stroke="#666666" points="0.5,-46.5 0.5,-46.5 175.5,-46.5 175.5,-46.5 0.5,-46.5"/>
<polygon fill="#666666" stroke="#666666" points="0.5,-31.5 0.5,-31.5 175.5,-31.5 175.5,-31.5 0.5,-31.5"/>
<polygon fill="none" stroke="#666666" points="0,0 0,-75 175,-75 175,0 0,0"/>
</a>
</g>
</g>
<!-- Node2 -->
<g id="Node000002" class="node">
<title>Node2</title>
<g id="a_Node000002"><a xlink:href="classleaguewizard_1_1mobalytics_1_1parsers_1_1BaseParser.html" target="_top" xlink:title=" ">
<polygon fill="white" stroke="transparent" points="175,-216 0,-216 0,-111 175,-111 175,-216"/>
<text text-anchor="start" x="5.5" y="-203.5" font-family="Helvetica,sans-Serif" font-size="10.00">leaguewizard.mobalytics.parsers.</text>
<text text-anchor="start" x="60.5" y="-192.5" font-family="Helvetica,sans-Serif" font-size="10.00">BaseParser</text>
<text text-anchor="start" x="31" y="-177.5" font-family="Helvetica,sans-Serif" font-size="10.00">+</text>
<text text-anchor="start" x="70.5" y="-177.5" font-family="Helvetica,sans-Serif" font-size="10.00">html</text>
<text text-anchor="start" x="31" y="-162.5" font-family="Helvetica,sans-Serif" font-size="10.00">#</text>
<text text-anchor="start" x="70.5" y="-162.5" font-family="Helvetica,sans-Serif" font-size="10.00">_payload</text>
<text text-anchor="start" x="31" y="-147.5" font-family="Helvetica,sans-Serif" font-size="10.00">+</text>
<text text-anchor="start" x="70.5" y="-147.5" font-family="Helvetica,sans-Serif" font-size="10.00">__init__()</text>
<text text-anchor="start" x="31" y="-132.5" font-family="Helvetica,sans-Serif" font-size="10.00">+</text>
<text text-anchor="start" x="70.5" y="-132.5" font-family="Helvetica,sans-Serif" font-size="10.00">parse()</text>
<text text-anchor="start" x="31" y="-117.5" font-family="Helvetica,sans-Serif" font-size="10.00">+</text>
<text text-anchor="start" x="70.5" y="-117.5" font-family="Helvetica,sans-Serif" font-size="10.00">payload()</text>
<polygon fill="#666666" stroke="#666666" points="0.5,-187.5 0.5,-187.5 175.5,-187.5 175.5,-187.5 0.5,-187.5"/>
<polygon fill="#666666" stroke="#666666" points="0.5,-157.5 0.5,-157.5 68.5,-157.5 68.5,-157.5 0.5,-157.5"/>
<polygon fill="#666666" stroke="#666666" points="68.5,-157.5 68.5,-157.5 175.5,-157.5 175.5,-157.5 68.5,-157.5"/>
<polygon fill="none" stroke="#666666" points="0,-111 0,-216 175,-216 175,-111 0,-111"/>
</a>
</g>
</g>
<!-- Node2&#45;&gt;Node1 -->
<g id="edge1_Node000001_Node000002" class="edge">
<title>Node2&#45;&gt;Node1</title>
<g id="a_edge1_Node000001_Node000002"><a xlink:title=" ">
<path fill="none" stroke="#63b8ff" d="M87.5,-100.8C87.5,-92.08 87.5,-83.35 87.5,-75.3"/>
<polygon fill="none" stroke="#63b8ff" points="84,-100.99 87.5,-110.99 91,-100.99 84,-100.99"/>
</a>
</g>
</g>
<!-- Node3 -->
<g id="Node000003" class="node">
<title>Node3</title>
<g id="a_Node000003"><a xlink:href="classABC.html" target="_top" xlink:title=" ">
<polygon fill="white" stroke="transparent" points="103,-301 72,-301 72,-252 103,-252 103,-301"/>
<text text-anchor="start" x="77.5" y="-288.5" font-family="Helvetica,sans-Serif" font-size="10.00">ABC</text>
<text text-anchor="start" x="86" y="-273.5" font-family="Helvetica,sans-Serif" font-size="10.00"> </text>
<text text-anchor="start" x="86" y="-258.5" font-family="Helvetica,sans-Serif" font-size="10.00"> </text>
<polygon fill="#666666" stroke="#666666" points="72.5,-283.5 72.5,-283.5 103.5,-283.5 103.5,-283.5 72.5,-283.5"/>
<polygon fill="#666666" stroke="#666666" points="72.5,-268.5 72.5,-268.5 103.5,-268.5 103.5,-268.5 72.5,-268.5"/>
<polygon fill="none" stroke="#666666" points="72,-252 72,-301 103,-301 103,-252 72,-252"/>
</a>
</g>
</g>
<!-- Node3&#45;&gt;Node2 -->
<g id="edge2_Node000002_Node000003" class="edge">
<title>Node3&#45;&gt;Node2</title>
<g id="a_edge2_Node000002_Node000003"><a xlink:title=" ">
<path fill="none" stroke="#63b8ff" d="M87.5,-241.85C87.5,-233.79 87.5,-225 87.5,-216.32"/>
<polygon fill="none" stroke="#63b8ff" points="84,-241.96 87.5,-251.96 91,-241.96 84,-241.96"/>
</a>
</g>
</g>
</g>
</svg>
