<?xml version="1.0" encoding="UTF-8" standalone="no"?>
<!DOCTYPE svg PUBLIC "-//W3C//DTD SVG 1.1//EN"
 "http://www.w3.org/Graphics/SVG/1.1/DTD/svg11.dtd">
<!-- Generated by graphviz version 2.43.0 (0)
 -->
<!-- Title: ABC Pages: 1 -->
<svg width="569pt" height="354pt"
 viewBox="0.00 0.00 569.00 354.00" xmlns="http://www.w3.org/2000/svg" xmlns:xlink="http://www.w3.org/1999/xlink">
<g id="graph0" class="graph" transform="scale(1 1) rotate(0) translate(4 350)">
<title>ABC</title>
<!-- Node1 -->
<g id="Node000001" class="node">
<title>Node1</title>
<g id="a_Node000001"><a xlink:title=" ">
<polygon fill="#999999" stroke="transparent" points="296,-346 265,-346 265,-297 296,-297 296,-346"/>
<text text-anchor="start" x="270.5" y="-333.5" font-family="Helvetica,sans-Serif" font-size="10.00">ABC</text>
<text text-anchor="start" x="279" y="-318.5" font-family="Helvetica,sans-Serif" font-size="10.00"> </text>
<text text-anchor="start" x="279" y="-303.5" font-family="Helvetica,sans-Serif" font-size="10.00"> </text>
<polygon fill="#666666" stroke="#666666" points="265.5,-328.5 265.5,-328.5 296.5,-328.5 296.5,-328.5 265.5,-328.5"/>
<polygon fill="#666666" stroke="#666666" points="265.5,-313.5 265.5,-313.5 296.5,-313.5 296.5,-313.5 265.5,-313.5"/>
<polygon fill="none" stroke="#666666" points="265,-297 265,-346 296,-346 296,-297 265,-297"/>
</a>
</g>
</g>
<!-- Node2 -->
<g id="Node000002" class="node">
<title>Node2</title>
<g id="a_Node000002"><a xlink:href="classleaguewizard_1_1mobalytics_1_1parsers_1_1BaseParser.html" target="_top" xlink:title=" ">
<polygon fill="white" stroke="transparent" points="368,-261 193,-261 193,-156 368,-156 368,-261"/>
<text text-anchor="start" x="198.5" y="-248.5" font-family="Helvetica,sans-Serif" font-size="10.00">leaguewizard.mobalytics.parsers.</text>
<text text-anchor="start" x="253.5" y="-237.5" font-family="Helvetica,sans-Serif" font-size="10.00">BaseParser</text>
<text text-anchor="start" x="224" y="-222.5" font-family="Helvetica,sans-Serif" font-size="10.00">+</text>
<text text-anchor="start" x="263.5" y="-222.5" font-family="Helvetica,sans-Serif" font-size="10.00">html</text>
<text text-anchor="start" x="224" y="-207.5" font-family="Helvetica,sans-Serif" font-size="10.00">#</text>
<text text-anchor="start" x="263.5" y="-207.5" font-family="Helvetica,sans-Serif" font-size="10.00">_payload</text>
<text text-anchor="start" x="224" y="-192.5" font-family="Helvetica,sans-Serif" font-size="10.00">+</text>
<text text-anchor="start" x="263.5" y="-192.5" font-family="Helvetica,sans-Serif" font-size="10.00">__init__()</text>
<text text-anchor="start" x="224" y="-177.5" font-family="Helvetica,sans-Serif" font-size="10.00">+</text>
<text text-anchor="start" x="263.5" y="-177.5" font-family="Helvetica,sans-Serif" font-size="10.00">parse()</text>
<text text-anchor="start" x="224" y="-162.5" font-family="Helvetica,sans-Serif" font-size="10.00">+</text>
<text text-anchor="start" x="263.5" y="-162.5" font-family="Helvetica,sans-Serif" font-size="10.00">payload()</text>
<polygon fill="#666666" stroke="#666666" points="193.5,-232.5 193.5,-232.5 368.5,-232.5 368.5,-232.5 193.5,-232.5"/>
<polygon fill="#666666" stroke="#666666" points="193.5,-202.5 193.5,-202.5 261.5,-202.5 261.5,-202.5 193.5,-202.5"/>
<polygon fill="#666666" stroke="#666666" points="261.5,-202.5 261.5,-202.5 368.5,-202.5 368.5,-202.5 261.5,-202.5"/>
<polygon fill="none" stroke="#666666" points="193,-156 193,-261 368,-261 368,-156 193,-156"/>
</a>
</g>
</g>
<!-- Node1&#45;&gt;Node2 -->
<g id="edge1_Node000001_Node000002" class="edge">
<title>Node1&#45;&gt;Node2</title>
<g id="a_edge1_Node000001_Node000002"><a xlink:title=" ">
<path fill="none" stroke="#63b8ff" d="M280.5,-286.85C280.5,-278.79 280.5,-270 280.5,-261.32"/>
<polygon fill="none" stroke="#63b8ff" points="277,-286.96 280.5,-296.96 284,-286.96 277,-286.96"/>
</a>
</g>
</g>
<!-- Node3 -->
<g id="Node000003" class="node">
<title>Node3</title>
<g id="a_Node000003"><a xlink:href="classleaguewizard_1_1mobalytics_1_1parsers_1_1ItemsetsParser.html" target="_top" xlink:title=" ">
<polygon fill="white" stroke="transparent" points="175,-120 0,-120 0,0 175,0 175,-120"/>
<text text-anchor="start" x="5.5" y="-108" font-family="Helvetica,sans-Serif" font-size="10.00">leaguewizard.mobalytics.parsers.</text>
<text text-anchor="start" x="51.5" y="-97" font-family="Helvetica,sans-Serif" font-size="10.00">ItemsetsParser</text>
<text text-anchor="start" x="86" y="-82" font-family="Helvetica,sans-Serif" font-size="10.00"> </text>
<text text-anchor="start" x="11" y="-67" font-family="Helvetica,sans-Serif" font-size="10.00">+</text>
<text text-anchor="start" x="30.5" y="-67" font-family="Helvetica,sans-Serif" font-size="10.00">parse()</text>
<text text-anchor="start" x="11" y="-52" font-family="Helvetica,sans-Serif" font-size="10.00">#</text>
<text text-anchor="start" x="30.5" y="-52" font-family="Helvetica,sans-Serif" font-size="10.00">_get_sr_item_sets()</text>
<text text-anchor="start" x="11" y="-37" font-family="Helvetica,sans-Serif" font-size="10.00">#</text>
<text text-anchor="start" x="30.5" y="-37" font-family="Helvetica,sans-Serif" font-size="10.00">_get_aram_item_sets()</text>
<text text-anchor="start" x="11" y="-22" font-family="Helvetica,sans-Serif" font-size="10.00">#</text>
<text text-anchor="start" x="30.5" y="-22" font-family="Helvetica,sans-Serif" font-size="10.00">_get_itemsets()</text>
<text text-anchor="start" x="11" y="-7" font-family="Helvetica,sans-Serif" font-size="10.00">#</text>
<text text-anchor="start" x="30.5" y="-7" font-family="Helvetica,sans-Serif" font-size="10.00">_get_item_sets_payload()</text>
<polygon fill="#666666" stroke="#666666" points="0.5,-92 0.5,-92 175.5,-92 175.5,-92 0.5,-92"/>
<polygon fill="#666666" stroke="#666666" points="0.5,-77 0.5,-77 175.5,-77 175.5,-77 0.5,-77"/>
<polygon fill="none" stroke="#666666" points="0,0 0,-120 175,-120 175,0 0,0"/>
</a>
</g>
</g>
<!-- Node2&#45;&gt;Node3 -->
<g id="edge2_Node000002_Node000003" class="edge">
<title>Node2&#45;&gt;Node3</title>
<g id="a_edge2_Node000002_Node000003"><a xlink:title=" ">
<path fill="none" stroke="#63b8ff" d="M204.17,-149.56C191.45,-139.91 178.24,-129.88 165.47,-120.19"/>
<polygon fill="none" stroke="#63b8ff" points="202.37,-152.59 212.46,-155.85 206.61,-147.02 202.37,-152.59"/>
</a>
</g>
</g>
<!-- Node4 -->
<g id="Node000004" class="node">
<title>Node4</title>
<g id="a_Node000004"><a xlink:href="classleaguewizard_1_1mobalytics_1_1parsers_1_1PerksParser.html" target="_top" xlink:title=" ">
<polygon fill="white" stroke="transparent" points="368,-97.5 193,-97.5 193,-22.5 368,-22.5 368,-97.5"/>
<text text-anchor="start" x="198.5" y="-85" font-family="Helvetica,sans-Serif" font-size="10.00">leaguewizard.mobalytics.parsers.</text>
<text text-anchor="start" x="252" y="-74" font-family="Helvetica,sans-Serif" font-size="10.00">PerksParser</text>
<text text-anchor="start" x="279" y="-59" font-family="Helvetica,sans-Serif" font-size="10.00"> </text>
<text text-anchor="start" x="220.5" y="-44" font-family="Helvetica,sans-Serif" font-size="10.00">+</text>
<text text-anchor="start" x="256.5" y="-44" font-family="Helvetica,sans-Serif" font-size="10.00">parse()</text>
<text text-anchor="start" x="220.5" y="-29" font-family="Helvetica,sans-Serif" font-size="10.00">#</text>
<text text-anchor="start" x="256.5" y="-29" font-family="Helvetica,sans-Serif" font-size="10.00">_get_perks()</text>
<polygon fill="#666666" stroke="#666666" points="193.5,-69 193.5,-69 368.5,-69 368.5,-69 193.5,-69"/>
<polygon fill="#666666" stroke="#666666" points="193.5,-54 193.5,-54 368.5,-54 368.5,-54 193.5,-54"/>
<polygon fill="none" stroke="#666666" points="193,-22.5 193,-97.5 368,-97.5 368,-22.5 193,-22.5"/>
</a>
</g>
</g>
<!-- Node2&#45;&gt;Node4 -->
<g id="edge3_Node000002_Node000004" class="edge">
<title>Node2&#45;&gt;Node4</title>
<g id="a_edge3_Node000002_Node000004"><a xlink:title=" ">
<path fill="none" stroke="#63b8ff" d="M280.5,-145.83C280.5,-129.54 280.5,-112.46 280.5,-97.93"/>
<polygon fill="none" stroke="#63b8ff" points="277,-145.85 280.5,-155.85 284,-145.85 277,-145.85"/>
</a>
</g>
</g>
<!-- Node5 -->
<g id="Node000005" class="node">
<title>Node5</title>
<g id="a_Node000005"><a xlink:href="classleaguewizard_1_1mobalytics_1_1parsers_1_1SpellsParser.html" target="_top" xlink:title=" ">
<polygon fill="white" stroke="transparent" points="561,-105 386,-105 386,-15 561,-15 561,-105"/>
<text text-anchor="start" x="391.5" y="-93" font-family="Helvetica,sans-Serif" font-size="10.00">leaguewizard.mobalytics.parsers.</text>
<text text-anchor="start" x="444" y="-82" font-family="Helvetica,sans-Serif" font-size="10.00">SpellsParser</text>
<text text-anchor="start" x="472" y="-67" font-family="Helvetica,sans-Serif" font-size="10.00"> </text>
<text text-anchor="start" x="403.5" y="-52" font-family="Helvetica,sans-Serif" font-size="10.00">+</text>
<text text-anchor="start" x="429.5" y="-52" font-family="Helvetica,sans-Serif" font-size="10.00">parse()</text>
<text text-anchor="start" x="403.5" y="-37" font-family="Helvetica,sans-Serif" font-size="10.00">#</text>
<text text-anchor="start" x="429.5" y="-37" font-family="Helvetica,sans-Serif" font-size="10.00">_get_spells()</text>
<text text-anchor="start" x="403.5" y="-22" font-family="Helvetica,sans-Serif" font-size="10.00">#</text>
<text text-anchor="start" x="429.5" y="-22" font-family="Helvetica,sans-Serif" font-size="10.00">_set_flash_position()</text>
<polygon fill="#666666" stroke="#666666" points="386.5,-77 386.5,-77 561.5,-77 561.5,-77 386.5,-77"/>
<polygon fill="#666666" stroke="#666666" points="386.5,-62 386.5,-62 561.5,-62 561.5,-62 386.5,-62"/>
<polygon fill="none" stroke="#666666" points="386,-15 386,-105 561,-105 561,-15 386,-15"/>
</a>
</g>
</g>
<!-- Node2&#45;&gt;Node5 -->
<g id="edge4_Node000002_Node000005" class="edge">
<title>Node2&#45;&gt;Node5</title>
<g id="a_edge4_Node000002_Node000005"><a xlink:title=" ">
<path fill="none" stroke="#63b8ff" d="M356.55,-149.77C376.11,-134.92 396.85,-119.18 415.34,-105.14"/>
<polygon fill="none" stroke="#63b8ff" points="354.39,-147.02 348.54,-155.85 358.63,-152.59 354.39,-147.02"/>
</a>
</g>
</g>
</g>
</svg>
