<?xml version="1.0" encoding="UTF-8" standalone="no"?>
<!DOCTYPE svg PUBLIC "-//W3C//DTD SVG 1.1//EN"
 "http://www.w3.org/Graphics/SVG/1.1/DTD/svg11.dtd">
<!-- Generated by graphviz version 2.43.0 (0)
 -->
<!-- Title: leaguewizard.core.models.PayloadSpells Pages: 1 -->
<svg width="253pt" height="283pt"
 viewBox="0.00 0.00 253.00 283.00" xmlns="http://www.w3.org/2000/svg" xmlns:xlink="http://www.w3.org/1999/xlink">

<svg id="main" version="1.1" xmlns="http://www.w3.org/2000/svg" xmlns:xlink="http://www.w3.org/1999/xlink" xml:space="preserve">

<style type="text/css"><![CDATA[
.node, .edge {opacity: 0.7;}
.node.selected, .edge.selected {opacity: 1;}
.edge:hover path { stroke: red; }
.edge:hover polygon { stroke: red; fill: red; }
]]></style>
<script type="application/ecmascript" xlink:href="svg.min.js"/>
<svg id="graph" class="graph">
<g id="graph0" class="graph" transform="scale(1 1) rotate(0) translate(4 279)">
<title>leaguewizard.core.models.PayloadSpells</title>
<!-- Node1 -->
<g id="Node000001" class="node">
<title>Node1</title>
<g id="a_Node000001"><a xlink:title=" ">
<polygon fill="#999999" stroke="transparent" points="192,-60 50,-60 50,0 192,0 192,-60"/>
<text text-anchor="start" x="55" y="-48" font-family="Helvetica,sans-Serif" font-size="10.00">leaguewizard.core.models.</text>
<text text-anchor="start" x="87" y="-37" font-family="Helvetica,sans-Serif" font-size="10.00">PayloadSpells</text>
<text text-anchor="start" x="119" y="-22" font-family="Helvetica,sans-Serif" font-size="10.00"> </text>
<text text-anchor="start" x="119" y="-7" font-family="Helvetica,sans-Serif" font-size="10.00"> </text>
<polygon fill="#666666" stroke="#666666" points="50,-32 50,-32 192,-32 192,-32 50,-32"/>
<polygon fill="#666666" stroke="#666666" points="50,-17 50,-17 192,-17 192,-17 50,-17"/>
<polygon fill="none" stroke="#666666" points="50,0 50,-60 192,-60 192,0 50,0"/>
</a>
</g>
</g>
<!-- Node2 -->
<g id="Node000002" class="node">
<title>Node2</title>
<g id="a_Node000002"><a xlink:href="classleaguewizard_1_1core_1_1models_1_1Payload.html" target="_top" xlink:title=" ">
<polygon fill="white" stroke="transparent" points="142,-189 0,-189 0,-129 142,-129 142,-189"/>
<text text-anchor="start" x="5" y="-177" font-family="Helvetica,sans-Serif" font-size="10.00">leaguewizard.core.models.</text>
<text text-anchor="start" x="51.5" y="-166" font-family="Helvetica,sans-Serif" font-size="10.00">Payload</text>
<text text-anchor="start" x="69" y="-151" font-family="Helvetica,sans-Serif" font-size="10.00"> </text>
<text text-anchor="start" x="24" y="-136" font-family="Helvetica,sans-Serif" font-size="10.00">+</text>
<text text-anchor="start" x="57" y="-136" font-family="Helvetica,sans-Serif" font-size="10.00">asjson()</text>
<polygon fill="#666666" stroke="#666666" points="0,-161 0,-161 142,-161 142,-161 0,-161"/>
<polygon fill="#666666" stroke="#666666" points="0,-146 0,-146 142,-146 142,-146 0,-146"/>
<polygon fill="none" stroke="#666666" points="0,-129 0,-189 142,-189 142,-129 0,-129"/>
</a>
</g>
</g>
<!-- Node2&#45;&gt;Node1 -->
<g id="edge1_Node000001_Node000002" class="edge">
<title>Node2&#45;&gt;Node1</title>
<g id="a_edge1_Node000001_Node000002"><a xlink:title=" ">
<path fill="none" stroke="#63b8ff" d="M86.15,-119.52C93.68,-100.38 102.64,-77.64 109.58,-60"/>
<polygon fill="none" stroke="#63b8ff" points="82.88,-118.28 82.47,-128.86 89.39,-120.84 82.88,-118.28"/>
</a>
</g>
</g>
<!-- Node3 -->
<g id="Node000003" class="node">
<title>Node3</title>
<g id="a_Node000003"><a xlink:href="classBaseModel.html" target="_top" xlink:title=" ">
<polygon fill="white" stroke="transparent" points="103.5,-275 38.5,-275 38.5,-226 103.5,-226 103.5,-275"/>
<text text-anchor="start" x="44" y="-262.5" font-family="Helvetica,sans-Serif" font-size="10.00">BaseModel</text>
<text text-anchor="start" x="69.5" y="-247.5" font-family="Helvetica,sans-Serif" font-size="10.00"> </text>
<text text-anchor="start" x="69.5" y="-232.5" font-family="Helvetica,sans-Serif" font-size="10.00"> </text>
<polygon fill="#666666" stroke="#666666" points="39,-257.5 39,-257.5 104,-257.5 104,-257.5 39,-257.5"/>
<polygon fill="#666666" stroke="#666666" points="39,-242.5 39,-242.5 104,-242.5 104,-242.5 39,-242.5"/>
<polygon fill="none" stroke="#666666" points="38.5,-226 38.5,-275 103.5,-275 103.5,-226 38.5,-226"/>
</a>
</g>
</g>
<!-- Node3&#45;&gt;Node2 -->
<g id="edge2_Node000002_Node000003" class="edge">
<title>Node3&#45;&gt;Node2</title>
<g id="a_edge2_Node000002_Node000003"><a xlink:title=" ">
<path fill="none" stroke="#63b8ff" d="M71,-215.7C71,-206.95 71,-197.6 71,-189.12"/>
<polygon fill="none" stroke="#63b8ff" points="67.5,-215.98 71,-225.98 74.5,-215.98 67.5,-215.98"/>
</a>
</g>
</g>
<!-- Node4 -->
<g id="Node000004" class="node">
<title>Node4</title>
<g id="a_Node000004"><a xlink:title=" ">
<polygon fill="white" stroke="transparent" points="183.5,-183.5 160.5,-183.5 160.5,-134.5 183.5,-134.5 183.5,-183.5"/>
<text text-anchor="start" x="166" y="-171" font-family="Helvetica,sans-Serif" font-size="10.00">int</text>
<text text-anchor="start" x="170.5" y="-156" font-family="Helvetica,sans-Serif" font-size="10.00"> </text>
<text text-anchor="start" x="170.5" y="-141" font-family="Helvetica,sans-Serif" font-size="10.00"> </text>
<polygon fill="#666666" stroke="#666666" points="161,-166 161,-166 184,-166 184,-166 161,-166"/>
<polygon fill="#666666" stroke="#666666" points="161,-151 161,-151 184,-151 184,-151 161,-151"/>
<polygon fill="none" stroke="#666666" points="160.5,-134.5 160.5,-183.5 183.5,-183.5 183.5,-134.5 160.5,-134.5"/>
</a>
</g>
</g>
<!-- Node4&#45;&gt;Node1 -->
<g id="edge3_Node000001_Node000004" class="edge">
<title>Node4&#45;&gt;Node1</title>
<g id="a_edge3_Node000001_Node000004"><a xlink:title=" ">
<path fill="none" stroke="#63b8ff" d="M162.53,-134.41C155.46,-116.82 145.64,-92.35 137.32,-71.64"/>
<polygon fill="none" stroke="#63b8ff" points="137.23,-71.4 131.28,-67.33 132.75,-60.27 138.7,-64.35 137.23,-71.4"/>
</a>
</g>
<text text-anchor="middle" x="198.5" y="-103" font-family="Helvetica,sans-Serif" font-size="10.00" fill="grey"> +selected_skin_id</text>
<text text-anchor="middle" x="198.5" y="-92" font-family="Helvetica,sans-Serif" font-size="10.00" fill="grey">+spell1_id</text>
<text text-anchor="middle" x="198.5" y="-81" font-family="Helvetica,sans-Serif" font-size="10.00" fill="grey">+spell2_id</text>
</g>
</g>
</svg>
</svg>

<style type='text/css'>
<![CDATA[
[data-mouse-over-selected='false'] { opacity: 0.7; }
[data-mouse-over-selected='true']  { opacity: 1.0; }
]]>
</style>
<script type="application/ecmascript"><![CDATA[
document.addEventListener('DOMContentLoaded', (event) => {
  highlightEdges();
  highlightAdjacentNodes();
});
]]></script>
</svg>
