<?xml version="1.0" encoding="UTF-8" standalone="no"?>
<!DOCTYPE svg PUBLIC "-//W3C//DTD SVG 1.1//EN"
 "http://www.w3.org/Graphics/SVG/1.1/DTD/svg11.dtd">
<!-- Generated by graphviz version 2.43.0 (0)
 -->
<!-- Title: leaguewizard.core.models.Ally Pages: 1 -->
<svg width="391pt" height="294pt"
 viewBox="0.00 0.00 391.00 294.00" xmlns="http://www.w3.org/2000/svg" xmlns:xlink="http://www.w3.org/1999/xlink">
<g id="graph0" class="graph" transform="scale(1 1) rotate(0) translate(4 290)">
<title>leaguewizard.core.models.Ally</title>
<!-- Node1 -->
<g id="Node000001" class="node">
<title>Node1</title>
<g id="a_Node000001"><a xlink:title=" ">
<polygon fill="#999999" stroke="transparent" points="252.5,-49 91.5,-49 91.5,0 252.5,0 252.5,-49"/>
<text text-anchor="start" x="97" y="-36.5" font-family="Helvetica,sans-Serif" font-size="10.00">leaguewizard.core.models.Ally</text>
<text text-anchor="start" x="170.5" y="-21.5" font-family="Helvetica,sans-Serif" font-size="10.00"> </text>
<text text-anchor="start" x="170.5" y="-6.5" font-family="Helvetica,sans-Serif" font-size="10.00"> </text>
<polygon fill="#666666" stroke="#666666" points="92,-31.5 92,-31.5 253,-31.5 253,-31.5 92,-31.5"/>
<polygon fill="#666666" stroke="#666666" points="92,-16.5 92,-16.5 253,-16.5 253,-16.5 92,-16.5"/>
<polygon fill="none" stroke="#666666" points="91.5,0 91.5,-49 252.5,-49 252.5,0 91.5,0"/>
</a>
</g>
</g>
<!-- Node2 -->
<g id="Node000002" class="node">
<title>Node2</title>
<g id="a_Node000002"><a xlink:href="classleaguewizard_1_1core_1_1models_1_1Payload.html" target="_top" xlink:title=" ">
<polygon fill="white" stroke="transparent" points="142,-200 0,-200 0,-140 142,-140 142,-200"/>
<text text-anchor="start" x="5" y="-188" font-family="Helvetica,sans-Serif" font-size="10.00">leaguewizard.core.models.</text>
<text text-anchor="start" x="51.5" y="-177" font-family="Helvetica,sans-Serif" font-size="10.00">Payload</text>
<text text-anchor="start" x="69" y="-162" font-family="Helvetica,sans-Serif" font-size="10.00"> </text>
<text text-anchor="start" x="24" y="-147" font-family="Helvetica,sans-Serif" font-size="10.00">+</text>
<text text-anchor="start" x="57" y="-147" font-family="Helvetica,sans-Serif" font-size="10.00">asjson()</text>
<polygon fill="#666666" stroke="#666666" points="0,-172 0,-172 142,-172 142,-172 0,-172"/>
<polygon fill="#666666" stroke="#666666" points="0,-157 0,-157 142,-157 142,-157 0,-157"/>
<polygon fill="none" stroke="#666666" points="0,-140 0,-200 142,-200 142,-140 0,-140"/>
</a>
</g>
</g>
<!-- Node2&#45;&gt;Node1 -->
<g id="edge1_Node000001_Node000002" class="edge">
<title>Node2&#45;&gt;Node1</title>
<g id="a_edge1_Node000001_Node000002"><a xlink:title=" ">
<path fill="none" stroke="#63b8ff" d="M97.41,-131.47C115.72,-105.47 139.53,-71.63 155.27,-49.27"/>
<polygon fill="none" stroke="#63b8ff" points="94.33,-129.77 91.44,-139.96 100.06,-133.8 94.33,-129.77"/>
</a>
</g>
</g>
<!-- Node3 -->
<g id="Node000003" class="node">
<title>Node3</title>
<g id="a_Node000003"><a xlink:href="classBaseModel.html" target="_top" xlink:title=" ">
<polygon fill="white" stroke="transparent" points="103.5,-286 38.5,-286 38.5,-237 103.5,-237 103.5,-286"/>
<text text-anchor="start" x="44" y="-273.5" font-family="Helvetica,sans-Serif" font-size="10.00">BaseModel</text>
<text text-anchor="start" x="69.5" y="-258.5" font-family="Helvetica,sans-Serif" font-size="10.00"> </text>
<text text-anchor="start" x="69.5" y="-243.5" font-family="Helvetica,sans-Serif" font-size="10.00"> </text>
<polygon fill="#666666" stroke="#666666" points="39,-268.5 39,-268.5 104,-268.5 104,-268.5 39,-268.5"/>
<polygon fill="#666666" stroke="#666666" points="39,-253.5 39,-253.5 104,-253.5 104,-253.5 39,-253.5"/>
<polygon fill="none" stroke="#666666" points="38.5,-237 38.5,-286 103.5,-286 103.5,-237 38.5,-237"/>
</a>
</g>
</g>
<!-- Node3&#45;&gt;Node2 -->
<g id="edge2_Node000002_Node000003" class="edge">
<title>Node3&#45;&gt;Node2</title>
<g id="a_edge2_Node000002_Node000003"><a xlink:title=" ">
<path fill="none" stroke="#63b8ff" d="M71,-226.7C71,-217.95 71,-208.6 71,-200.12"/>
<polygon fill="none" stroke="#63b8ff" points="67.5,-226.98 71,-236.98 74.5,-226.98 67.5,-226.98"/>
</a>
</g>
</g>
<!-- Node4 -->
<g id="Node000004" class="node">
<title>Node4</title>
<g id="a_Node000004"><a xlink:title=" ">
<polygon fill="white" stroke="transparent" points="183.5,-194.5 160.5,-194.5 160.5,-145.5 183.5,-145.5 183.5,-194.5"/>
<text text-anchor="start" x="166" y="-182" font-family="Helvetica,sans-Serif" font-size="10.00">str</text>
<text text-anchor="start" x="170.5" y="-167" font-family="Helvetica,sans-Serif" font-size="10.00"> </text>
<text text-anchor="start" x="170.5" y="-152" font-family="Helvetica,sans-Serif" font-size="10.00"> </text>
<polygon fill="#666666" stroke="#666666" points="161,-177 161,-177 184,-177 184,-177 161,-177"/>
<polygon fill="#666666" stroke="#666666" points="161,-162 161,-162 184,-162 184,-162 161,-162"/>
<polygon fill="none" stroke="#666666" points="160.5,-145.5 160.5,-194.5 183.5,-194.5 183.5,-145.5 160.5,-145.5"/>
</a>
</g>
</g>
<!-- Node4&#45;&gt;Node1 -->
<g id="edge3_Node000001_Node000004" class="edge">
<title>Node4&#45;&gt;Node1</title>
<g id="a_edge3_Node000001_Node000004"><a xlink:title=" ">
<path fill="none" stroke="#63b8ff" d="M172,-145.3C172,-122.45 172,-87.57 172,-61.33"/>
<polygon fill="none" stroke="#63b8ff" points="172,-61.23 168,-55.23 172,-49.23 176,-55.23 172,-61.23"/>
</a>
</g>
<text text-anchor="middle" x="222" y="-92" font-family="Helvetica,sans-Serif" font-size="10.00" fill="grey"> +assigned_position</text>
</g>
<!-- Node5 -->
<g id="Node000005" class="node">
<title>Node5</title>
<g id="a_Node000005"><a xlink:title=" ">
<polygon fill="white" stroke="transparent" points="306.5,-194.5 283.5,-194.5 283.5,-145.5 306.5,-145.5 306.5,-194.5"/>
<text text-anchor="start" x="289" y="-182" font-family="Helvetica,sans-Serif" font-size="10.00">int</text>
<text text-anchor="start" x="293.5" y="-167" font-family="Helvetica,sans-Serif" font-size="10.00"> </text>
<text text-anchor="start" x="293.5" y="-152" font-family="Helvetica,sans-Serif" font-size="10.00"> </text>
<polygon fill="#666666" stroke="#666666" points="284,-177 284,-177 307,-177 307,-177 284,-177"/>
<polygon fill="#666666" stroke="#666666" points="284,-162 284,-162 307,-162 307,-162 284,-162"/>
<polygon fill="none" stroke="#666666" points="283.5,-145.5 283.5,-194.5 306.5,-194.5 306.5,-145.5 283.5,-145.5"/>
</a>
</g>
</g>
<!-- Node5&#45;&gt;Node1 -->
<g id="edge4_Node000001_Node000005" class="edge">
<title>Node5&#45;&gt;Node1</title>
<g id="a_edge4_Node000001_Node000005"><a xlink:title=" ">
<path fill="none" stroke="#63b8ff" d="M295.87,-145.25C295.44,-122.66 291.37,-88.95 273,-67 269.65,-62.99 265.85,-59.37 261.73,-56.09"/>
<polygon fill="none" stroke="#63b8ff" points="261.47,-55.91 254.26,-55.76 251.62,-49.05 258.83,-49.19 261.47,-55.91"/>
</a>
</g>
<text text-anchor="middle" x="338" y="-114" font-family="Helvetica,sans-Serif" font-size="10.00" fill="grey"> +cell_id</text>
<text text-anchor="middle" x="338" y="-103" font-family="Helvetica,sans-Serif" font-size="10.00" fill="grey">+champion_id</text>
<text text-anchor="middle" x="338" y="-92" font-family="Helvetica,sans-Serif" font-size="10.00" fill="grey">+selected_skin_id</text>
<text text-anchor="middle" x="338" y="-81" font-family="Helvetica,sans-Serif" font-size="10.00" fill="grey">+summoner_id</text>
<text text-anchor="middle" x="338" y="-70" font-family="Helvetica,sans-Serif" font-size="10.00" fill="grey">+ward_skin_id</text>
</g>
</g>
</svg>
