<?xml version="1.0" encoding="UTF-8" standalone="no"?>
<!DOCTYPE svg PUBLIC "-//W3C//DTD SVG 1.1//EN"
 "http://www.w3.org/Graphics/SVG/1.1/DTD/svg11.dtd">
<!-- Generated by graphviz version 2.43.0 (0)
 -->
<!-- Title: leaguewizard.core.models.ItemSet Pages: 1 -->
<svg width="293pt" height="272pt"
 viewBox="0.00 0.00 293.00 272.00" xmlns="http://www.w3.org/2000/svg" xmlns:xlink="http://www.w3.org/1999/xlink">
<g id="graph0" class="graph" transform="scale(1 1) rotate(0) translate(4 268)">
<title>leaguewizard.core.models.ItemSet</title>
<!-- Node1 -->
<g id="Node000001" class="node">
<title>Node1</title>
<g id="a_Node000001"><a xlink:title=" ">
<polygon fill="#999999" stroke="transparent" points="218,-60 76,-60 76,0 218,0 218,-60"/>
<text text-anchor="start" x="81" y="-48" font-family="Helvetica,sans-Serif" font-size="10.00">leaguewizard.core.models.</text>
<text text-anchor="start" x="127.5" y="-37" font-family="Helvetica,sans-Serif" font-size="10.00">ItemSet</text>
<text text-anchor="start" x="145" y="-22" font-family="Helvetica,sans-Serif" font-size="10.00"> </text>
<text text-anchor="start" x="145" y="-7" font-family="Helvetica,sans-Serif" font-size="10.00"> </text>
<polygon fill="#666666" stroke="#666666" points="76,-32 76,-32 218,-32 218,-32 76,-32"/>
<polygon fill="#666666" stroke="#666666" points="76,-17 76,-17 218,-17 218,-17 76,-17"/>
<polygon fill="none" stroke="#666666" points="76,0 76,-60 218,-60 218,0 76,0"/>
</a>
</g>
</g>
<!-- Node2 -->
<g id="Node000002" class="node">
<title>Node2</title>
<g id="a_Node000002"><a xlink:href="classleaguewizard_1_1core_1_1models_1_1Payload.html" target="_top" xlink:title=" ">
<polygon fill="white" stroke="transparent" points="142,-178 0,-178 0,-118 142,-118 142,-178"/>
<text text-anchor="start" x="5" y="-166" font-family="Helvetica,sans-Serif" font-size="10.00">leaguewizard.core.models.</text>
<text text-anchor="start" x="51.5" y="-155" font-family="Helvetica,sans-Serif" font-size="10.00">Payload</text>
<text text-anchor="start" x="69" y="-140" font-family="Helvetica,sans-Serif" font-size="10.00"> </text>
<text text-anchor="start" x="24" y="-125" font-family="Helvetica,sans-Serif" font-size="10.00">+</text>
<text text-anchor="start" x="57" y="-125" font-family="Helvetica,sans-Serif" font-size="10.00">asjson()</text>
<polygon fill="#666666" stroke="#666666" points="0,-150 0,-150 142,-150 142,-150 0,-150"/>
<polygon fill="#666666" stroke="#666666" points="0,-135 0,-135 142,-135 142,-135 0,-135"/>
<polygon fill="none" stroke="#666666" points="0,-118 0,-178 142,-178 142,-118 0,-118"/>
</a>
</g>
</g>
<!-- Node2&#45;&gt;Node1 -->
<g id="edge1_Node000001_Node000002" class="edge">
<title>Node2&#45;&gt;Node1</title>
<g id="a_edge1_Node000001_Node000002"><a xlink:title=" ">
<path fill="none" stroke="#63b8ff" d="M95.78,-109.18C106.19,-93.29 118.11,-75.1 127.83,-60.26"/>
<polygon fill="none" stroke="#63b8ff" points="92.73,-107.45 90.18,-117.73 98.59,-111.28 92.73,-107.45"/>
</a>
</g>
</g>
<!-- Node3 -->
<g id="Node000003" class="node">
<title>Node3</title>
<g id="a_Node000003"><a xlink:href="classBaseModel.html" target="_top" xlink:title=" ">
<polygon fill="white" stroke="transparent" points="103.5,-264 38.5,-264 38.5,-215 103.5,-215 103.5,-264"/>
<text text-anchor="start" x="44" y="-251.5" font-family="Helvetica,sans-Serif" font-size="10.00">BaseModel</text>
<text text-anchor="start" x="69.5" y="-236.5" font-family="Helvetica,sans-Serif" font-size="10.00"> </text>
<text text-anchor="start" x="69.5" y="-221.5" font-family="Helvetica,sans-Serif" font-size="10.00"> </text>
<polygon fill="#666666" stroke="#666666" points="39,-246.5 39,-246.5 104,-246.5 104,-246.5 39,-246.5"/>
<polygon fill="#666666" stroke="#666666" points="39,-231.5 39,-231.5 104,-231.5 104,-231.5 39,-231.5"/>
<polygon fill="none" stroke="#666666" points="38.5,-215 38.5,-264 103.5,-264 103.5,-215 38.5,-215"/>
</a>
</g>
</g>
<!-- Node3&#45;&gt;Node2 -->
<g id="edge2_Node000002_Node000003" class="edge">
<title>Node3&#45;&gt;Node2</title>
<g id="a_edge2_Node000002_Node000003"><a xlink:title=" ">
<path fill="none" stroke="#63b8ff" d="M71,-204.7C71,-195.95 71,-186.6 71,-178.12"/>
<polygon fill="none" stroke="#63b8ff" points="67.5,-204.98 71,-214.98 74.5,-204.98 67.5,-204.98"/>
</a>
</g>
</g>
<!-- Node4 -->
<g id="Node000004" class="node">
<title>Node4</title>
<g id="a_Node000004"><a xlink:title=" ">
<polygon fill="white" stroke="transparent" points="186,-172.5 160,-172.5 160,-123.5 186,-123.5 186,-172.5"/>
<text text-anchor="start" x="165" y="-160" font-family="Helvetica,sans-Serif" font-size="10.00">list</text>
<text text-anchor="start" x="171" y="-145" font-family="Helvetica,sans-Serif" font-size="10.00"> </text>
<text text-anchor="start" x="171" y="-130" font-family="Helvetica,sans-Serif" font-size="10.00"> </text>
<polygon fill="#666666" stroke="#666666" points="160,-155 160,-155 186,-155 186,-155 160,-155"/>
<polygon fill="#666666" stroke="#666666" points="160,-140 160,-140 186,-140 186,-140 160,-140"/>
<polygon fill="none" stroke="#666666" points="160,-123.5 160,-172.5 186,-172.5 186,-123.5 160,-123.5"/>
</a>
</g>
</g>
<!-- Node4&#45;&gt;Node1 -->
<g id="edge3_Node000001_Node000004" class="edge">
<title>Node4&#45;&gt;Node1</title>
<g id="a_edge3_Node000001_Node000004"><a xlink:title=" ">
<path fill="none" stroke="#63b8ff" d="M167.68,-123.25C164.38,-108.52 160.05,-89.22 156.21,-72.07"/>
<polygon fill="none" stroke="#63b8ff" points="156.14,-71.78 150.92,-66.8 153.52,-60.07 158.73,-65.05 156.14,-71.78"/>
</a>
</g>
<text text-anchor="middle" x="223.5" y="-92" font-family="Helvetica,sans-Serif" font-size="10.00" fill="grey"> +associated_champions</text>
<text text-anchor="middle" x="223.5" y="-81" font-family="Helvetica,sans-Serif" font-size="10.00" fill="grey">+blocks</text>
</g>
</g>
</svg>
