<?xml version="1.0" encoding="UTF-8" standalone="no"?>
<!DOCTYPE svg PUBLIC "-//W3C//DTD SVG 1.1//EN"
 "http://www.w3.org/Graphics/SVG/1.1/DTD/svg11.dtd">
<!-- Generated by graphviz version 2.43.0 (0)
 -->
<!-- Title: leaguewizard.core.models.Action Pages: 1 -->
<svg width="232pt" height="272pt"
 viewBox="0.00 0.00 232.00 272.00" xmlns="http://www.w3.org/2000/svg" xmlns:xlink="http://www.w3.org/1999/xlink">

<svg id="main" version="1.1" xmlns="http://www.w3.org/2000/svg" xmlns:xlink="http://www.w3.org/1999/xlink" xml:space="preserve">

<style type="text/css"><![CDATA[
.node, .edge {opacity: 0.7;}
.node.selected, .edge.selected {opacity: 1;}
.edge:hover path { stroke: red; }
.edge:hover polygon { stroke: red; fill: red; }
]]></style>
<script type="application/ecmascript" xlink:href="svg.min.js"/>
<svg id="graph" class="graph">
<g id="graph0" class="graph" transform="scale(1 1) rotate(0) translate(4 268)">
<title>leaguewizard.core.models.Action</title>
<!-- Node1 -->
<g id="Node000001" class="node">
<title>Node1</title>
<g id="a_Node000001"><a xlink:title=" ">
<polygon fill="#999999" stroke="transparent" points="192,-60 50,-60 50,0 192,0 192,-60"/>
<text text-anchor="start" x="55" y="-48" font-family="Helvetica,sans-Serif" font-size="10.00">leaguewizard.core.models.</text>
<text text-anchor="start" x="105.5" y="-37" font-family="Helvetica,sans-Serif" font-size="10.00">Action</text>
<text text-anchor="start" x="119" y="-22" font-family="Helvetica,sans-Serif" font-size="10.00"> </text>
<text text-anchor="start" x="119" y="-7" font-family="Helvetica,sans-Serif" font-size="10.00"> </text>
<polygon fill="#666666" stroke="#666666" points="50,-32 50,-32 192,-32 192,-32 50,-32"/>
<polygon fill="#666666" stroke="#666666" points="50,-17 50,-17 192,-17 192,-17 50,-17"/>
<polygon fill="none" stroke="#666666" points="50,0 50,-60 192,-60 192,0 50,0"/>
</a>
</g>
</g>
<!-- Node2 -->
<g id="Node000002" class="node">
<title>Node2</title>
<g id="a_Node000002"><a xlink:href="classleaguewizard_1_1core_1_1models_1_1Payload.html" target="_top" xlink:title=" ">
<polygon fill="white" stroke="transparent" points="142,-178 0,-178 0,-118 142,-118 142,-178"/>
<text text-anchor="start" x="5" y="-166" font-family="Helvetica,sans-Serif" font-size="10.00">leaguewizard.core.models.</text>
<text text-anchor="start" x="51.5" y="-155" font-family="Helvetica,sans-Serif" font-size="10.00">Payload</text>
<text text-anchor="start" x="69" y="-140" font-family="Helvetica,sans-Serif" font-size="10.00"> </text>
<text text-anchor="start" x="24" y="-125" font-family="Helvetica,sans-Serif" font-size="10.00">+</text>
<text text-anchor="start" x="57" y="-125" font-family="Helvetica,sans-Serif" font-size="10.00">asjson()</text>
<polygon fill="#666666" stroke="#666666" points="0,-150 0,-150 142,-150 142,-150 0,-150"/>
<polygon fill="#666666" stroke="#666666" points="0,-135 0,-135 142,-135 142,-135 0,-135"/>
<polygon fill="none" stroke="#666666" points="0,-118 0,-178 142,-178 142,-118 0,-118"/>
</a>
</g>
</g>
<!-- Node2&#45;&gt;Node1 -->
<g id="edge1_Node000001_Node000002" class="edge">
<title>Node2&#45;&gt;Node1</title>
<g id="a_edge1_Node000001_Node000002"><a xlink:title=" ">
<path fill="none" stroke="#63b8ff" d="M87.68,-108.29C94.44,-92.62 102.11,-74.82 108.39,-60.26"/>
<polygon fill="none" stroke="#63b8ff" points="84.36,-107.16 83.62,-117.73 90.79,-109.93 84.36,-107.16"/>
</a>
</g>
</g>
<!-- Node3 -->
<g id="Node000003" class="node">
<title>Node3</title>
<g id="a_Node000003"><a xlink:href="classBaseModel.html" target="_top" xlink:title=" ">
<polygon fill="white" stroke="transparent" points="103.5,-264 38.5,-264 38.5,-215 103.5,-215 103.5,-264"/>
<text text-anchor="start" x="44" y="-251.5" font-family="Helvetica,sans-Serif" font-size="10.00">BaseModel</text>
<text text-anchor="start" x="69.5" y="-236.5" font-family="Helvetica,sans-Serif" font-size="10.00"> </text>
<text text-anchor="start" x="69.5" y="-221.5" font-family="Helvetica,sans-Serif" font-size="10.00"> </text>
<polygon fill="#666666" stroke="#666666" points="39,-246.5 39,-246.5 104,-246.5 104,-246.5 39,-246.5"/>
<polygon fill="#666666" stroke="#666666" points="39,-231.5 39,-231.5 104,-231.5 104,-231.5 39,-231.5"/>
<polygon fill="none" stroke="#666666" points="38.5,-215 38.5,-264 103.5,-264 103.5,-215 38.5,-215"/>
</a>
</g>
</g>
<!-- Node3&#45;&gt;Node2 -->
<g id="edge2_Node000002_Node000003" class="edge">
<title>Node3&#45;&gt;Node2</title>
<g id="a_edge2_Node000002_Node000003"><a xlink:title=" ">
<path fill="none" stroke="#63b8ff" d="M71,-204.7C71,-195.95 71,-186.6 71,-178.12"/>
<polygon fill="none" stroke="#63b8ff" points="67.5,-204.98 71,-214.98 74.5,-204.98 67.5,-204.98"/>
</a>
</g>
</g>
<!-- Node4 -->
<g id="Node000004" class="node">
<title>Node4</title>
<g id="a_Node000004"><a xlink:title=" ">
<polygon fill="white" stroke="transparent" points="183.5,-172.5 160.5,-172.5 160.5,-123.5 183.5,-123.5 183.5,-172.5"/>
<text text-anchor="start" x="166" y="-160" font-family="Helvetica,sans-Serif" font-size="10.00">int</text>
<text text-anchor="start" x="170.5" y="-145" font-family="Helvetica,sans-Serif" font-size="10.00"> </text>
<text text-anchor="start" x="170.5" y="-130" font-family="Helvetica,sans-Serif" font-size="10.00"> </text>
<polygon fill="#666666" stroke="#666666" points="161,-155 161,-155 184,-155 184,-155 161,-155"/>
<polygon fill="#666666" stroke="#666666" points="161,-140 161,-140 184,-140 184,-140 161,-140"/>
<polygon fill="none" stroke="#666666" points="160.5,-123.5 160.5,-172.5 183.5,-172.5 183.5,-123.5 160.5,-123.5"/>
</a>
</g>
</g>
<!-- Node4&#45;&gt;Node1 -->
<g id="edge3_Node000001_Node000004" class="edge">
<title>Node4&#45;&gt;Node1</title>
<g id="a_edge3_Node000001_Node000004"><a xlink:title=" ">
<path fill="none" stroke="#63b8ff" d="M161.56,-123.25C154.96,-108.24 146.27,-88.47 138.62,-71.08"/>
<polygon fill="none" stroke="#63b8ff" points="138.61,-71.05 132.53,-67.17 133.78,-60.07 139.86,-63.95 138.61,-71.05"/>
</a>
</g>
<text text-anchor="middle" x="187.5" y="-92" font-family="Helvetica,sans-Serif" font-size="10.00" fill="grey"> +actor_cell_id</text>
<text text-anchor="middle" x="187.5" y="-81" font-family="Helvetica,sans-Serif" font-size="10.00" fill="grey">+champion_id</text>
</g>
</g>
</svg>
</svg>

<style type='text/css'>
<![CDATA[
[data-mouse-over-selected='false'] { opacity: 0.7; }
[data-mouse-over-selected='true']  { opacity: 1.0; }
]]>
</style>
<script type="application/ecmascript"><![CDATA[
document.addEventListener('DOMContentLoaded', (event) => {
  highlightEdges();
  highlightAdjacentNodes();
});
]]></script>
</svg>
