<?xml version="1.0" encoding="UTF-8" standalone="no"?>
<!DOCTYPE svg PUBLIC "-//W3C//DTD SVG 1.1//EN"
 "http://www.w3.org/Graphics/SVG/1.1/DTD/svg11.dtd">
<!-- Generated by graphviz version 2.43.0 (0)
 -->
<!-- Title: Graphical Class Hierarchy Pages: 1 -->
<svg width="488pt" height="316pt"
 viewBox="0.00 0.00 488.00 316.00" xmlns="http://www.w3.org/2000/svg" xmlns:xlink="http://www.w3.org/1999/xlink">
<g id="graph0" class="graph" transform="scale(1 1) rotate(0) translate(4 312)">
<title>Graphical Class Hierarchy</title>
<!-- Node0 -->
<g id="Node000000" class="node">
<title>Node0</title>
<g id="a_Node000000"><a xlink:href="classBaseModel.html" target="_top" xlink:title=" ">
<polygon fill="white" stroke="#666666" points="71,-232.5 0,-232.5 0,-213.5 71,-213.5 71,-232.5"/>
<text text-anchor="middle" x="35.5" y="-220.5" font-family="Helvetica,sans-Serif" font-size="10.00">BaseModel</text>
</a>
</g>
</g>
<!-- Node1 -->
<g id="Node000001" class="node">
<title>Node1</title>
<g id="a_Node000001"><a xlink:href="classleaguewizard_1_1api_1_1models_1_1SummonerData.html" target="_top" xlink:title=" ">
<polygon fill="white" stroke="#666666" points="263,-308 121,-308 121,-278 263,-278 263,-308"/>
<text text-anchor="start" x="129" y="-296" font-family="Helvetica,sans-Serif" font-size="10.00">leaguewizard.api.models.</text>
<text text-anchor="middle" x="192" y="-285" font-family="Helvetica,sans-Serif" font-size="10.00">SummonerData</text>
</a>
</g>
</g>
<!-- Node0&#45;&gt;Node1 -->
<g id="edge5_Node000000_Node000001" class="edge">
<title>Node0&#45;&gt;Node1</title>
<g id="a_edge5_Node000000_Node000001"><a xlink:title=" ">
<path fill="none" stroke="#63b8ff" d="M56.97,-238.73C70.56,-248.55 89.11,-260.84 107,-269 114.31,-272.34 122.2,-275.32 130.11,-277.96"/>
<polygon fill="#63b8ff" stroke="#63b8ff" points="58.94,-235.83 48.82,-232.7 54.78,-241.46 58.94,-235.83"/>
</a>
</g>
</g>
<!-- Node2 -->
<g id="Node000002" class="node">
<title>Node2</title>
<g id="a_Node000002"><a xlink:href="classleaguewizard_1_1core_1_1models_1_1Block.html" target="_top" xlink:title=" ">
<polygon fill="white" stroke="#666666" points="266,-260 118,-260 118,-230 266,-230 266,-260"/>
<text text-anchor="start" x="126" y="-248" font-family="Helvetica,sans-Serif" font-size="10.00">leaguewizard.core.models.</text>
<text text-anchor="middle" x="192" y="-237" font-family="Helvetica,sans-Serif" font-size="10.00">Block</text>
</a>
</g>
</g>
<!-- Node0&#45;&gt;Node2 -->
<g id="edge6_Node000000_Node000002" class="edge">
<title>Node0&#45;&gt;Node2</title>
<g id="a_edge6_Node000000_Node000002"><a xlink:title=" ">
<path fill="none" stroke="#63b8ff" d="M81.33,-229.38C92.79,-231.02 105.42,-232.81 117.9,-234.59"/>
<polygon fill="#63b8ff" stroke="#63b8ff" points="81.57,-225.88 71.17,-227.94 80.58,-232.81 81.57,-225.88"/>
</a>
</g>
</g>
<!-- Node3 -->
<g id="Node000003" class="node">
<title>Node3</title>
<g id="a_Node000003"><a xlink:href="classleaguewizard_1_1core_1_1models_1_1Item.html" target="_top" xlink:title=" ">
<polygon fill="white" stroke="#666666" points="277,-211.5 107,-211.5 107,-192.5 277,-192.5 277,-211.5"/>
<text text-anchor="middle" x="192" y="-199.5" font-family="Helvetica,sans-Serif" font-size="10.00">leaguewizard.core.models.Item</text>
</a>
</g>
</g>
<!-- Node0&#45;&gt;Node3 -->
<g id="edge7_Node000000_Node000003" class="edge">
<title>Node0&#45;&gt;Node3</title>
<g id="a_edge7_Node000000_Node000003"><a xlink:title=" ">
<path fill="none" stroke="#63b8ff" d="M81.26,-216.92C93.7,-215.23 107.51,-213.35 121.03,-211.51"/>
<polygon fill="#63b8ff" stroke="#63b8ff" points="80.61,-213.47 71.17,-218.29 81.55,-220.41 80.61,-213.47"/>
</a>
</g>
</g>
<!-- Node4 -->
<g id="Node000004" class="node">
<title>Node4</title>
<g id="a_Node000004"><a xlink:href="classleaguewizard_1_1core_1_1models_1_1Payload.html" target="_top" xlink:title=" ">
<polygon fill="white" stroke="#666666" points="266,-174 118,-174 118,-144 266,-144 266,-174"/>
<text text-anchor="start" x="126" y="-162" font-family="Helvetica,sans-Serif" font-size="10.00">leaguewizard.core.models.</text>
<text text-anchor="middle" x="192" y="-151" font-family="Helvetica,sans-Serif" font-size="10.00">Payload</text>
</a>
</g>
</g>
<!-- Node0&#45;&gt;Node4 -->
<g id="edge8_Node000000_Node000004" class="edge">
<title>Node0&#45;&gt;Node4</title>
<g id="a_edge8_Node000000_Node000004"><a xlink:title=" ">
<path fill="none" stroke="#63b8ff" d="M60.02,-208.31C73.43,-200.36 90.76,-190.82 107,-184 115.7,-180.35 125.11,-177 134.38,-174.02"/>
<polygon fill="#63b8ff" stroke="#63b8ff" points="58.18,-205.33 51.43,-213.5 61.8,-211.32 58.18,-205.33"/>
</a>
</g>
</g>
<!-- Node5 -->
<g id="Node000005" class="node">
<title>Node5</title>
<g id="a_Node000005"><a xlink:href="classleaguewizard_1_1core_1_1models_1_1Action.html" target="_top" xlink:title=" ">
<polygon fill="white" stroke="#666666" points="470.5,-308 322.5,-308 322.5,-278 470.5,-278 470.5,-308"/>
<text text-anchor="start" x="330.5" y="-296" font-family="Helvetica,sans-Serif" font-size="10.00">leaguewizard.core.models.</text>
<text text-anchor="middle" x="396.5" y="-285" font-family="Helvetica,sans-Serif" font-size="10.00">Action</text>
</a>
</g>
</g>
<!-- Node4&#45;&gt;Node5 -->
<g id="edge9_Node000004_Node000005" class="edge">
<title>Node4&#45;&gt;Node5</title>
<g id="a_edge9_Node000004_Node000005"><a xlink:title=" ">
<path fill="none" stroke="#63b8ff" d="M271.48,-179.59C273.4,-180.97 275.25,-182.43 277,-184 307.58,-211.35 282.34,-241.74 313,-269 316.9,-272.47 321.28,-275.44 325.93,-277.98"/>
<polygon fill="#63b8ff" stroke="#63b8ff" points="272.97,-176.4 262.62,-174.13 269.3,-182.35 272.97,-176.4"/>
</a>
</g>
</g>
<!-- Node6 -->
<g id="Node000006" class="node">
<title>Node6</title>
<g id="a_Node000006"><a xlink:href="classleaguewizard_1_1core_1_1models_1_1Ally.html" target="_top" xlink:title=" ">
<polygon fill="white" stroke="#666666" points="480,-259.5 313,-259.5 313,-240.5 480,-240.5 480,-259.5"/>
<text text-anchor="middle" x="396.5" y="-247.5" font-family="Helvetica,sans-Serif" font-size="10.00">leaguewizard.core.models.Ally</text>
</a>
</g>
</g>
<!-- Node4&#45;&gt;Node6 -->
<g id="edge10_Node000004_Node000006" class="edge">
<title>Node4&#45;&gt;Node6</title>
<g id="a_edge10_Node000004_Node000006"><a xlink:title=" ">
<path fill="none" stroke="#63b8ff" d="M267.84,-178.45C271.02,-180.15 274.09,-182 277,-184 298.67,-198.93 290.87,-216.76 313,-231 319.06,-234.9 325.82,-238 332.79,-240.47"/>
<polygon fill="#63b8ff" stroke="#63b8ff" points="269.16,-175.21 258.63,-174.04 266.14,-181.52 269.16,-175.21"/>
</a>
</g>
</g>
<!-- Node7 -->
<g id="Node000007" class="node">
<title>Node7</title>
<g id="a_Node000007"><a xlink:href="classleaguewizard_1_1core_1_1models_1_1EventSchema.html" target="_top" xlink:title=" ">
<polygon fill="white" stroke="#666666" points="470.5,-222 322.5,-222 322.5,-192 470.5,-192 470.5,-222"/>
<text text-anchor="start" x="330.5" y="-210" font-family="Helvetica,sans-Serif" font-size="10.00">leaguewizard.core.models.</text>
<text text-anchor="middle" x="396.5" y="-199" font-family="Helvetica,sans-Serif" font-size="10.00">EventSchema</text>
</a>
</g>
</g>
<!-- Node4&#45;&gt;Node7 -->
<g id="edge11_Node000004_Node000007" class="edge">
<title>Node4&#45;&gt;Node7</title>
<g id="a_edge11_Node000004_Node000007"><a xlink:title=" ">
<path fill="none" stroke="#63b8ff" d="M266.29,-176.37C287.88,-181.49 311.31,-187.04 332.21,-192"/>
<polygon fill="#63b8ff" stroke="#63b8ff" points="267.05,-172.96 256.52,-174.06 265.44,-179.77 267.05,-172.96"/>
</a>
</g>
</g>
<!-- Node8 -->
<g id="Node000008" class="node">
<title>Node8</title>
<g id="a_Node000008"><a xlink:href="classleaguewizard_1_1core_1_1models_1_1ItemSet.html" target="_top" xlink:title=" ">
<polygon fill="white" stroke="#666666" points="470.5,-174 322.5,-174 322.5,-144 470.5,-144 470.5,-174"/>
<text text-anchor="start" x="330.5" y="-162" font-family="Helvetica,sans-Serif" font-size="10.00">leaguewizard.core.models.</text>
<text text-anchor="middle" x="396.5" y="-151" font-family="Helvetica,sans-Serif" font-size="10.00">ItemSet</text>
</a>
</g>
</g>
<!-- Node4&#45;&gt;Node8 -->
<g id="edge12_Node000004_Node000008" class="edge">
<title>Node4&#45;&gt;Node8</title>
<g id="a_edge12_Node000004_Node000008"><a xlink:title=" ">
<path fill="none" stroke="#63b8ff" d="M276.49,-159C291.64,-159 307.33,-159 322.16,-159"/>
<polygon fill="#63b8ff" stroke="#63b8ff" points="276.11,-155.5 266.11,-159 276.11,-162.5 276.11,-155.5"/>
</a>
</g>
</g>
<!-- Node9 -->
<g id="Node000009" class="node">
<title>Node9</title>
<g id="a_Node000009"><a xlink:href="classleaguewizard_1_1core_1_1models_1_1PayloadItemSets.html" target="_top" xlink:title=" ">
<polygon fill="white" stroke="#666666" points="470.5,-126 322.5,-126 322.5,-96 470.5,-96 470.5,-126"/>
<text text-anchor="start" x="330.5" y="-114" font-family="Helvetica,sans-Serif" font-size="10.00">leaguewizard.core.models.</text>
<text text-anchor="middle" x="396.5" y="-103" font-family="Helvetica,sans-Serif" font-size="10.00">PayloadItemSets</text>
</a>
</g>
</g>
<!-- Node4&#45;&gt;Node9 -->
<g id="edge13_Node000004_Node000009" class="edge">
<title>Node4&#45;&gt;Node9</title>
<g id="a_edge13_Node000004_Node000009"><a xlink:title=" ">
<path fill="none" stroke="#63b8ff" d="M266.29,-141.63C287.88,-136.51 311.31,-130.96 332.21,-126"/>
<polygon fill="#63b8ff" stroke="#63b8ff" points="265.44,-138.23 256.52,-143.94 267.05,-145.04 265.44,-138.23"/>
</a>
</g>
</g>
<!-- Node10 -->
<g id="Node000010" class="node">
<title>Node10</title>
<g id="a_Node000010"><a xlink:href="classleaguewizard_1_1core_1_1models_1_1PayloadPerks.html" target="_top" xlink:title=" ">
<polygon fill="white" stroke="#666666" points="470.5,-78 322.5,-78 322.5,-48 470.5,-48 470.5,-78"/>
<text text-anchor="start" x="330.5" y="-66" font-family="Helvetica,sans-Serif" font-size="10.00">leaguewizard.core.models.</text>
<text text-anchor="middle" x="396.5" y="-55" font-family="Helvetica,sans-Serif" font-size="10.00">PayloadPerks</text>
</a>
</g>
</g>
<!-- Node4&#45;&gt;Node10 -->
<g id="edge14_Node000004_Node000010" class="edge">
<title>Node4&#45;&gt;Node10</title>
<g id="a_edge14_Node000004_Node000010"><a xlink:title=" ">
<path fill="none" stroke="#63b8ff" d="M222.7,-138.22C246.31,-122.45 280.62,-101.14 313,-87 320.52,-83.72 328.61,-80.74 336.69,-78.08"/>
<polygon fill="#63b8ff" stroke="#63b8ff" points="220.53,-135.46 214.21,-143.97 224.45,-141.26 220.53,-135.46"/>
</a>
</g>
</g>
<!-- Node11 -->
<g id="Node000011" class="node">
<title>Node11</title>
<g id="a_Node000011"><a xlink:href="classleaguewizard_1_1core_1_1models_1_1PayloadSpells.html" target="_top" xlink:title=" ">
<polygon fill="white" stroke="#666666" points="470.5,-30 322.5,-30 322.5,0 470.5,0 470.5,-30"/>
<text text-anchor="start" x="330.5" y="-18" font-family="Helvetica,sans-Serif" font-size="10.00">leaguewizard.core.models.</text>
<text text-anchor="middle" x="396.5" y="-7" font-family="Helvetica,sans-Serif" font-size="10.00">PayloadSpells</text>
</a>
</g>
</g>
<!-- Node4&#45;&gt;Node11 -->
<g id="edge15_Node000004_Node000011" class="edge">
<title>Node4&#45;&gt;Node11</title>
<g id="a_edge15_Node000004_Node000011"><a xlink:title=" ">
<path fill="none" stroke="#63b8ff" d="M210.41,-135.5C231.7,-108.39 270.21,-64.31 313,-39 318.78,-35.58 325.07,-32.62 331.53,-30.07"/>
<polygon fill="#63b8ff" stroke="#63b8ff" points="207.45,-133.6 204.12,-143.66 213,-137.88 207.45,-133.6"/>
</a>
</g>
</g>
</g>
</svg>
