<?xml version="1.0" encoding="UTF-8" standalone="no"?>
<!DOCTYPE svg PUBLIC "-//W3C//DTD SVG 1.1//EN"
 "http://www.w3.org/Graphics/SVG/1.1/DTD/svg11.dtd">
<!-- Generated by graphviz version 2.43.0 (0)
 -->
<!-- Title: Graphical Class Hierarchy Pages: 1 -->
<svg width="479pt" height="134pt"
 viewBox="0.00 0.00 479.00 134.00" xmlns="http://www.w3.org/2000/svg" xmlns:xlink="http://www.w3.org/1999/xlink">
<g id="graph0" class="graph" transform="scale(1 1) rotate(0) translate(4 130)">
<title>Graphical Class Hierarchy</title>
<!-- Node0 -->
<g id="Node000000" class="node">
<title>Node0</title>
<g id="a_Node000000"><a xlink:href="classABC.html" target="_top" xlink:title=" ">
<polygon fill="white" stroke="#666666" points="37,-72.5 0,-72.5 0,-53.5 37,-53.5 37,-72.5"/>
<text text-anchor="middle" x="18.5" y="-60.5" font-family="Helvetica,sans-Serif" font-size="10.00">ABC</text>
</a>
</g>
</g>
<!-- Node1 -->
<g id="Node000001" class="node">
<title>Node1</title>
<g id="a_Node000001"><a xlink:href="classleaguewizard_1_1mobalytics_1_1parsers_1_1BaseParser.html" target="_top" xlink:title=" ">
<polygon fill="white" stroke="#666666" points="254,-78 73,-78 73,-48 254,-48 254,-78"/>
<text text-anchor="start" x="81" y="-66" font-family="Helvetica,sans-Serif" font-size="10.00">leaguewizard.mobalytics.parsers.</text>
<text text-anchor="middle" x="163.5" y="-55" font-family="Helvetica,sans-Serif" font-size="10.00">BaseParser</text>
</a>
</g>
</g>
<!-- Node0&#45;&gt;Node1 -->
<g id="edge1_Node000000_Node000001" class="edge">
<title>Node0&#45;&gt;Node1</title>
<g id="a_edge1_Node000000_Node000001"><a xlink:title=" ">
<path fill="none" stroke="#63b8ff" d="M47.08,-63C54.76,-63 63.54,-63 72.75,-63"/>
<polygon fill="#63b8ff" stroke="#63b8ff" points="47.03,-59.5 37.03,-63 47.03,-66.5 47.03,-59.5"/>
</a>
</g>
</g>
<!-- Node2 -->
<g id="Node000002" class="node">
<title>Node2</title>
<g id="a_Node000002"><a xlink:href="classleaguewizard_1_1mobalytics_1_1parsers_1_1ItemsetsParser.html" target="_top" xlink:title=" ">
<polygon fill="white" stroke="#666666" points="471,-126 290,-126 290,-96 471,-96 471,-126"/>
<text text-anchor="start" x="298" y="-114" font-family="Helvetica,sans-Serif" font-size="10.00">leaguewizard.mobalytics.parsers.</text>
<text text-anchor="middle" x="380.5" y="-103" font-family="Helvetica,sans-Serif" font-size="10.00">ItemsetsParser</text>
</a>
</g>
</g>
<!-- Node1&#45;&gt;Node2 -->
<g id="edge2_Node000001_Node000002" class="edge">
<title>Node1&#45;&gt;Node2</title>
<g id="a_edge2_Node000001_Node000002"><a xlink:title=" ">
<path fill="none" stroke="#63b8ff" d="M242,-80.3C265.01,-85.44 290.01,-91.02 312.3,-96"/>
<polygon fill="#63b8ff" stroke="#63b8ff" points="242.46,-76.82 231.94,-78.06 240.93,-83.65 242.46,-76.82"/>
</a>
</g>
</g>
<!-- Node3 -->
<g id="Node000003" class="node">
<title>Node3</title>
<g id="a_Node000003"><a xlink:href="classleaguewizard_1_1mobalytics_1_1parsers_1_1PerksParser.html" target="_top" xlink:title=" ">
<polygon fill="white" stroke="#666666" points="471,-78 290,-78 290,-48 471,-48 471,-78"/>
<text text-anchor="start" x="298" y="-66" font-family="Helvetica,sans-Serif" font-size="10.00">leaguewizard.mobalytics.parsers.</text>
<text text-anchor="middle" x="380.5" y="-55" font-family="Helvetica,sans-Serif" font-size="10.00">PerksParser</text>
</a>
</g>
</g>
<!-- Node1&#45;&gt;Node3 -->
<g id="edge3_Node000001_Node000003" class="edge">
<title>Node1&#45;&gt;Node3</title>
<g id="a_edge3_Node000001_Node000003"><a xlink:title=" ">
<path fill="none" stroke="#63b8ff" d="M264.37,-63C272.81,-63 281.32,-63 289.68,-63"/>
<polygon fill="#63b8ff" stroke="#63b8ff" points="264.12,-59.5 254.12,-63 264.12,-66.5 264.12,-59.5"/>
</a>
</g>
</g>
<!-- Node4 -->
<g id="Node000004" class="node">
<title>Node4</title>
<g id="a_Node000004"><a xlink:href="classleaguewizard_1_1mobalytics_1_1parsers_1_1SpellsParser.html" target="_top" xlink:title=" ">
<polygon fill="white" stroke="#666666" points="471,-30 290,-30 290,0 471,0 471,-30"/>
<text text-anchor="start" x="298" y="-18" font-family="Helvetica,sans-Serif" font-size="10.00">leaguewizard.mobalytics.parsers.</text>
<text text-anchor="middle" x="380.5" y="-7" font-family="Helvetica,sans-Serif" font-size="10.00">SpellsParser</text>
</a>
</g>
</g>
<!-- Node1&#45;&gt;Node4 -->
<g id="edge4_Node000001_Node000004" class="edge">
<title>Node1&#45;&gt;Node4</title>
<g id="a_edge4_Node000001_Node000004"><a xlink:title=" ">
<path fill="none" stroke="#63b8ff" d="M242,-45.7C265.01,-40.56 290.01,-34.98 312.3,-30"/>
<polygon fill="#63b8ff" stroke="#63b8ff" points="240.93,-42.35 231.94,-47.94 242.46,-49.18 240.93,-42.35"/>
</a>
</g>
</g>
</g>
</svg>
