<?xml version="1.0" encoding="UTF-8" standalone="no"?>
<!DOCTYPE svg PUBLIC "-//W3C//DTD SVG 1.1//EN"
 "http://www.w3.org/Graphics/SVG/1.1/DTD/svg11.dtd">
<!-- Generated by graphviz version 2.43.0 (0)
 -->
<!-- Title: leaguewizard.api.callback_handler._get_champion_dict Pages: 1 -->
<svg width="365pt" height="86pt"
 viewBox="0.00 0.00 365.00 86.00" xmlns="http://www.w3.org/2000/svg" xmlns:xlink="http://www.w3.org/1999/xlink">
<g id="graph0" class="graph" transform="scale(1 1) rotate(0) translate(4 82)">
<title>leaguewizard.api.callback_handler._get_champion_dict</title>
<!-- Node1 -->
<g id="Node000001" class="node">
<title>Node1</title>
<g id="a_Node000001"><a xlink:title=" ">
<polygon fill="#999999" stroke="#666666" points="357,-54 199,-54 199,-24 357,-24 357,-54"/>
<text text-anchor="start" x="207" y="-42" font-family="Helvetica,sans-Serif" font-size="10.00">leaguewizard.api.callback</text>
<text text-anchor="middle" x="278" y="-31" font-family="Helvetica,sans-Serif" font-size="10.00">_handler._get_champion_dict</text>
</a>
</g>
</g>
<!-- Node2 -->
<g id="Node000002" class="node">
<title>Node2</title>
<g id="a_Node000002"><a xlink:href="namespaceleaguewizard_1_1api_1_1callback__handler.html#a07ee15ae9a506982f360ddaaa7f4977d" target="_top" xlink:title=" ">
<polygon fill="white" stroke="#666666" points="163,-78 0,-78 0,-48 163,-48 163,-78"/>
<text text-anchor="start" x="8" y="-66" font-family="Helvetica,sans-Serif" font-size="10.00">leaguewizard.api.callback</text>
<text text-anchor="middle" x="81.5" y="-55" font-family="Helvetica,sans-Serif" font-size="10.00">_handler.get_champion_name</text>
</a>
</g>
</g>
<!-- Node1&#45;&gt;Node2 -->
<g id="edge1_Node000001_Node000002" class="edge">
<title>Node1&#45;&gt;Node2</title>
<g id="a_edge1_Node000001_Node000002"><a xlink:title=" ">
<path fill="none" stroke="#63b8ff" d="M188.77,-49.89C180.23,-50.94 171.6,-52.01 163.15,-53.05"/>
<polygon fill="#63b8ff" stroke="#63b8ff" points="189.23,-53.36 198.73,-48.66 188.38,-46.41 189.23,-53.36"/>
</a>
</g>
</g>
<!-- Node3 -->
<g id="Node000003" class="node">
<title>Node3</title>
<g id="a_Node000003"><a xlink:href="namespaceleaguewizard_1_1api_1_1callback__handler.html#afe6575082fa13034d479a11fe8cea0df" target="_top" xlink:title=" ">
<polygon fill="white" stroke="#666666" points="153,-30 10,-30 10,0 153,0 153,-30"/>
<text text-anchor="start" x="18" y="-18" font-family="Helvetica,sans-Serif" font-size="10.00">leaguewizard.api.callback</text>
<text text-anchor="middle" x="81.5" y="-7" font-family="Helvetica,sans-Serif" font-size="10.00">_handler.on_message</text>
</a>
</g>
</g>
<!-- Node1&#45;&gt;Node3 -->
<g id="edge2_Node000001_Node000003" class="edge">
<title>Node1&#45;&gt;Node3</title>
<g id="a_edge2_Node000001_Node000003"><a xlink:title=" ">
<path fill="none" stroke="#63b8ff" d="M188.75,-28.11C176.8,-26.64 164.66,-25.14 153.07,-23.71"/>
<polygon fill="#63b8ff" stroke="#63b8ff" points="188.38,-31.59 198.73,-29.34 189.23,-24.64 188.38,-31.59"/>
</a>
</g>
</g>
</g>
</svg>
