<?xml version="1.0" encoding="UTF-8" standalone="no"?>
<!DOCTYPE svg PUBLIC "-//W3C//DTD SVG 1.1//EN"
 "http://www.w3.org/Graphics/SVG/1.1/DTD/svg11.dtd">
<!-- Generated by graphviz version 2.43.0 (0)
 -->
<!-- Title: leaguewizard.api.callback_handler.on_message Pages: 1 -->
<!--zoomable 230 -->

<svg id="main" version="1.1" xmlns="http://www.w3.org/2000/svg" xmlns:xlink="http://www.w3.org/1999/xlink" xml:space="preserve" onload="init(evt)">

<style type="text/css"><![CDATA[
.node, .edge {opacity: 0.7;}
.node.selected, .edge.selected {opacity: 1;}
.edge:hover path { stroke: red; }
.edge:hover polygon { stroke: red; fill: red; }
]]></style>

<defs>
  <circle id="rim" cx="0" cy="0" r="7"/>
  <circle id="rim2" cx="0" cy="0" r="3.5"/>
  <g id="zoomPlus">
    <use xlink:href="#rim" fill="#404040"><set attributeName="fill" to="#808080" begin="zoomplus.mouseover" end="zoomplus.mouseout"/></use>
    <path d="M-4,0h8M0,-4v8" fill="none" stroke="white" stroke-width="1.5" pointer-events="none"/>
  </g>
  <g id="zoomMin">
    <use xlink:href="#rim" fill="#404040"><set attributeName="fill" to="#808080" begin="zoomminus.mouseover" end="zoomminus.mouseout"/></use>
    <path d="M-4,0h8" fill="none" stroke="white" stroke-width="1.5" pointer-events="none"/>
  </g>
  <g id="arrowUp" transform="translate(30 24)">
    <use xlink:href="#rim"/>
    <path pointer-events="none" fill="none" stroke="white" stroke-width="1.5" d="M0,-3.0v7 M-2.5,-0.5L0,-3.0L2.5,-0.5"/>
  </g>
  <g id="arrowRight" transform="rotate(90) translate(36 -43)">
    <use xlink:href="#rim"/>
    <path pointer-events="none" fill="none" stroke="white" stroke-width="1.5" d="M0,-3.0v7 M-2.5,-0.5L0,-3.0L2.5,-0.5"/>
  </g>
  <g id="arrowDown" transform="rotate(180) translate(-30 -48)">
    <use xlink:href="#rim"/>
    <path pointer-events="none" fill="none" stroke="white" stroke-width="1.5" d="M0,-3.0v7 M-2.5,-0.5L0,-3.0L2.5,-0.5"/>
  </g>
  <g id="arrowLeft" transform="rotate(270) translate(-36 17)">
    <use xlink:href="#rim"/>
    <path pointer-events="none" fill="none" stroke="white" stroke-width="1.5" d="M0,-3.0v7 M-2.5,-0.5L0,-3.0L2.5,-0.5"/>
  </g>
  <g id="resetDef">
    <use xlink:href="#rim2" fill="#404040"><set attributeName="fill" to="#808080" begin="reset.mouseover" end="reset.mouseout"/></use>
  </g>
</defs>
<script type="application/ecmascript">
var viewWidth = 537;
var viewHeight = 230;
var sectionId = 'dynsection-5';
</script>
<script type="application/ecmascript" xlink:href="svg.min.js"/>
<svg id="graph" class="graph">
<g id="viewport">
<title>leaguewizard.api.callback_handler.on_message</title>
<!-- Node1 -->
<g id="Node000001" class="node">
<title>Node1</title>
<g id="a_Node000001"><a xlink:title=" ">
<polygon fill="#999999" stroke="#666666" points="143,-126 0,-126 0,-96 143,-96 143,-126"/>
<text text-anchor="start" x="8" y="-114" font-family="Helvetica,sans-Serif" font-size="10.00">leaguewizard.api.callback</text>
<text text-anchor="middle" x="71.5" y="-103" font-family="Helvetica,sans-Serif" font-size="10.00">_handler.on_message</text>
</a>
</g>
</g>
<!-- Node2 -->
<g id="Node000002" class="node">
<title>Node2</title>
<g id="a_Node000002"><a xlink:href="namespaceleaguewizard_1_1api_1_1callback__handler.html#a5721c8586e4905dbf65067f6a2239575" target="_top" xlink:title=" ">
<polygon fill="white" stroke="#666666" points="337,-222 179,-222 179,-192 337,-192 337,-222"/>
<text text-anchor="start" x="187" y="-210" font-family="Helvetica,sans-Serif" font-size="10.00">leaguewizard.api.callback</text>
<text text-anchor="middle" x="258" y="-199" font-family="Helvetica,sans-Serif" font-size="10.00">_handler._get_champion_dict</text>
</a>
</g>
</g>
<!-- Node1&#45;&gt;Node2 -->
<g id="edge1_Node000001_Node000002" class="edge">
<title>Node1&#45;&gt;Node2</title>
<g id="a_edge1_Node000001_Node000002"><a xlink:title=" ">
<path fill="none" stroke="#63b8ff" d="M91.09,-126.09C111.56,-142.09 145.99,-167.2 179,-183 182.99,-184.91 187.17,-186.71 191.42,-188.4"/>
<polygon fill="#63b8ff" stroke="#63b8ff" points="190.24,-191.7 200.84,-191.92 192.7,-185.14 190.24,-191.7"/>
</a>
</g>
</g>
<!-- Node4 -->
<g id="Node000004" class="node">
<title>Node4</title>
<g id="a_Node000004"><a xlink:href="namespaceleaguewizard_1_1api_1_1callback__handler.html#aeea1d241fa2c5c1593c43604f3be2c77" target="_top" xlink:title=" ">
<polygon fill="white" stroke="#666666" points="337,-174 179,-174 179,-144 337,-144 337,-174"/>
<text text-anchor="start" x="187" y="-162" font-family="Helvetica,sans-Serif" font-size="10.00">leaguewizard.api.callback</text>
<text text-anchor="middle" x="258" y="-151" font-family="Helvetica,sans-Serif" font-size="10.00">_handler.handle_auto_accept</text>
</a>
</g>
</g>
<!-- Node1&#45;&gt;Node4 -->
<g id="edge3_Node000001_Node000004" class="edge">
<title>Node1&#45;&gt;Node4</title>
<g id="a_edge3_Node000001_Node000004"><a xlink:title=" ">
<path fill="none" stroke="#63b8ff" d="M130.37,-126.06C149.18,-130.95 170.2,-136.42 189.64,-141.48"/>
<polygon fill="#63b8ff" stroke="#63b8ff" points="188.78,-144.87 199.33,-144 190.54,-138.09 188.78,-144.87"/>
</a>
</g>
</g>
<!-- Node5 -->
<g id="Node000005" class="node">
<title>Node5</title>
<g id="a_Node000005"><a xlink:href="namespaceleaguewizard_1_1api_1_1callback__handler.html#ae7069e1c4ff33fc39f3ce4f8a49d0ece" target="_top" xlink:title=" ">
<polygon fill="white" stroke="#666666" points="329.5,-126 186.5,-126 186.5,-96 329.5,-96 329.5,-126"/>
<text text-anchor="start" x="194.5" y="-114" font-family="Helvetica,sans-Serif" font-size="10.00">leaguewizard.api.callback</text>
<text text-anchor="middle" x="258" y="-103" font-family="Helvetica,sans-Serif" font-size="10.00">_handler.send_itemsets</text>
</a>
</g>
</g>
<!-- Node1&#45;&gt;Node5 -->
<g id="edge4_Node000001_Node000005" class="edge">
<title>Node1&#45;&gt;Node5</title>
<g id="a_edge4_Node000001_Node000005"><a xlink:title=" ">
<path fill="none" stroke="#63b8ff" d="M143.04,-111C153.95,-111 165.28,-111 176.38,-111"/>
<polygon fill="#63b8ff" stroke="#63b8ff" points="176.5,-114.5 186.5,-111 176.5,-107.5 176.5,-114.5"/>
</a>
</g>
</g>
<!-- Node6 -->
<g id="Node000006" class="node">
<title>Node6</title>
<g id="a_Node000006"><a xlink:href="namespaceleaguewizard_1_1api_1_1callback__handler.html#a974d4adf1ba96f698951f14c48da662a" target="_top" xlink:title=" ">
<polygon fill="white" stroke="#666666" points="329.5,-78 186.5,-78 186.5,-48 329.5,-48 329.5,-78"/>
<text text-anchor="start" x="194.5" y="-66" font-family="Helvetica,sans-Serif" font-size="10.00">leaguewizard.api.callback</text>
<text text-anchor="middle" x="258" y="-55" font-family="Helvetica,sans-Serif" font-size="10.00">_handler.send_perks</text>
</a>
</g>
</g>
<!-- Node1&#45;&gt;Node6 -->
<g id="edge5_Node000001_Node000006" class="edge">
<title>Node1&#45;&gt;Node6</title>
<g id="a_edge5_Node000001_Node000006"><a xlink:title=" ">
<path fill="none" stroke="#63b8ff" d="M130.37,-95.94C149.18,-91.05 170.2,-85.58 189.64,-80.52"/>
<polygon fill="#63b8ff" stroke="#63b8ff" points="190.54,-83.91 199.33,-78 188.78,-77.13 190.54,-83.91"/>
</a>
</g>
</g>
<!-- Node7 -->
<g id="Node000007" class="node">
<title>Node7</title>
<g id="a_Node000007"><a xlink:href="namespaceleaguewizard_1_1api_1_1callback__handler.html#a030482f8549390aeaf684fb3e78067c4" target="_top" xlink:title=" ">
<polygon fill="white" stroke="#666666" points="329.5,-30 186.5,-30 186.5,0 329.5,0 329.5,-30"/>
<text text-anchor="start" x="194.5" y="-18" font-family="Helvetica,sans-Serif" font-size="10.00">leaguewizard.api.callback</text>
<text text-anchor="middle" x="258" y="-7" font-family="Helvetica,sans-Serif" font-size="10.00">_handler.send_spells</text>
</a>
</g>
</g>
<!-- Node1&#45;&gt;Node7 -->
<g id="edge6_Node000001_Node000007" class="edge">
<title>Node1&#45;&gt;Node7</title>
<g id="a_edge6_Node000001_Node000007"><a xlink:title=" ">
<path fill="none" stroke="#63b8ff" d="M91.09,-95.91C111.56,-79.91 145.99,-54.8 179,-39 182.99,-37.09 187.17,-35.29 191.42,-33.6"/>
<polygon fill="#63b8ff" stroke="#63b8ff" points="192.7,-36.86 200.84,-30.08 190.24,-30.3 192.7,-36.86"/>
</a>
</g>
</g>
<!-- Node3 -->
<g id="Node000003" class="node">
<title>Node3</title>
<g id="a_Node000003"><a xlink:href="namespaceleaguewizard_1_1api_1_1callback__handler.html#a06176f37532095e427663de4ea639ac8" target="_top" xlink:title=" ">
<polygon fill="white" stroke="#666666" points="529,-222 373,-222 373,-192 529,-192 529,-222"/>
<text text-anchor="start" x="381" y="-210" font-family="Helvetica,sans-Serif" font-size="10.00">leaguewizard.api.callback</text>
<text text-anchor="middle" x="451" y="-199" font-family="Helvetica,sans-Serif" font-size="10.00">_handler._get_latest_version</text>
</a>
</g>
</g>
<!-- Node2&#45;&gt;Node3 -->
<g id="edge2_Node000002_Node000003" class="edge">
<title>Node2&#45;&gt;Node3</title>
<g id="a_edge2_Node000002_Node000003"><a xlink:title=" ">
<path fill="none" stroke="#63b8ff" d="M337.24,-207C345.59,-207 354.12,-207 362.57,-207"/>
<polygon fill="#63b8ff" stroke="#63b8ff" points="362.81,-210.5 372.81,-207 362.81,-203.5 362.81,-210.5"/>
</a>
</g>
</g>
</g>
</svg>

<g id="navigator" transform="translate(0 0)" fill="#404254">
  <rect fill="#f2f5e9" fill-opacity="0.5" stroke="#606060" stroke-width=".5" x="0" y="0" width="60" height="60"/>
  <use id="zoomplus" xlink:href="#zoomPlus" x="17" y="9" onmousedown="handleZoom(evt,'in')"/>
  <use id="zoomminus" xlink:href="#zoomMin" x="42" y="9" onmousedown="handleZoom(evt,'out')"/>
  <use id="reset" xlink:href="#resetDef" x="30" y="36" onmousedown="handleReset()"/>
   <use id="arrowup" xlink:href="#arrowUp" x="0" y="0" onmousedown="handlePan(0,-1)"/>
  <use id="arrowright" xlink:href="#arrowRight" x="0" y="0" onmousedown="handlePan(1,0)"/>
  <use id="arrowdown" xlink:href="#arrowDown" x="0" y="0" onmousedown="handlePan(0,1)"/>
  <use id="arrowleft" xlink:href="#arrowLeft" x="0" y="0" onmousedown="handlePan(-1,0)"/>
</g>
<svg viewBox="0 0 15 15" width="100%" height="30px" preserveAspectRatio="xMaxYMin meet">
 <g id="arrow_out" transform="scale(0.3 0.3)">
  <a xlink:href="namespaceleaguewizard_1_1api_1_1callback__handler_afe6575082fa13034d479a11fe8cea0df_cgraph_org.svg" target="_base">
   <rect id="button" ry="5" rx="5" y="6" x="6" height="38" width="38"
        fill="#f2f5e9" fill-opacity="0.5" stroke="#606060" stroke-width="1.0"/>
   <path id="arrow"
     d="M 11.500037,31.436501 C 11.940474,20.09759 22.043105,11.32322 32.158766,21.979434 L 37.068811,17.246167 C 37.068811,17.246167 37.088388,32 37.088388,32 L 22.160133,31.978069 C 22.160133,31.978069 26.997745,27.140456 26.997745,27.140456 C 18.528582,18.264221 13.291696,25.230495 11.500037,31.436501 z"
     style="fill:#404040;"/>
  </a>
 </g>
</svg>

<style type='text/css'>
<![CDATA[
[data-mouse-over-selected='false'] { opacity: 0.7; }
[data-mouse-over-selected='true']  { opacity: 1.0; }
]]>
</style>
<script type="application/ecmascript"><![CDATA[
document.addEventListener('DOMContentLoaded', (event) => {
  highlightEdges();
  highlightAdjacentNodes();
});
]]></script>
</svg>
