<?xml version="1.0" encoding="UTF-8" standalone="no"?>
<!DOCTYPE svg PUBLIC "-//W3C//DTD SVG 1.1//EN"
 "http://www.w3.org/Graphics/SVG/1.1/DTD/svg11.dtd">
<!-- Generated by graphviz version 2.43.0 (0)
 -->
<!-- Title: leaguewizard.api.callback_handler.on_message Pages: 1 -->
<svg width="537pt" height="230pt"
 viewBox="0.00 0.00 537.00 230.00" xmlns="http://www.w3.org/2000/svg" xmlns:xlink="http://www.w3.org/1999/xlink">
<g id="graph0" class="graph" transform="scale(1 1) rotate(0) translate(4 226)">
<title>leaguewizard.api.callback_handler.on_message</title>
<!-- Node1 -->
<g id="Node000001" class="node">
<title>Node1</title>
<g id="a_Node000001"><a xlink:title=" ">
<polygon fill="#999999" stroke="#666666" points="143,-126 0,-126 0,-96 143,-96 143,-126"/>
<text text-anchor="start" x="8" y="-114" font-family="Helvetica,sans-Serif" font-size="10.00">leaguewizard.api.callback</text>
<text text-anchor="middle" x="71.5" y="-103" font-family="Helvetica,sans-Serif" font-size="10.00">_handler.on_message</text>
</a>
</g>
</g>
<!-- Node2 -->
<g id="Node000002" class="node">
<title>Node2</title>
<g id="a_Node000002"><a xlink:href="namespaceleaguewizard_1_1api_1_1callback__handler.html#a5721c8586e4905dbf65067f6a2239575" target="_top" xlink:title=" ">
<polygon fill="white" stroke="#666666" points="337,-222 179,-222 179,-192 337,-192 337,-222"/>
<text text-anchor="start" x="187" y="-210" font-family="Helvetica,sans-Serif" font-size="10.00">leaguewizard.api.callback</text>
<text text-anchor="middle" x="258" y="-199" font-family="Helvetica,sans-Serif" font-size="10.00">_handler._get_champion_dict</text>
</a>
</g>
</g>
<!-- Node1&#45;&gt;Node2 -->
<g id="edge1_Node000001_Node000002" class="edge">
<title>Node1&#45;&gt;Node2</title>
<g id="a_edge1_Node000001_Node000002"><a xlink:title=" ">
<path fill="none" stroke="#63b8ff" d="M91.09,-126.09C111.56,-142.09 145.99,-167.2 179,-183 182.99,-184.91 187.17,-186.71 191.42,-188.4"/>
<polygon fill="#63b8ff" stroke="#63b8ff" points="190.24,-191.7 200.84,-191.92 192.7,-185.14 190.24,-191.7"/>
</a>
</g>
</g>
<!-- Node4 -->
<g id="Node000004" class="node">
<title>Node4</title>
<g id="a_Node000004"><a xlink:href="namespaceleaguewizard_1_1api_1_1callback__handler.html#aeea1d241fa2c5c1593c43604f3be2c77" target="_top" xlink:title=" ">
<polygon fill="white" stroke="#666666" points="337,-174 179,-174 179,-144 337,-144 337,-174"/>
<text text-anchor="start" x="187" y="-162" font-family="Helvetica,sans-Serif" font-size="10.00">leaguewizard.api.callback</text>
<text text-anchor="middle" x="258" y="-151" font-family="Helvetica,sans-Serif" font-size="10.00">_handler.handle_auto_accept</text>
</a>
</g>
</g>
<!-- Node1&#45;&gt;Node4 -->
<g id="edge3_Node000001_Node000004" class="edge">
<title>Node1&#45;&gt;Node4</title>
<g id="a_edge3_Node000001_Node000004"><a xlink:title=" ">
<path fill="none" stroke="#63b8ff" d="M130.37,-126.06C149.18,-130.95 170.2,-136.42 189.64,-141.48"/>
<polygon fill="#63b8ff" stroke="#63b8ff" points="188.78,-144.87 199.33,-144 190.54,-138.09 188.78,-144.87"/>
</a>
</g>
</g>
<!-- Node5 -->
<g id="Node000005" class="node">
<title>Node5</title>
<g id="a_Node000005"><a xlink:href="namespaceleaguewizard_1_1api_1_1callback__handler.html#ae7069e1c4ff33fc39f3ce4f8a49d0ece" target="_top" xlink:title=" ">
<polygon fill="white" stroke="#666666" points="329.5,-126 186.5,-126 186.5,-96 329.5,-96 329.5,-126"/>
<text text-anchor="start" x="194.5" y="-114" font-family="Helvetica,sans-Serif" font-size="10.00">leaguewizard.api.callback</text>
<text text-anchor="middle" x="258" y="-103" font-family="Helvetica,sans-Serif" font-size="10.00">_handler.send_itemsets</text>
</a>
</g>
</g>
<!-- Node1&#45;&gt;Node5 -->
<g id="edge4_Node000001_Node000005" class="edge">
<title>Node1&#45;&gt;Node5</title>
<g id="a_edge4_Node000001_Node000005"><a xlink:title=" ">
<path fill="none" stroke="#63b8ff" d="M143.04,-111C153.95,-111 165.28,-111 176.38,-111"/>
<polygon fill="#63b8ff" stroke="#63b8ff" points="176.5,-114.5 186.5,-111 176.5,-107.5 176.5,-114.5"/>
</a>
</g>
</g>
<!-- Node6 -->
<g id="Node000006" class="node">
<title>Node6</title>
<g id="a_Node000006"><a xlink:href="namespaceleaguewizard_1_1api_1_1callback__handler.html#a974d4adf1ba96f698951f14c48da662a" target="_top" xlink:title=" ">
<polygon fill="white" stroke="#666666" points="329.5,-78 186.5,-78 186.5,-48 329.5,-48 329.5,-78"/>
<text text-anchor="start" x="194.5" y="-66" font-family="Helvetica,sans-Serif" font-size="10.00">leaguewizard.api.callback</text>
<text text-anchor="middle" x="258" y="-55" font-family="Helvetica,sans-Serif" font-size="10.00">_handler.send_perks</text>
</a>
</g>
</g>
<!-- Node1&#45;&gt;Node6 -->
<g id="edge5_Node000001_Node000006" class="edge">
<title>Node1&#45;&gt;Node6</title>
<g id="a_edge5_Node000001_Node000006"><a xlink:title=" ">
<path fill="none" stroke="#63b8ff" d="M130.37,-95.94C149.18,-91.05 170.2,-85.58 189.64,-80.52"/>
<polygon fill="#63b8ff" stroke="#63b8ff" points="190.54,-83.91 199.33,-78 188.78,-77.13 190.54,-83.91"/>
</a>
</g>
</g>
<!-- Node7 -->
<g id="Node000007" class="node">
<title>Node7</title>
<g id="a_Node000007"><a xlink:href="namespaceleaguewizard_1_1api_1_1callback__handler.html#a030482f8549390aeaf684fb3e78067c4" target="_top" xlink:title=" ">
<polygon fill="white" stroke="#666666" points="329.5,-30 186.5,-30 186.5,0 329.5,0 329.5,-30"/>
<text text-anchor="start" x="194.5" y="-18" font-family="Helvetica,sans-Serif" font-size="10.00">leaguewizard.api.callback</text>
<text text-anchor="middle" x="258" y="-7" font-family="Helvetica,sans-Serif" font-size="10.00">_handler.send_spells</text>
</a>
</g>
</g>
<!-- Node1&#45;&gt;Node7 -->
<g id="edge6_Node000001_Node000007" class="edge">
<title>Node1&#45;&gt;Node7</title>
<g id="a_edge6_Node000001_Node000007"><a xlink:title=" ">
<path fill="none" stroke="#63b8ff" d="M91.09,-95.91C111.56,-79.91 145.99,-54.8 179,-39 182.99,-37.09 187.17,-35.29 191.42,-33.6"/>
<polygon fill="#63b8ff" stroke="#63b8ff" points="192.7,-36.86 200.84,-30.08 190.24,-30.3 192.7,-36.86"/>
</a>
</g>
</g>
<!-- Node3 -->
<g id="Node000003" class="node">
<title>Node3</title>
<g id="a_Node000003"><a xlink:href="namespaceleaguewizard_1_1api_1_1callback__handler.html#a06176f37532095e427663de4ea639ac8" target="_top" xlink:title=" ">
<polygon fill="white" stroke="#666666" points="529,-222 373,-222 373,-192 529,-192 529,-222"/>
<text text-anchor="start" x="381" y="-210" font-family="Helvetica,sans-Serif" font-size="10.00">leaguewizard.api.callback</text>
<text text-anchor="middle" x="451" y="-199" font-family="Helvetica,sans-Serif" font-size="10.00">_handler._get_latest_version</text>
</a>
</g>
</g>
<!-- Node2&#45;&gt;Node3 -->
<g id="edge2_Node000002_Node000003" class="edge">
<title>Node2&#45;&gt;Node3</title>
<g id="a_edge2_Node000002_Node000003"><a xlink:title=" ">
<path fill="none" stroke="#63b8ff" d="M337.24,-207C345.59,-207 354.12,-207 362.57,-207"/>
<polygon fill="#63b8ff" stroke="#63b8ff" points="362.81,-210.5 372.81,-207 362.81,-203.5 362.81,-210.5"/>
</a>
</g>
</g>
</g>
</svg>
